<?xml version="1.0" encoding="utf-8" standalone="no"?>
<!DOCTYPE svg PUBLIC "-//W3C//DTD SVG 1.1//EN"
  "http://www.w3.org/Graphics/SVG/1.1/DTD/svg11.dtd">
<!-- Created with matplotlib (http://matplotlib.org/) -->
<svg height="396pt" version="1.1" viewBox="0 0 288 396" width="288pt" xmlns="http://www.w3.org/2000/svg" xmlns:xlink="http://www.w3.org/1999/xlink">
 <defs>
  <style type="text/css">
*{stroke-linecap:butt;stroke-linejoin:round;}
  </style>
 </defs>
 <g id="figure_1">
  <g id="patch_1">
   <path d="M 0 396 
L 288 396 
L 288 0 
L 0 0 
z
" style="fill:#ffffff;"/>
  </g>
  <g id="axes_1">
   <g id="patch_2">
    <path d="M 36 346.5 
L 259.2 346.5 
L 259.2 47.52 
L 36 47.52 
z
" style="fill:#ffffff;"/>
   </g>
   <g id="matplotlib.axis_1">
    <g id="xtick_1">
     <g id="line2d_1">
      <defs>
       <path d="M 0 0 
L 0 4 
" id="mb03c728e26" style="stroke:#000000;stroke-width:2;"/>
      </defs>
      <g>
       <use style="stroke:#000000;stroke-width:2;" x="36" xlink:href="#mb03c728e26" y="346.5"/>
      </g>
     </g>
     <g id="text_1">
      <text style="font-family:Arial;font-size:10px;font-style:normal;font-weight:normal;text-anchor:middle;" transform="rotate(-0, 36, 361.157812)" x="36" y="361.157812">0.0</text>
     </g>
    </g>
    <g id="xtick_2">
     <g id="line2d_2">
      <g>
       <use style="stroke:#000000;stroke-width:2;" x="91.8" xlink:href="#mb03c728e26" y="346.5"/>
      </g>
     </g>
     <g id="text_2">
      <text style="font-family:Arial;font-size:10px;font-style:normal;font-weight:normal;text-anchor:middle;" transform="rotate(-0, 91.8, 361.157812)" x="91.8" y="361.157812">2.0</text>
     </g>
    </g>
    <g id="xtick_3">
     <g id="line2d_3">
      <g>
       <use style="stroke:#000000;stroke-width:2;" x="147.6" xlink:href="#mb03c728e26" y="346.5"/>
      </g>
     </g>
     <g id="text_3">
      <text style="font-family:Arial;font-size:10px;font-style:normal;font-weight:normal;text-anchor:middle;" transform="rotate(-0, 147.6, 361.157812)" x="147.6" y="361.157812">4.0</text>
     </g>
    </g>
    <g id="xtick_4">
     <g id="line2d_4">
      <g>
       <use style="stroke:#000000;stroke-width:2;" x="203.4" xlink:href="#mb03c728e26" y="346.5"/>
      </g>
     </g>
     <g id="text_4">
      <text style="font-family:Arial;font-size:10px;font-style:normal;font-weight:normal;text-anchor:middle;" transform="rotate(-0, 203.4, 361.157812)" x="203.4" y="361.157812">6.0</text>
     </g>
    </g>
    <g id="xtick_5">
     <g id="line2d_5">
      <g>
       <use style="stroke:#000000;stroke-width:2;" x="259.2" xlink:href="#mb03c728e26" y="346.5"/>
      </g>
     </g>
     <g id="text_5">
      <text style="font-family:Arial;font-size:10px;font-style:normal;font-weight:normal;text-anchor:middle;" transform="rotate(-0, 259.2, 361.157812)" x="259.2" y="361.157812">8.0</text>
     </g>
    </g>
    <g id="text_6">
     <!-- PAR ($\mu$mol $m^{-2}$ $s^{-1}$) -->
     <g transform="translate(100.05 376.245313)">
      <text>
       <tspan style="font-family:Arial;font-size:10px;font-style:regular;font-weight:regular;" x="0 6.669922 13.339844 20.561523 23.339844 33.032227 41.362305 46.923828 49.145508 72.721439 91.76612" y="-0.9765625">PAR (mol  )</tspan>
       <tspan style="font-family:DejaVu Sans;font-size:10px;font-style:oblique;font-weight:oblique;" x="26.669922 51.923828 75.499759" y="-0.9765625">μms</tspan>
       <tspan style="font-family:DejaVu Sans;font-size:7px;font-style:book;font-weight:book;" x="62.129154 67.994388 81.173835 87.039069" y="-4.8046875">−2−1</tspan>
      </text>
     </g>
    </g>
   </g>
   <g id="matplotlib.axis_2">
    <g id="ytick_1">
     <g id="line2d_6">
      <defs>
       <path d="M 0 0 
L -4 0 
" id="m25f985da77" style="stroke:#000000;stroke-width:2;"/>
      </defs>
      <g>
       <use style="stroke:#000000;stroke-width:2;" x="36" xlink:href="#m25f985da77" y="47.52"/>
      </g>
     </g>
     <g id="line2d_7">
      <defs>
       <path d="M 0 0 
L 4 0 
" id="m0d4580bfa8" style="stroke:#000000;stroke-width:2;"/>
      </defs>
      <g>
       <use style="stroke:#000000;stroke-width:2;" x="259.2" xlink:href="#m0d4580bfa8" y="47.52"/>
      </g>
     </g>
     <g id="text_7">
      <text style="font-family:Arial;font-size:10px;font-style:normal;font-weight:normal;text-anchor:end;" transform="rotate(-0, 28.5, 51.098906)" x="28.5" y="51.098906">0</text>
     </g>
    </g>
    <g id="ytick_2">
     <g id="line2d_8">
      <g>
       <use style="stroke:#000000;stroke-width:2;" x="36" xlink:href="#m25f985da77" y="122.265"/>
      </g>
     </g>
     <g id="line2d_9">
      <g>
       <use style="stroke:#000000;stroke-width:2;" x="259.2" xlink:href="#m0d4580bfa8" y="122.265"/>
      </g>
     </g>
     <g id="text_8">
      <text style="font-family:Arial;font-size:10px;font-style:normal;font-weight:normal;text-anchor:end;" transform="rotate(-0, 28.5, 125.843906)" x="28.5" y="125.843906">5</text>
     </g>
    </g>
    <g id="ytick_3">
     <g id="line2d_10">
      <g>
       <use style="stroke:#000000;stroke-width:2;" x="36" xlink:href="#m25f985da77" y="197.01"/>
      </g>
     </g>
     <g id="line2d_11">
      <g>
       <use style="stroke:#000000;stroke-width:2;" x="259.2" xlink:href="#m0d4580bfa8" y="197.01"/>
      </g>
     </g>
     <g id="text_9">
      <text style="font-family:Arial;font-size:10px;font-style:normal;font-weight:normal;text-anchor:end;" transform="rotate(-0, 28.5, 200.588906)" x="28.5" y="200.588906">10</text>
     </g>
    </g>
    <g id="ytick_4">
     <g id="line2d_12">
      <g>
       <use style="stroke:#000000;stroke-width:2;" x="36" xlink:href="#m25f985da77" y="271.755"/>
      </g>
     </g>
     <g id="line2d_13">
      <g>
       <use style="stroke:#000000;stroke-width:2;" x="259.2" xlink:href="#m0d4580bfa8" y="271.755"/>
      </g>
     </g>
     <g id="text_10">
      <text style="font-family:Arial;font-size:10px;font-style:normal;font-weight:normal;text-anchor:end;" transform="rotate(-0, 28.5, 275.333906)" x="28.5" y="275.333906">15</text>
     </g>
    </g>
    <g id="ytick_5">
     <g id="line2d_14">
      <g>
       <use style="stroke:#000000;stroke-width:2;" x="36" xlink:href="#m25f985da77" y="346.5"/>
      </g>
     </g>
     <g id="line2d_15">
      <g>
       <use style="stroke:#000000;stroke-width:2;" x="259.2" xlink:href="#m0d4580bfa8" y="346.5"/>
      </g>
     </g>
     <g id="text_11">
      <text style="font-family:Arial;font-size:10px;font-style:normal;font-weight:normal;text-anchor:end;" transform="rotate(-0, 28.5, 350.078906)" x="28.5" y="350.078906">20</text>
     </g>
    </g>
    <g id="text_12">
     <text style="font-family:Arial;font-size:10px;font-style:normal;font-weight:normal;text-anchor:middle;" transform="rotate(-90, 11.273437, 197.01)" x="11.273437" y="197.01">Depth (m)</text>
    </g>
   </g>
   <g id="line2d_16">
    <path clip-path="url(#pfd4de95789)" d="M 107.848805 397 
L 114.399 352.77858 
L 115.794 351.28368 
L 114.957 350.38674 
L 114.957 349.34031 
L 114.678 348.74235 
L 115.236 347.24745 
L 116.352 346.35051 
L 116.073 345.30408 
L 116.073 344.40714 
L 115.794 343.5102 
L 115.794 342.31428 
L 115.236 341.56683 
L 116.352 340.96887 
L 116.073 339.62346 
L 116.073 338.42754 
L 117.189 337.5306 
L 116.91 336.93264 
L 117.468 336.0357 
L 117.189 334.83978 
L 117.189 333.34488 
L 118.026 330.65406 
L 118.863 329.75712 
L 118.305 328.86018 
L 118.584 327.81375 
L 119.7 327.51477 
L 118.863 325.87038 
L 118.863 324.0765 
L 118.584 323.32905 
L 119.421 322.73109 
L 119.142 321.83415 
L 120.258 320.78772 
L 118.584 318.24639 
L 120.537 317.19996 
L 119.979 316.45251 
L 119.421 315.25659 
L 119.421 313.6122 
L 121.653 312.41628 
L 120.258 311.07087 
L 120.537 310.6224 
L 119.979 309.57597 
L 120.816 308.82852 
L 120.258 307.48311 
L 120.258 306.58617 
L 122.49 305.68923 
L 120.537 305.24076 
L 120.537 303.59637 
L 120.816 302.99841 
L 121.932 301.80249 
L 121.653 301.20453 
L 121.932 299.85912 
L 121.374 299.56014 
L 123.048 298.51371 
L 122.49 297.1683 
L 121.932 296.42085 
L 122.49 295.97238 
L 121.932 293.87952 
L 122.769 292.53411 
L 122.49 292.38462 
L 123.327 290.88972 
L 123.885 290.29176 
L 123.048 289.39482 
L 123.606 287.60094 
L 122.49 286.55451 
L 123.606 285.80706 
L 123.327 284.61114 
L 123.885 283.86369 
L 122.211 282.96675 
L 123.885 281.92032 
L 124.443 281.32236 
L 124.164 279.97695 
L 124.164 278.78103 
L 125.559 278.33256 
L 124.722 277.43562 
L 124.164 276.38919 
L 125.559 275.34276 
L 125.28 274.14684 
L 124.443 273.54888 
L 126.117 272.35296 
L 126.117 271.30653 
L 124.722 270.40959 
L 126.396 269.51265 
L 126.396 268.46622 
L 125.559 267.86826 
L 126.117 266.67234 
L 126.117 265.92489 
L 126.675 265.17744 
L 126.954 264.42999 
L 126.675 262.93509 
L 127.512 262.63611 
L 126.675 261.58968 
L 128.07 259.7958 
L 126.954 258.74937 
L 127.512 257.85243 
L 127.791 256.95549 
L 128.907 255.90906 
L 128.349 255.01212 
L 127.791 254.56365 
L 128.628 253.36773 
L 129.186 252.17181 
L 129.186 251.42436 
L 129.465 250.67691 
L 129.186 249.3315 
L 128.628 248.13558 
L 128.907 247.68711 
L 128.628 246.49119 
L 130.023 245.74374 
L 129.744 244.54782 
L 130.581 243.94986 
L 131.139 242.60445 
L 129.186 241.55802 
L 131.418 240.81057 
L 130.86 239.46516 
L 133.092 238.71771 
L 131.418 237.67128 
L 131.697 236.92383 
L 133.65 235.12995 
L 133.371 234.3825 
L 133.371 233.03709 
L 134.766 231.84117 
L 133.929 231.09372 
L 135.045 228.10392 
L 136.44 227.05749 
L 137.277 226.01106 
L 136.44 225.11412 
L 138.114 224.36667 
L 137.556 223.46973 
L 139.509 222.4233 
L 137.835 220.9284 
L 138.672 220.9284 
L 140.904 219.58299 
L 140.904 218.38707 
L 141.462 217.63962 
L 142.857 216.4437 
L 143.973 216.14472 
L 143.973 214.35084 
L 144.252 213.30441 
L 144.531 212.85594 
L 147.042 211.51053 
L 146.484 210.91257 
L 145.926 210.61359 
L 148.716 209.11869 
L 148.995 207.77328 
L 149.274 207.02583 
L 148.995 206.42787 
L 150.39 205.53093 
L 148.716 204.78348 
L 151.785 203.28858 
L 151.785 202.69062 
L 152.901 201.34521 
L 152.901 199.9998 
L 153.18 199.40184 
L 154.296 198.5049 
L 153.738 197.60796 
L 154.296 196.56153 
L 155.691 195.81408 
L 156.807 194.46867 
L 156.249 192.67479 
L 157.365 191.77785 
L 158.202 191.47887 
L 158.76 189.83448 
L 158.76 189.38601 
L 160.434 188.78805 
L 160.155 187.59213 
L 161.55 186.69519 
L 161.55 185.79825 
L 161.271 184.75182 
L 163.782 183.85488 
L 162.387 183.10743 
L 162.387 181.76202 
L 166.014 180.86508 
L 166.014 180.26712 
L 166.851 179.22069 
L 168.525 178.32375 
L 169.083 177.42681 
L 170.199 176.97834 
L 170.478 175.48344 
L 175.221 173.68956 
L 174.663 172.79262 
L 176.616 170.55027 
L 178.569 169.95231 
L 179.964 168.75639 
L 178.569 168.00894 
L 180.522 166.96251 
L 182.754 166.21506 
L 184.149 165.6171 
L 184.986 164.27169 
L 186.381 163.67373 
L 188.055 162.47781 
L 188.613 161.28189 
L 190.008 160.53444 
L 190.008 159.78699 
L 192.24 158.89005 
L 193.356 157.69413 
L 193.635 156.94668 
L 195.03 155.60127 
L 194.472 154.70433 
L 198.378 153.6579 
L 198.378 153.05994 
L 200.331 152.163 
L 200.61 151.11657 
L 202.842 150.07014 
L 202.284 149.02371 
L 205.632 147.97728 
L 203.4 147.6783 
L 205.353 146.33289 
L 205.074 145.28646 
L 205.353 143.94105 
L 205.911 143.64207 
L 207.027 142.44615 
L 207.585 141.10074 
L 206.748 139.90482 
L 207.585 139.60584 
L 208.98 137.214 
L 209.817 136.01808 
L 211.212 135.86859 
L 208.422 134.67267 
L 210.933 132.7293 
L 211.491 131.98185 
L 210.096 131.2344 
L 212.049 129.88899 
L 211.77 129.29103 
L 213.165 128.39409 
L 214.56 127.19817 
L 214.002 126.60021 
L 215.397 125.55378 
L 215.955 124.95582 
L 217.908 124.20837 
L 216.513 123.01245 
L 219.861 121.06908 
L 219.861 120.02265 
L 219.582 119.42469 
L 221.535 118.07928 
L 220.977 117.03285 
L 223.767 116.58438 
L 224.883 114.49152 
L 229.347 110.45529 
L 227.394 110.00682 
L 231.579 107.91396 
L 231.3 106.41906 
L 232.416 105.97059 
L 232.974 105.07365 
L 231.3 103.57875 
L 232.416 103.27977 
L 230.463 101.03742 
L 231.021 100.73844 
L 227.952 98.49609 
L 228.789 97.44966 
L 223.488 94.16088 
L 220.419 93.8619 
L 215.676 92.66598 
L 212.886 91.61955 
L 210.096 90.72261 
L 205.632 89.82567 
L 203.121 88.48026 
L 196.704 87.8823 
L 194.751 86.83587 
L 187.497 85.63995 
L 182.475 85.19148 
L 176.616 83.84607 
L 171.594 83.09862 
L 166.572 82.20168 
L 159.876 81.45423 
L 155.691 80.25831 
L 152.064 79.66035 
L 147.6 79.06239 
L 142.299 78.01596 
L 136.998 77.11902 
L 135.324 77.11902 
L 133.092 76.07259 
L 129.186 75.17565 
L 129.186 74.27871 
L 126.954 73.97973 
L 127.233 73.23228 
L 126.117 73.08279 
L 125.838 72.78381 
L 124.722 72.03636 
L 126.117 71.88687 
L 126.117 71.73738 
L 125.559 70.98993 
L 125.559 70.69095 
L 125.001 70.54146 
L 126.117 70.24248 
L 125.838 70.09299 
L 125.838 69.49503 
L 125.838 69.49503 
L 126.117 69.34554 
L 126.117 68.59809 
L 126.675 68.00013 
L 126.954 67.40217 
L 126.954 67.40217 
L 127.233 67.40217 
L 126.675 66.65472 
L 127.512 66.35574 
L 126.675 65.90727 
L 127.791 65.90727 
L 127.791 65.60829 
L 126.954 65.30931 
L 128.07 65.01033 
L 126.117 64.56186 
L 126.396 64.11339 
L 126.396 63.81441 
L 125.838 63.66492 
L 125.28 63.9639 
L 126.396 64.11339 
L 126.117 63.9639 
L 125.838 63.66492 
L 125.838 63.9639 
L 125.001 63.66492 
L 125.838 63.51543 
L 124.722 63.36594 
L 124.164 63.66492 
L 124.722 63.81441 
L 123.327 63.51543 
L 124.722 63.51543 
L 123.606 63.9639 
L 124.722 63.51543 
L 124.164 63.36594 
L 124.443 63.51543 
L 124.722 63.36594 
L 123.606 63.66492 
L 123.885 63.51543 
L 124.164 63.06696 
L 122.769 63.36594 
L 123.606 63.06696 
L 124.164 63.51543 
L 123.606 63.51543 
L 123.885 63.21645 
L 123.885 63.51543 
L 122.769 63.06696 
L 122.769 63.36594 
L 123.327 63.06696 
L 123.327 63.51543 
L 123.606 63.06696 
L 123.885 63.06696 
L 123.327 62.76798 
L 123.327 62.91747 
L 122.769 62.31951 
L 123.885 62.91747 
L 121.932 62.469 
L 122.211 61.72155 
L 122.769 61.57206 
L 124.443 61.57206 
L 122.49 61.57206 
L 123.885 61.12359 
L 123.606 61.57206 
L 123.606 61.12359 
L 124.443 60.82461 
L 123.048 60.52563 
L 124.443 60.82461 
L 124.722 60.67512 
L 124.164 60.07716 
L 124.443 60.67512 
L 124.164 60.52563 
L 125.559 60.22665 
L 125.001 60.22665 
L 124.722 59.77818 
L 125.001 59.92767 
L 124.722 59.77818 
L 125.001 59.18022 
L 125.001 59.4792 
L 126.117 58.88124 
L 125.001 58.88124 
L 126.117 58.73175 
L 125.28 58.43277 
L 125.001 57.9843 
L 126.396 57.38634 
L 126.117 57.38634 
L 125.28 57.53583 
L 125.001 57.23685 
L 126.117 57.38634 
L 126.396 57.08736 
L 125.559 57.08736 
L 124.443 56.93787 
L 124.443 56.4894 
L 123.885 56.78838 
L 124.443 55.44297 
L 123.885 56.19042 
L 122.49 56.19042 
L 122.769 55.74195 
L 119.7 55.29348 
L 119.979 55.14399 
L 119.142 54.84501 
L 118.863 54.54603 
L 117.468 54.39654 
L 117.468 54.54603 
L 117.189 54.24705 
L 117.468 53.79858 
L 116.352 53.79858 
L 116.073 53.64909 
L 115.794 53.05113 
L 114.678 53.05113 
L 115.515 52.90164 
L 115.794 52.30368 
L 116.352 51.85521 
L 115.236 51.55623 
L 114.957 50.95827 
L 116.631 51.55623 
L 115.515 50.5098 
L 116.352 50.95827 
L 115.794 50.36031 
L 115.794 50.80878 
L 115.236 49.61286 
L 114.957 49.76235 
L 114.957 49.76235 
" style="fill:none;stroke:#000000;stroke-linecap:round;"/>
   </g>
   <g id="patch_3">
    <path d="M 36 346.5 
L 36 47.52 
" style="fill:none;stroke:#000000;stroke-linecap:square;stroke-linejoin:miter;stroke-width:1.5;"/>
   </g>
   <g id="patch_4">
    <path d="M 259.2 346.5 
L 259.2 47.52 
" style="fill:none;stroke:#000000;stroke-linecap:square;stroke-linejoin:miter;stroke-width:1.5;"/>
   </g>
   <g id="patch_5">
    <path d="M 36 346.5 
L 259.2 346.5 
" style="fill:none;stroke:#000000;stroke-linecap:square;stroke-linejoin:miter;stroke-width:1.5;"/>
   </g>
   <g id="patch_6">
    <path d="M 36 47.52 
L 259.2 47.52 
" style="fill:none;stroke:#000000;stroke-linecap:square;stroke-linejoin:miter;stroke-width:1.5;"/>
   </g>
   <g id="legend_1">
    <g id="line2d_17">
     <path d="M 201.648438 60.177812 
L 221.648438 60.177812 
" style="fill:none;stroke:#000000;stroke-linecap:round;"/>
    </g>
    <g id="line2d_18"/>
    <g id="text_13">
     <text style="fill:#262626;font-family:Arial;font-size:10px;font-style:normal;font-weight:normal;text-anchor:start;" transform="rotate(-0, 229.648438, 63.677812)" x="229.648438" y="63.677812">PAR</text>
    </g>
   </g>
  </g>
  <g id="axes_2">
   <g id="matplotlib.axis_3">
    <g id="xtick_6">
     <g id="line2d_19">
      <defs>
       <path d="M 0 0 
L 0 -4 
" id="m50bf65b4ca" style="stroke:#000000;stroke-width:2;"/>
      </defs>
      <g>
       <use style="stroke:#000000;stroke-width:2;" x="36" xlink:href="#m50bf65b4ca" y="47.52"/>
      </g>
     </g>
     <g id="text_14">
      <text style="font-family:Arial;font-size:10px;font-style:normal;font-weight:normal;text-anchor:middle;" transform="rotate(-0, 36, 38.0325)" x="36" y="38.0325">-2.0</text>
     </g>
    </g>
    <g id="xtick_7">
     <g id="line2d_20">
      <g>
       <use style="stroke:#000000;stroke-width:2;" x="110.4" xlink:href="#m50bf65b4ca" y="47.52"/>
      </g>
     </g>
     <g id="text_15">
      <text style="font-family:Arial;font-size:10px;font-style:normal;font-weight:normal;text-anchor:middle;" transform="rotate(-0, 110.4, 38.0325)" x="110.4" y="38.0325">-1.5</text>
     </g>
    </g>
    <g id="xtick_8">
     <g id="line2d_21">
      <g>
       <use style="stroke:#000000;stroke-width:2;" x="184.8" xlink:href="#m50bf65b4ca" y="47.52"/>
      </g>
     </g>
     <g id="text_16">
      <text style="font-family:Arial;font-size:10px;font-style:normal;font-weight:normal;text-anchor:middle;" transform="rotate(-0, 184.8, 38.0325)" x="184.8" y="38.0325">-1.0</text>
     </g>
    </g>
    <g id="xtick_9">
     <g id="line2d_22">
      <g>
       <use style="stroke:#000000;stroke-width:2;" x="259.2" xlink:href="#m50bf65b4ca" y="47.52"/>
      </g>
     </g>
     <g id="text_17">
      <text style="font-family:Arial;font-size:10px;font-style:normal;font-weight:normal;text-anchor:middle;" transform="rotate(-0, 259.2, 38.0325)" x="259.2" y="38.0325">-0.5</text>
     </g>
    </g>
    <g id="text_18">
     <text style="font-family:Arial;font-size:10px;font-style:normal;font-weight:normal;text-anchor:middle;" transform="rotate(-0, 147.6, 26.874687)" x="147.6" y="26.874687">Temperature (°C)</text>
    </g>
   </g>
   <g id="line2d_23">
    <path clip-path="url(#pfd4de95789)" d="M 61.296 397 
L 61.296 352.77858 
L 62.784 351.28368 
L 62.784 349.34031 
L 61.296 348.74235 
L 62.784 347.24745 
L 62.784 345.30408 
L 61.296 344.40714 
L 62.784 343.5102 
L 62.784 342.31428 
L 61.296 341.56683 
L 61.296 339.62346 
L 62.784 338.42754 
L 62.784 337.5306 
L 61.296 336.93264 
L 62.784 336.0357 
L 62.784 333.34488 
L 61.296 332.44794 
L 62.784 332.14896 
L 62.784 329.75712 
L 61.296 328.86018 
L 62.784 327.81375 
L 62.784 325.87038 
L 61.296 325.42191 
L 61.296 324.0765 
L 62.784 323.32905 
L 62.784 322.73109 
L 61.296 321.83415 
L 61.296 320.78772 
L 62.784 319.89078 
L 61.296 318.84435 
L 61.296 318.24639 
L 62.784 317.19996 
L 61.296 316.45251 
L 62.784 315.25659 
L 61.296 314.80812 
L 62.784 313.6122 
L 62.784 311.07087 
L 61.296 310.6224 
L 61.296 309.57597 
L 62.784 308.82852 
L 61.296 307.48311 
L 61.296 306.58617 
L 62.784 305.68923 
L 62.784 305.24076 
L 61.296 303.59637 
L 61.296 301.80249 
L 62.784 301.20453 
L 62.784 299.85912 
L 61.296 299.56014 
L 62.784 298.51371 
L 61.296 297.1683 
L 62.784 296.42085 
L 61.296 295.97238 
L 61.296 293.87952 
L 62.784 292.53411 
L 61.296 292.38462 
L 62.784 290.88972 
L 62.784 290.29176 
L 61.296 289.39482 
L 61.296 288.34839 
L 62.784 287.60094 
L 62.784 286.55451 
L 61.296 285.80706 
L 61.296 284.61114 
L 62.784 283.86369 
L 61.296 282.96675 
L 61.296 281.32236 
L 62.784 279.97695 
L 62.784 278.33256 
L 61.296 277.43562 
L 62.784 276.38919 
L 62.784 275.34276 
L 61.296 274.14684 
L 61.296 273.54888 
L 62.784 272.35296 
L 61.296 271.30653 
L 61.296 269.51265 
L 62.784 268.46622 
L 62.784 266.67234 
L 61.296 265.92489 
L 62.784 265.17744 
L 62.784 262.93509 
L 61.296 262.63611 
L 61.296 260.54325 
L 62.784 259.7958 
L 61.296 258.74937 
L 62.784 257.85243 
L 62.784 256.95549 
L 61.296 255.90906 
L 61.296 253.36773 
L 62.784 252.17181 
L 61.296 251.42436 
L 61.296 242.60445 
L 62.784 241.55802 
L 61.296 240.81057 
L 61.296 236.92383 
L 59.808 235.8774 
L 61.296 235.12995 
L 61.296 225.11412 
L 59.808 224.36667 
L 61.296 223.46973 
L 61.296 217.63962 
L 59.808 216.4437 
L 61.296 216.14472 
L 59.808 214.79931 
L 59.808 207.02583 
L 58.32 206.42787 
L 59.808 205.53093 
L 59.808 203.28858 
L 58.32 202.69062 
L 58.32 185.79825 
L 56.832 184.75182 
L 58.32 183.85488 
L 58.32 178.32375 
L 56.832 177.42681 
L 58.32 176.97834 
L 58.32 174.5865 
L 56.832 173.68956 
L 58.32 172.79262 
L 58.32 170.55027 
L 56.832 169.95231 
L 58.32 168.75639 
L 56.832 168.00894 
L 58.32 166.96251 
L 56.832 166.21506 
L 58.32 165.6171 
L 58.32 163.67373 
L 56.832 162.47781 
L 58.32 161.28189 
L 56.832 160.53444 
L 56.832 157.69413 
L 58.32 156.94668 
L 58.32 155.60127 
L 56.832 154.70433 
L 56.832 153.6579 
L 58.32 153.05994 
L 58.32 152.163 
L 56.832 151.11657 
L 56.832 150.07014 
L 58.32 149.02371 
L 56.832 147.97728 
L 56.832 136.01808 
L 55.344 135.86859 
L 56.832 134.67267 
L 56.832 132.7293 
L 55.344 131.98185 
L 56.832 131.2344 
L 56.832 129.29103 
L 55.344 128.39409 
L 56.832 127.19817 
L 56.832 125.55378 
L 55.344 124.95582 
L 56.832 124.20837 
L 56.832 121.81653 
L 55.344 121.06908 
L 56.832 120.02265 
L 56.832 118.07928 
L 55.344 117.03285 
L 56.832 116.58438 
L 56.832 114.49152 
L 55.344 113.44509 
L 56.832 112.54815 
L 56.832 110.45529 
L 55.344 110.00682 
L 56.832 108.8109 
L 56.832 106.41906 
L 55.344 105.97059 
L 55.344 105.07365 
L 56.832 103.57875 
L 56.832 103.27977 
L 55.344 102.08385 
L 56.832 101.03742 
L 56.832 99.54252 
L 55.344 98.49609 
L 56.832 97.44966 
L 56.832 93.8619 
L 58.32 92.66598 
L 58.32 90.72261 
L 59.808 89.82567 
L 58.32 88.48026 
L 59.808 87.8823 
L 59.808 86.83587 
L 61.296 85.63995 
L 61.296 82.20168 
L 62.784 81.45423 
L 62.784 80.25831 
L 64.272 79.66035 
L 70.224 79.06239 
L 76.176 78.01596 
L 82.128 77.11902 
L 88.08 77.11902 
L 94.032 76.07259 
L 99.984 75.62412 
L 104.448 75.17565 
L 107.424 74.27871 
L 111.888 73.97973 
L 114.864 73.23228 
L 117.84 73.08279 
L 117.84 72.78381 
L 120.816 72.03636 
L 123.792 71.73738 
L 125.28 70.98993 
L 126.768 70.69095 
L 128.256 70.54146 
L 129.744 70.24248 
L 131.232 70.09299 
L 134.208 69.49503 
L 135.696 69.49503 
L 137.184 69.34554 
L 138.672 68.74758 
L 140.16 68.59809 
L 141.648 68.00013 
L 141.648 67.40217 
L 141.648 67.40217 
L 143.136 67.40217 
L 144.624 66.65472 
L 146.112 66.35574 
L 146.112 65.90727 
L 149.088 65.90727 
L 150.576 65.60829 
L 152.064 65.4588 
L 152.064 65.30931 
L 156.528 64.86084 
L 156.528 64.56186 
L 158.016 64.11339 
L 159.504 63.81441 
L 160.992 63.66492 
L 162.48 63.9639 
L 162.48 64.11339 
L 163.968 63.9639 
L 165.456 63.66492 
L 166.944 63.9639 
L 165.456 63.66492 
L 166.944 63.51543 
L 166.944 63.36594 
L 166.944 63.66492 
L 165.456 63.81441 
L 166.944 63.51543 
L 166.944 63.51543 
L 168.432 63.9639 
L 168.432 63.51543 
L 169.92 63.36594 
L 169.92 63.51543 
L 171.408 63.36594 
L 169.92 63.66492 
L 171.408 63.51543 
L 171.408 63.06696 
L 171.408 63.51543 
L 172.896 63.06696 
L 172.896 63.51543 
L 172.896 62.31951 
L 174.384 62.91747 
L 174.384 61.72155 
L 175.872 61.57206 
L 175.872 61.57206 
L 174.384 61.57206 
L 175.872 61.12359 
L 177.36 61.57206 
L 177.36 60.82461 
L 178.848 60.52563 
L 178.848 60.82461 
L 180.336 60.67512 
L 178.848 60.07716 
L 181.824 60.67512 
L 181.824 60.22665 
L 180.336 60.22665 
L 181.824 59.77818 
L 181.824 59.92767 
L 181.824 58.88124 
L 183.312 58.88124 
L 181.824 58.73175 
L 184.8 58.13379 
L 184.8 57.23685 
L 184.8 57.38634 
L 186.288 57.08736 
L 187.776 57.08736 
L 187.776 56.4894 
L 189.264 56.78838 
L 190.752 55.44297 
L 190.752 56.19042 
L 190.752 56.19042 
L 193.728 55.74195 
L 193.728 55.29348 
L 192.24 55.14399 
L 195.216 54.54603 
L 196.704 54.39654 
L 196.704 54.54603 
L 198.192 54.24705 
L 198.192 53.79858 
L 199.68 53.79858 
L 199.68 51.85521 
L 201.168 51.55623 
L 201.168 50.95827 
L 201.168 51.55623 
L 202.656 51.55623 
L 202.656 50.5098 
L 202.656 50.95827 
L 201.168 50.36031 
L 201.168 50.80878 
L 201.168 49.61286 
L 201.168 49.76235 
" style="fill:none;stroke:#ff0000;stroke-linecap:round;"/>
   </g>
   <g id="patch_7">
    <path d="M 36 346.5 
L 36 47.52 
" style="fill:none;stroke:#000000;stroke-linecap:square;stroke-linejoin:miter;stroke-width:1.5;"/>
   </g>
   <g id="patch_8">
    <path d="M 259.2 346.5 
L 259.2 47.52 
" style="fill:none;stroke:#000000;stroke-linecap:square;stroke-linejoin:miter;stroke-width:1.5;"/>
   </g>
   <g id="patch_9">
    <path d="M 36 346.5 
L 259.2 346.5 
" style="fill:none;stroke:#000000;stroke-linecap:square;stroke-linejoin:miter;stroke-width:1.5;"/>
   </g>
   <g id="patch_10">
    <path d="M 36 47.52 
L 259.2 47.52 
" style="fill:none;stroke:#000000;stroke-linecap:square;stroke-linejoin:miter;stroke-width:1.5;"/>
   </g>
   <g id="legend_2">
    <g id="line2d_24">
     <path d="M 164.976562 332.0125 
L 184.976562 332.0125 
" style="fill:none;stroke:#ff0000;stroke-linecap:round;"/>
    </g>
    <g id="line2d_25"/>
    <g id="text_19">
     <text style="fill:#262626;font-family:Arial;font-size:10px;font-style:normal;font-weight:normal;text-anchor:start;" transform="rotate(-0, 192.976562, 335.5125)" x="192.976562" y="335.5125">Temperature</text>
    </g>
   </g>
  </g>
 </g>
 <defs>
  <clipPath id="pfd4de95789">
   <rect height="298.98" width="223.2" x="36" y="47.52"/>
  </clipPath>
 </defs>
</svg>
