<?xml version="1.0" encoding="utf-8" standalone="no"?>
<!DOCTYPE svg PUBLIC "-//W3C//DTD SVG 1.1//EN"
  "http://www.w3.org/Graphics/SVG/1.1/DTD/svg11.dtd">
<!-- Created with matplotlib (https://matplotlib.org/) -->
<svg height="153pt" version="1.1" viewBox="0 0 648 153" width="648pt" xmlns="http://www.w3.org/2000/svg" xmlns:xlink="http://www.w3.org/1999/xlink">
 <metadata>
  <rdf:RDF xmlns:cc="http://creativecommons.org/ns#" xmlns:dc="http://purl.org/dc/elements/1.1/" xmlns:rdf="http://www.w3.org/1999/02/22-rdf-syntax-ns#">
   <cc:Work>
    <dc:type rdf:resource="http://purl.org/dc/dcmitype/StillImage"/>
    <dc:date>2020-11-23T14:23:50.115451</dc:date>
    <dc:format>image/svg+xml</dc:format>
    <dc:creator>
     <cc:Agent>
      <dc:title>Matplotlib v3.3.3, https://matplotlib.org/</dc:title>
     </cc:Agent>
    </dc:creator>
   </cc:Work>
  </rdf:RDF>
 </metadata>
 <defs>
  <style type="text/css">*{stroke-linecap:butt;stroke-linejoin:round;}</style>
 </defs>
 <g id="figure_1">
  <g id="patch_1">
   <path d="M 0 153 
L 648 153 
L 648 0 
L 0 0 
z
" style="fill:#ffffff;"/>
  </g>
  <g id="axes_1">
   <g id="patch_2">
    <path d="M 81 133.875 
L 583.2 133.875 
L 583.2 18.36 
L 81 18.36 
z
" style="fill:#ffffff;"/>
   </g>
   <g id="matplotlib.axis_1">
    <g id="xtick_1">
     <g id="line2d_1">
      <defs>
       <path d="M 0 0 
L 0 -4 
" id="maade750ff8" style="stroke:#000000;stroke-width:2;"/>
      </defs>
      <g>
       <use style="stroke:#000000;stroke-width:2;" x="120.900822" xlink:href="#maade750ff8" y="133.875"/>
      </g>
     </g>
    </g>
    <g id="xtick_2">
     <g id="line2d_2">
      <g>
       <use style="stroke:#000000;stroke-width:2;" x="163.553425" xlink:href="#maade750ff8" y="133.875"/>
      </g>
     </g>
    </g>
    <g id="xtick_3">
     <g id="line2d_3">
      <g>
       <use style="stroke:#000000;stroke-width:2;" x="204.830137" xlink:href="#maade750ff8" y="133.875"/>
      </g>
     </g>
    </g>
    <g id="xtick_4">
     <g id="line2d_4">
      <g>
       <use style="stroke:#000000;stroke-width:2;" x="247.48274" xlink:href="#maade750ff8" y="133.875"/>
      </g>
     </g>
    </g>
    <g id="xtick_5">
     <g id="line2d_5">
      <g>
       <use style="stroke:#000000;stroke-width:2;" x="290.135342" xlink:href="#maade750ff8" y="133.875"/>
      </g>
     </g>
    </g>
    <g id="xtick_6">
     <g id="line2d_6">
      <g>
       <use style="stroke:#000000;stroke-width:2;" x="328.660274" xlink:href="#maade750ff8" y="133.875"/>
      </g>
     </g>
    </g>
    <g id="xtick_7">
     <g id="line2d_7">
      <g>
       <use style="stroke:#000000;stroke-width:2;" x="371.312877" xlink:href="#maade750ff8" y="133.875"/>
      </g>
     </g>
    </g>
    <g id="xtick_8">
     <g id="line2d_8">
      <g>
       <use style="stroke:#000000;stroke-width:2;" x="412.589589" xlink:href="#maade750ff8" y="133.875"/>
      </g>
     </g>
    </g>
    <g id="xtick_9">
     <g id="line2d_9">
      <g>
       <use style="stroke:#000000;stroke-width:2;" x="455.242192" xlink:href="#maade750ff8" y="133.875"/>
      </g>
     </g>
    </g>
    <g id="xtick_10">
     <g id="line2d_10">
      <g>
       <use style="stroke:#000000;stroke-width:2;" x="496.518904" xlink:href="#maade750ff8" y="133.875"/>
      </g>
     </g>
    </g>
    <g id="xtick_11">
     <g id="line2d_11">
      <g>
       <use style="stroke:#000000;stroke-width:2;" x="539.171507" xlink:href="#maade750ff8" y="133.875"/>
      </g>
     </g>
    </g>
    <g id="xtick_12">
     <g id="line2d_12">
      <g>
       <use style="stroke:#000000;stroke-width:2;" x="581.82411" xlink:href="#maade750ff8" y="133.875"/>
      </g>
     </g>
    </g>
    <g id="xtick_13">
     <g id="line2d_13">
      <defs>
       <path d="M 0 0 
L 0 -1 
" id="mdff0f38dc5" style="stroke:#000000;"/>
      </defs>
      <g>
       <use style="stroke:#000000;" x="98.886575" xlink:href="#mdff0f38dc5" y="133.875"/>
      </g>
     </g>
     <g id="text_1">
      <text style="font-family:Arial;font-size:10px;font-stretch:normal;font-style:normal;font-weight:normal;text-anchor:middle;" transform="rotate(-0, 98.886575, 146.154687)" x="98.886575" y="146.154687">Sep</text>
     </g>
    </g>
    <g id="xtick_14">
     <g id="line2d_14">
      <g>
       <use style="stroke:#000000;" x="140.163288" xlink:href="#mdff0f38dc5" y="133.875"/>
      </g>
     </g>
     <g id="text_2">
      <text style="font-family:Arial;font-size:10px;font-stretch:normal;font-style:normal;font-weight:normal;text-anchor:middle;" transform="rotate(-0, 140.163288, 146.032813)" x="140.163288" y="146.032813">Oct</text>
     </g>
    </g>
    <g id="xtick_15">
     <g id="line2d_15">
      <g>
       <use style="stroke:#000000;" x="182.81589" xlink:href="#mdff0f38dc5" y="133.875"/>
      </g>
     </g>
     <g id="text_3">
      <text style="font-family:Arial;font-size:10px;font-stretch:normal;font-style:normal;font-weight:normal;text-anchor:middle;" transform="rotate(-0, 182.81589, 146.032813)" x="182.81589" y="146.032813">Nov</text>
     </g>
    </g>
    <g id="xtick_16">
     <g id="line2d_16">
      <g>
       <use style="stroke:#000000;" x="224.092603" xlink:href="#mdff0f38dc5" y="133.875"/>
      </g>
     </g>
     <g id="text_4">
      <text style="font-family:Arial;font-size:10px;font-stretch:normal;font-style:normal;font-weight:normal;text-anchor:middle;" transform="rotate(-0, 224.092603, 146.032813)" x="224.092603" y="146.032813">Dec</text>
     </g>
    </g>
    <g id="xtick_17">
     <g id="line2d_17">
      <g>
       <use style="stroke:#000000;" x="266.745205" xlink:href="#mdff0f38dc5" y="133.875"/>
      </g>
     </g>
     <g id="text_5">
      <text style="font-family:Arial;font-size:10px;font-stretch:normal;font-style:normal;font-weight:normal;text-anchor:middle;" transform="rotate(-0, 266.745205, 146.032813)" x="266.745205" y="146.032813">Jan</text>
     </g>
    </g>
    <g id="xtick_18">
     <g id="line2d_18">
      <g>
       <use style="stroke:#000000;" x="309.397808" xlink:href="#mdff0f38dc5" y="133.875"/>
      </g>
     </g>
     <g id="text_6">
      <text style="font-family:Arial;font-size:10px;font-stretch:normal;font-style:normal;font-weight:normal;text-anchor:middle;" transform="rotate(-0, 309.397808, 146.032813)" x="309.397808" y="146.032813">Feb</text>
     </g>
    </g>
    <g id="xtick_19">
     <g id="line2d_19">
      <g>
       <use style="stroke:#000000;" x="347.92274" xlink:href="#mdff0f38dc5" y="133.875"/>
      </g>
     </g>
     <g id="text_7">
      <text style="font-family:Arial;font-size:10px;font-stretch:normal;font-style:normal;font-weight:normal;text-anchor:middle;" transform="rotate(-0, 347.92274, 146.032813)" x="347.92274" y="146.032813">Mar</text>
     </g>
    </g>
    <g id="xtick_20">
     <g id="line2d_20">
      <g>
       <use style="stroke:#000000;" x="390.575342" xlink:href="#mdff0f38dc5" y="133.875"/>
      </g>
     </g>
     <g id="text_8">
      <text style="font-family:Arial;font-size:10px;font-stretch:normal;font-style:normal;font-weight:normal;text-anchor:middle;" transform="rotate(-0, 390.575342, 146.032813)" x="390.575342" y="146.032813">Apr</text>
     </g>
    </g>
    <g id="xtick_21">
     <g id="line2d_21">
      <g>
       <use style="stroke:#000000;" x="431.852055" xlink:href="#mdff0f38dc5" y="133.875"/>
      </g>
     </g>
     <g id="text_9">
      <text style="font-family:Arial;font-size:10px;font-stretch:normal;font-style:normal;font-weight:normal;text-anchor:middle;" transform="rotate(-0, 431.852055, 146.032813)" x="431.852055" y="146.032813">May</text>
     </g>
    </g>
    <g id="xtick_22">
     <g id="line2d_22">
      <g>
       <use style="stroke:#000000;" x="474.504658" xlink:href="#mdff0f38dc5" y="133.875"/>
      </g>
     </g>
     <g id="text_10">
      <text style="font-family:Arial;font-size:10px;font-stretch:normal;font-style:normal;font-weight:normal;text-anchor:middle;" transform="rotate(-0, 474.504658, 146.032813)" x="474.504658" y="146.032813">Jun</text>
     </g>
    </g>
    <g id="xtick_23">
     <g id="line2d_23">
      <g>
       <use style="stroke:#000000;" x="515.78137" xlink:href="#mdff0f38dc5" y="133.875"/>
      </g>
     </g>
     <g id="text_11">
      <text style="font-family:Arial;font-size:10px;font-stretch:normal;font-style:normal;font-weight:normal;text-anchor:middle;" transform="rotate(-0, 515.78137, 146.032813)" x="515.78137" y="146.032813">Jul</text>
     </g>
    </g>
    <g id="xtick_24">
     <g id="line2d_24">
      <g>
       <use style="stroke:#000000;" x="558.433973" xlink:href="#mdff0f38dc5" y="133.875"/>
      </g>
     </g>
     <g id="text_12">
      <text style="font-family:Arial;font-size:10px;font-stretch:normal;font-style:normal;font-weight:normal;text-anchor:middle;" transform="rotate(-0, 558.433973, 146.032813)" x="558.433973" y="146.032813">Aug</text>
     </g>
    </g>
   </g>
   <g id="matplotlib.axis_2">
    <g id="ytick_1">
     <g id="line2d_25">
      <defs>
       <path d="M 0 0 
L 4 0 
" id="m7b00878468" style="stroke:#000000;stroke-width:2;"/>
      </defs>
      <g>
       <use style="stroke:#000000;stroke-width:2;" x="81" xlink:href="#m7b00878468" y="128.624318"/>
      </g>
     </g>
     <g id="text_13">
      <text style="font-family:Arial;font-size:10px;font-stretch:normal;font-style:normal;font-weight:normal;text-anchor:end;" transform="rotate(-0, 77.5, 132.203224)" x="77.5" y="132.203224">0.00</text>
     </g>
    </g>
    <g id="ytick_2">
     <g id="line2d_26">
      <g>
       <use style="stroke:#000000;stroke-width:2;" x="81" xlink:href="#m7b00878468" y="101.697542"/>
      </g>
     </g>
     <g id="text_14">
      <text style="font-family:Arial;font-size:10px;font-stretch:normal;font-style:normal;font-weight:normal;text-anchor:end;" transform="rotate(-0, 77.5, 105.276448)" x="77.5" y="105.276448">0.25</text>
     </g>
    </g>
    <g id="ytick_3">
     <g id="line2d_27">
      <g>
       <use style="stroke:#000000;stroke-width:2;" x="81" xlink:href="#m7b00878468" y="74.770766"/>
      </g>
     </g>
     <g id="text_15">
      <text style="font-family:Arial;font-size:10px;font-stretch:normal;font-style:normal;font-weight:normal;text-anchor:end;" transform="rotate(-0, 77.5, 78.349672)" x="77.5" y="78.349672">0.50</text>
     </g>
    </g>
    <g id="ytick_4">
     <g id="line2d_28">
      <g>
       <use style="stroke:#000000;stroke-width:2;" x="81" xlink:href="#m7b00878468" y="47.843989"/>
      </g>
     </g>
     <g id="text_16">
      <text style="font-family:Arial;font-size:10px;font-stretch:normal;font-style:normal;font-weight:normal;text-anchor:end;" transform="rotate(-0, 77.5, 51.422895)" x="77.5" y="51.422895">0.75</text>
     </g>
    </g>
    <g id="ytick_5">
     <g id="line2d_29">
      <g>
       <use style="stroke:#000000;stroke-width:2;" x="81" xlink:href="#m7b00878468" y="20.917213"/>
      </g>
     </g>
     <g id="text_17">
      <text style="font-family:Arial;font-size:10px;font-stretch:normal;font-style:normal;font-weight:normal;text-anchor:end;" transform="rotate(-0, 77.5, 24.496119)" x="77.5" y="24.496119">1.00</text>
     </g>
    </g>
    <g id="text_18">
     <!-- Sea Ice Extent (10$^{6}$ km$^{2}$) -->
     <g transform="translate(51.839062 131.8175)rotate(-90)">
      <text>
       <tspan style="font-family:Arial;font-size:10px;font-style:regular;font-weight:regular;" x="0 6.669922 12.231445 17.792969 20.571289 23.349609 28.349609 33.911133 36.689453 43.359375 48.359375 51.137695 56.699219 62.260742 65.039062 67.817383 71.147461 76.708984 87.093262 89.871582 94.871582 108.024414" y="-0.9765625">Sea Ice Extent (10 km)</tspan>
       <tspan style="font-family:DejaVu Sans;font-size:7px;font-style:book;font-weight:book;" x="82.366211 103.297363" y="-4.8046875">62</tspan>
      </text>
     </g>
    </g>
   </g>
   <g id="line2d_30">
    <path clip-path="url(#p6109fefffe)" d="M -1 128.577545 
L 1.198356 128.624318 
L 159.425753 128.624318 
L 162.177534 128.275643 
L 164.929315 127.759901 
L 166.305205 127.140145 
L 167.681096 126.921216 
L 171.808767 125.75932 
L 173.184658 125.719472 
L 174.560548 125.359217 
L 178.688219 124.853 
L 181.44 123.708944 
L 182.81589 122.510421 
L 186.943562 117.108125 
L 188.319452 114.998477 
L 189.695342 113.28271 
L 191.071233 111.938956 
L 192.447123 110.404596 
L 195.198904 106.622455 
L 200.702466 99.522607 
L 204.830137 93.478221 
L 210.333699 86.63486 
L 211.709589 86.399046 
L 213.085479 87.392703 
L 214.46137 89.47143 
L 215.83726 91.942811 
L 217.213151 95.01547 
L 218.589041 97.356174 
L 219.964932 98.116882 
L 221.340822 97.887953 
L 222.716712 97.047689 
L 224.092603 94.95565 
L 228.220274 86.071407 
L 229.596164 83.324092 
L 230.972055 81.1411 
L 232.347945 79.899585 
L 233.723836 79.747212 
L 235.099726 80.156846 
L 237.851507 83.101252 
L 239.227397 84.195631 
L 240.603288 84.136795 
L 241.979178 83.547887 
L 243.355068 82.415371 
L 244.730959 81.501836 
L 246.106849 80.829516 
L 247.48274 80.859887 
L 247.48274 80.859887 
" style="fill:none;stroke:#808080;stroke-linecap:round;stroke-width:0.5;"/>
   </g>
   <g id="line2d_31">
    <path clip-path="url(#p6109fefffe)" d="M 247.48274 68.712107 
L 248.85863 67.095348 
L 251.610411 64.2881 
L 254.362192 60.672365 
L 257.113973 56.526313 
L 258.489863 54.456362 
L 259.865753 52.976247 
L 261.241644 51.718397 
L 262.617534 50.625636 
L 263.993425 49.93882 
L 269.496986 48.758817 
L 270.872877 48.501866 
L 272.248767 48.535373 
L 273.624658 49.18724 
L 275.000548 50.244158 
L 276.376438 51.951914 
L 277.752329 53.991703 
L 279.128219 55.458137 
L 280.50411 56.10557 
L 281.88 55.980657 
L 283.25589 55.034007 
L 284.631781 53.623731 
L 286.007671 51.611364 
L 288.759452 47.230509 
L 291.511233 43.313426 
L 292.887123 42.648215 
L 294.263014 43.139518 
L 295.638904 43.92816 
L 297.014795 45.014409 
L 298.390685 45.673413 
L 299.766575 45.578176 
L 301.142466 44.92498 
L 302.518356 44.120073 
L 303.894247 43.467087 
L 305.270137 43.664637 
L 306.646027 44.487914 
L 309.397808 45.475782 
L 310.773699 44.964892 
L 312.149589 43.871922 
L 313.525479 43.607817 
L 314.90137 44.330256 
L 316.27726 45.362973 
L 317.653151 47.236286 
L 319.029041 50.42291 
L 321.780822 55.6925 
L 323.156712 57.748987 
L 324.532603 59.341693 
L 325.908493 60.361719 
L 327.284384 60.837743 
L 330.036164 61.028669 
L 331.412055 61.664876 
L 332.787945 62.901826 
L 334.163836 63.79928 
L 338.291507 65.199966 
L 341.043288 66.905035 
L 342.419178 68.421686 
L 343.795068 69.356072 
L 345.170959 69.831583 
L 346.546849 69.725909 
L 347.92274 68.417425 
L 349.29863 65.831615 
L 350.674521 62.42368 
L 352.050411 58.290756 
L 353.426301 53.645972 
L 354.802192 49.664239 
L 356.178082 46.118877 
L 357.553973 43.575237 
L 360.305753 39.820857 
L 361.681644 38.206859 
L 364.433425 35.983448 
L 368.561096 33.648725 
L 369.936986 33.132378 
L 371.312877 33.038892 
L 372.688767 33.057275 
L 374.064658 33.620794 
L 375.440548 34.029747 
L 376.816438 34.284094 
L 378.192329 34.929518 
L 379.568219 35.97329 
L 380.94411 36.862039 
L 383.69589 39.885246 
L 385.071781 40.317006 
L 386.447671 39.596443 
L 387.823562 38.355054 
L 389.199452 36.761743 
L 390.575342 34.990432 
L 391.951233 33.69895 
L 393.327123 33.007176 
L 396.078904 32.072441 
L 397.454795 31.647705 
L 398.830685 31.451773 
L 400.206575 32.188569 
L 401.582466 34.261573 
L 402.958356 36.819975 
L 404.334247 40.034947 
L 407.086027 48.188691 
L 409.837808 54.060002 
L 411.213699 57.595405 
L 412.589589 60.421921 
L 416.71726 65.83152 
L 418.093151 66.281623 
L 419.469041 66.451303 
L 420.844932 66.771739 
L 422.220822 66.957891 
L 423.596712 67.365396 
L 426.348493 69.038408 
L 427.724384 70.49412 
L 430.476164 73.9169 
L 433.227945 76.866175 
L 434.603836 78.049063 
L 437.355616 82.091533 
L 441.483288 88.922099 
L 442.859178 90.359513 
L 446.986849 95.677019 
L 448.36274 97.48875 
L 449.73863 98.949045 
L 451.114521 99.904404 
L 455.242192 102.263728 
L 457.993973 105.323551 
L 459.369863 107.077829 
L 462.121644 112.441776 
L 463.497534 114.558805 
L 466.249315 119.814322 
L 470.376986 123.317008 
L 471.752877 124.029852 
L 474.504658 124.702162 
L 475.880548 125.252667 
L 477.256438 125.511483 
L 480.008219 125.809766 
L 481.38411 126.158954 
L 486.887671 126.585039 
L 492.391233 126.599098 
L 495.143014 127.144195 
L 499.270685 128.376985 
L 502.022466 128.624318 
L 649 128.624318 
L 649 128.624318 
" style="fill:none;stroke:#808080;stroke-linecap:round;stroke-width:0.5;"/>
   </g>
   <g id="line2d_32">
    <path clip-path="url(#p6109fefffe)" d="M -1 128.088468 
L 1.198356 128.429894 
L 5.326027 128.611264 
L 155.298082 128.624318 
L 156.673973 128.378522 
L 159.425753 127.704469 
L 162.177534 127.225897 
L 163.553425 127.225999 
L 164.929315 127.369313 
L 170.432877 126.920226 
L 174.560548 126.466325 
L 175.936438 126.24543 
L 178.688219 125.314428 
L 181.44 124.850034 
L 182.81589 124.089589 
L 186.943562 122.591409 
L 188.319452 122.376603 
L 189.695342 122.716711 
L 191.071233 123.636661 
L 193.823014 125.059972 
L 195.198904 125.494145 
L 196.574795 125.44784 
L 200.702466 123.023081 
L 202.078356 122.021438 
L 206.206027 119.562938 
L 207.581918 118.7975 
L 208.957808 117.817543 
L 210.333699 116.661349 
L 211.709589 114.976258 
L 213.085479 113.932606 
L 214.46137 113.074975 
L 217.213151 112.079106 
L 218.589041 112.24665 
L 219.964932 111.815192 
L 221.340822 110.89736 
L 222.716712 110.129638 
L 224.092603 109.137342 
L 226.844384 106.176504 
L 228.220274 105.207604 
L 229.596164 104.645763 
L 230.972055 104.788075 
L 232.347945 105.113375 
L 233.723836 104.99779 
L 235.099726 104.250252 
L 236.475616 103.317378 
L 237.851507 101.633551 
L 241.979178 93.95349 
L 244.730959 87.323431 
L 247.48274 81.69781 
L 247.48274 81.69781 
" style="fill:none;stroke:#808080;stroke-linecap:round;stroke-width:0.5;"/>
   </g>
   <g id="line2d_33">
    <path clip-path="url(#p6109fefffe)" d="M 247.48274 81.337098 
L 248.85863 81.004159 
L 250.234521 80.049854 
L 251.610411 78.651656 
L 252.986301 78.111089 
L 254.362192 76.833386 
L 255.738082 75.888655 
L 257.113973 75.205208 
L 259.865753 73.449086 
L 266.745205 66.948916 
L 268.121096 66.070471 
L 269.496986 64.94326 
L 270.872877 63.655159 
L 275.000548 58.921947 
L 276.376438 58.224182 
L 277.752329 58.533721 
L 280.50411 60.393613 
L 281.88 61.004088 
L 283.25589 60.782038 
L 284.631781 59.562229 
L 286.007671 57.840383 
L 287.383562 56.341904 
L 288.759452 55.32265 
L 290.135342 54.678913 
L 291.511233 54.439199 
L 292.887123 54.326261 
L 294.263014 53.690761 
L 295.638904 52.667129 
L 297.014795 51.467321 
L 299.766575 48.720403 
L 301.142466 48.04196 
L 302.518356 47.625177 
L 303.894247 47.583983 
L 306.646027 48.027481 
L 308.021918 47.808517 
L 309.397808 47.397088 
L 310.773699 46.745131 
L 313.525479 44.910703 
L 314.90137 44.324514 
L 316.27726 44.057453 
L 317.653151 43.972993 
L 319.029041 44.180182 
L 321.780822 44.322654 
L 323.156712 43.83023 
L 324.532603 43.081778 
L 327.284384 40.875877 
L 330.036164 40.032259 
L 335.539726 37.817579 
L 336.915616 36.947506 
L 339.667397 35.487849 
L 341.043288 34.639799 
L 342.419178 33.985532 
L 343.795068 33.151301 
L 346.546849 31.213965 
L 347.92274 30.469798 
L 349.29863 30.280042 
L 350.674521 30.965426 
L 352.050411 32.094106 
L 353.426301 34.077516 
L 354.802192 36.49085 
L 356.178082 38.596514 
L 357.553973 40.269981 
L 358.929863 41.296353 
L 360.305753 41.430974 
L 361.681644 41.06089 
L 363.057534 40.499268 
L 365.809315 38.355054 
L 367.185205 37.111059 
L 369.936986 34.353758 
L 371.312877 33.653519 
L 372.688767 33.37316 
L 374.064658 33.41164 
L 376.816438 34.191317 
L 378.192329 34.096065 
L 382.32 33.098922 
L 383.69589 33.317277 
L 385.071781 35.022226 
L 386.447671 37.666959 
L 387.823562 40.932309 
L 389.199452 44.596818 
L 390.575342 47.787957 
L 391.951233 49.665008 
L 393.327123 51.285468 
L 394.703014 52.452317 
L 396.078904 52.935031 
L 398.830685 53.240953 
L 400.206575 52.891685 
L 401.582466 52.310901 
L 402.958356 51.940699 
L 404.334247 51.754507 
L 408.461918 51.912904 
L 409.837808 51.589908 
L 411.213699 51.120031 
L 413.965479 49.531008 
L 415.34137 49.233545 
L 416.71726 50.175845 
L 418.093151 51.953652 
L 419.469041 54.309525 
L 422.220822 59.342738 
L 423.596712 61.307968 
L 424.972603 62.578145 
L 426.348493 63.404776 
L 427.724384 64.061905 
L 429.100274 65.035512 
L 430.476164 65.851507 
L 431.852055 67.14696 
L 433.227945 68.885201 
L 435.979726 73.509874 
L 438.731507 78.869706 
L 440.107397 81.683491 
L 441.483288 83.9337 
L 444.235068 87.775226 
L 445.610959 89.228707 
L 446.986849 90.354845 
L 448.36274 91.705899 
L 453.866301 100.141131 
L 455.242192 102.921951 
L 459.369863 109.666536 
L 460.745753 111.643902 
L 462.121644 113.21857 
L 464.873425 115.52269 
L 467.625205 118.520551 
L 469.001096 119.675018 
L 471.752877 122.356373 
L 474.504658 123.45517 
L 475.880548 123.831128 
L 478.632329 124.157383 
L 481.38411 125.401217 
L 484.13589 126.52183 
L 485.511781 127.070163 
L 491.015342 127.639513 
L 492.391233 127.70417 
L 496.518904 127.600637 
L 500.646575 127.989449 
L 503.398356 128.429894 
L 507.526027 128.611264 
L 649 128.624318 
L 649 128.624318 
" style="fill:none;stroke:#808080;stroke-linecap:round;stroke-width:0.5;"/>
   </g>
   <g id="line2d_34">
    <path clip-path="url(#p6109fefffe)" d="M -1 128.624318 
L 171.808767 128.624318 
L 173.184658 128.480911 
L 175.936438 126.854438 
L 180.06411 124.941931 
L 181.44 124.449907 
L 185.567671 121.13155 
L 186.943562 119.761804 
L 188.319452 118.975164 
L 189.695342 118.389238 
L 191.071233 117.438836 
L 192.447123 115.913072 
L 193.823014 114.198602 
L 196.574795 109.752281 
L 199.326575 105.781643 
L 202.078356 102.189994 
L 203.454247 100.599553 
L 204.830137 98.77869 
L 206.206027 97.35403 
L 207.581918 96.304961 
L 208.957808 95.824772 
L 210.333699 95.185095 
L 214.46137 96.115566 
L 215.83726 96.585307 
L 217.213151 97.58074 
L 218.589041 98.39673 
L 219.964932 99.602478 
L 221.340822 100.502457 
L 222.716712 100.927938 
L 224.092603 100.320405 
L 225.468493 98.573933 
L 228.220274 92.943015 
L 229.596164 90.227083 
L 230.972055 88.357074 
L 232.347945 87.297936 
L 233.723836 86.517174 
L 235.099726 85.974644 
L 236.475616 85.108938 
L 237.851507 83.657905 
L 240.603288 79.5733 
L 244.730959 72.648436 
L 246.106849 70.62121 
L 247.48274 68.857775 
L 247.48274 68.857775 
" style="fill:none;stroke:#808080;stroke-linecap:round;stroke-width:0.5;"/>
   </g>
   <g id="line2d_35">
    <path clip-path="url(#p6109fefffe)" d="M 247.48274 78.072161 
L 248.85863 76.598471 
L 251.610411 75.871794 
L 254.362192 74.205999 
L 255.738082 73.580836 
L 257.113973 73.521591 
L 258.489863 74.871953 
L 261.241644 79.145503 
L 262.617534 80.123978 
L 263.993425 79.508877 
L 265.369315 77.588601 
L 269.496986 69.738573 
L 270.872877 67.852626 
L 273.624658 65.90284 
L 276.376438 64.142634 
L 277.752329 62.930867 
L 281.88 57.567166 
L 283.25589 56.467705 
L 284.631781 56.622801 
L 286.007671 58.083958 
L 288.759452 61.818321 
L 290.135342 63.236044 
L 291.511233 63.715212 
L 294.263014 62.551817 
L 297.014795 62.40481 
L 298.390685 62.83591 
L 299.766575 63.589209 
L 301.142466 63.562982 
L 302.518356 62.515871 
L 305.270137 59.832758 
L 308.021918 55.865301 
L 309.397808 55.32408 
L 310.773699 55.691057 
L 312.149589 56.387603 
L 313.525479 58.104197 
L 316.27726 62.28342 
L 317.653151 64.107684 
L 319.029041 65.58228 
L 320.404932 67.574977 
L 323.156712 72.395857 
L 324.532603 72.868486 
L 325.908493 72.332659 
L 327.284384 70.523365 
L 330.036164 68.18907 
L 331.412055 65.203394 
L 332.787945 63.899339 
L 336.915616 61.445439 
L 338.291507 60.489208 
L 339.667397 59.291491 
L 341.043288 58.250974 
L 342.419178 57.481055 
L 343.795068 57.012981 
L 347.92274 56.11265 
L 349.29863 55.443006 
L 352.050411 53.72107 
L 353.426301 53.619885 
L 354.802192 54.711299 
L 356.178082 56.775142 
L 357.553973 59.26588 
L 358.929863 61.997572 
L 360.305753 64.081167 
L 361.681644 65.094221 
L 363.057534 65.335911 
L 364.433425 65.204974 
L 367.185205 64.430062 
L 368.561096 64.092726 
L 371.312877 63.08947 
L 372.688767 62.780907 
L 375.440548 62.375921 
L 378.192329 61.728708 
L 379.568219 61.285829 
L 380.94411 60.703481 
L 382.32 60.883008 
L 383.69589 61.254968 
L 385.071781 61.507038 
L 386.447671 61.356791 
L 387.823562 60.40541 
L 390.575342 56.92306 
L 391.951233 55.39708 
L 393.327123 54.17343 
L 394.703014 53.741695 
L 396.078904 53.805097 
L 397.454795 54.00823 
L 398.830685 54.542678 
L 400.206575 55.41252 
L 405.710137 60.297431 
L 408.461918 63.071292 
L 411.213699 66.674414 
L 412.589589 68.212858 
L 413.965479 69.375089 
L 415.34137 70.72062 
L 416.71726 71.557914 
L 418.093151 72.246822 
L 422.220822 76.06448 
L 423.596712 77.627314 
L 426.348493 81.088375 
L 427.724384 83.808327 
L 430.476164 90.527878 
L 431.852055 94.24553 
L 433.227945 97.497395 
L 434.603836 100.060939 
L 435.979726 101.767106 
L 437.355616 103.095768 
L 438.731507 104.251699 
L 442.859178 108.441384 
L 444.235068 109.672114 
L 446.986849 112.645612 
L 449.73863 116.032089 
L 451.114521 118.349044 
L 452.490411 120.347104 
L 453.866301 121.98778 
L 455.242192 123.306853 
L 456.618082 124.371795 
L 459.369863 125.452114 
L 460.745753 126.030727 
L 463.497534 126.776816 
L 464.873425 127.006813 
L 467.625205 126.904271 
L 470.376986 126.88011 
L 475.880548 126.958932 
L 478.632329 126.857278 
L 480.008219 126.96066 
L 485.511781 127.950393 
L 486.887671 128.117856 
L 489.639452 128.142885 
L 492.391233 128.376542 
L 500.646575 128.624318 
L 649 128.624318 
L 649 128.624318 
" style="fill:none;stroke:#808080;stroke-linecap:round;stroke-width:0.5;"/>
   </g>
   <g id="line2d_36">
    <path clip-path="url(#p6109fefffe)" d="M -1 127.682944 
L 1.198356 128.260932 
L 6.701918 128.611264 
L 16.333151 128.624318 
L 142.915068 128.559114 
L 148.41863 127.108583 
L 149.794521 126.772435 
L 156.673973 127.136081 
L 159.425753 127.046732 
L 160.801644 126.845384 
L 163.553425 125.474118 
L 167.681096 122.074656 
L 170.432877 120.462665 
L 173.184658 119.640094 
L 174.560548 119.634291 
L 175.936438 119.909411 
L 177.312329 120.323342 
L 178.688219 120.198163 
L 180.06411 119.854716 
L 181.44 119.368172 
L 182.81589 118.477389 
L 184.191781 117.107632 
L 185.567671 115.918148 
L 186.943562 114.564824 
L 188.319452 112.866216 
L 191.071233 109.019034 
L 192.447123 107.450075 
L 196.574795 103.414096 
L 199.326575 101.073826 
L 202.078356 101.522931 
L 203.454247 101.72932 
L 204.830137 102.074142 
L 206.206027 102.293825 
L 207.581918 101.151914 
L 208.957808 100.161864 
L 210.333699 99.006679 
L 211.709589 97.577097 
L 213.085479 95.320159 
L 215.83726 90.158662 
L 217.213151 88.192758 
L 218.589041 87.037179 
L 219.964932 86.775912 
L 221.340822 86.834233 
L 222.716712 87.139801 
L 224.092603 86.68382 
L 225.468493 85.321364 
L 228.220274 82.187883 
L 229.596164 80.159958 
L 230.972055 78.334156 
L 232.347945 77.277489 
L 236.475616 78.643955 
L 237.851507 78.483609 
L 239.227397 77.660907 
L 240.603288 75.174968 
L 241.979178 72.386033 
L 243.355068 69.99714 
L 244.730959 68.367285 
L 246.106849 67.045138 
L 247.48274 65.880403 
L 247.48274 65.880403 
" style="fill:none;stroke:#808080;stroke-linecap:round;stroke-width:0.5;"/>
   </g>
   <g id="line2d_37">
    <path clip-path="url(#p6109fefffe)" d="M 247.48274 66.792762 
L 248.85863 66.027673 
L 250.234521 64.940652 
L 251.610411 63.637976 
L 252.986301 62.748257 
L 254.362192 61.142289 
L 255.738082 59.741794 
L 257.113973 58.637348 
L 259.865753 57.321975 
L 262.617534 55.530356 
L 263.993425 54.99587 
L 265.369315 54.999761 
L 266.745205 55.793307 
L 269.496986 58.106856 
L 270.872877 58.529914 
L 272.248767 58.086938 
L 273.624658 56.485698 
L 275.000548 54.538251 
L 277.752329 49.701149 
L 279.128219 47.458131 
L 281.88 43.917226 
L 283.25589 42.763366 
L 286.007671 41.400304 
L 287.383562 40.688434 
L 290.135342 39.741361 
L 291.511233 38.773105 
L 292.887123 38.015222 
L 294.263014 37.618426 
L 295.638904 37.507719 
L 297.014795 37.686046 
L 298.390685 38.360471 
L 299.766575 38.818203 
L 302.518356 39.323192 
L 303.894247 40.037816 
L 306.646027 40.989446 
L 308.021918 41.519237 
L 309.397808 41.76861 
L 312.149589 41.046539 
L 313.525479 41.075766 
L 314.90137 41.445605 
L 319.029041 42.932975 
L 320.404932 42.699202 
L 323.156712 41.246347 
L 324.532603 40.937571 
L 325.908493 40.23151 
L 327.284384 39.309955 
L 328.660274 38.63854 
L 330.036164 37.577402 
L 331.412055 35.544702 
L 332.787945 33.96019 
L 334.163836 33.078161 
L 335.539726 32.977425 
L 336.915616 33.392085 
L 339.667397 35.373287 
L 341.043288 36.103252 
L 342.419178 35.645442 
L 345.170959 33.39254 
L 356.178082 24.100473 
L 357.553973 23.610682 
L 358.929863 23.63127 
L 360.305753 24.660978 
L 361.681644 26.795767 
L 364.433425 31.819623 
L 365.809315 33.582477 
L 367.185205 34.268973 
L 368.561096 33.881298 
L 369.936986 32.801963 
L 374.064658 28.279105 
L 375.440548 27.523964 
L 376.816438 26.983713 
L 378.192329 26.611675 
L 379.568219 26.697046 
L 382.32 28.357698 
L 383.69589 29.855165 
L 385.071781 31.852708 
L 386.447671 33.584995 
L 387.823562 34.253422 
L 389.199452 34.19357 
L 390.575342 33.454981 
L 394.703014 29.195595 
L 397.454795 27.140063 
L 398.830685 26.468851 
L 400.206575 26.577353 
L 401.582466 27.672192 
L 402.958356 29.175457 
L 407.086027 34.614532 
L 409.837808 37.85285 
L 411.213699 39.763669 
L 412.589589 42.103275 
L 413.965479 44.704805 
L 415.34137 46.970789 
L 416.71726 48.960939 
L 418.093151 50.494294 
L 419.469041 51.505308 
L 420.844932 51.757782 
L 422.220822 51.763628 
L 423.596712 51.429978 
L 424.972603 51.426803 
L 429.100274 52.334835 
L 430.476164 53.04902 
L 431.852055 54.091645 
L 433.227945 55.477023 
L 435.979726 60.065988 
L 437.355616 62.169222 
L 438.731507 63.75561 
L 440.107397 64.884904 
L 441.483288 65.483391 
L 442.859178 66.270995 
L 444.235068 67.418255 
L 446.986849 70.017385 
L 449.73863 73.519815 
L 451.114521 75.46254 
L 453.866301 80.397288 
L 455.242192 82.165799 
L 456.618082 83.729384 
L 457.993973 84.966705 
L 459.369863 85.91323 
L 460.745753 87.134137 
L 463.497534 90.835793 
L 466.249315 95.339544 
L 473.128767 110.187092 
L 475.880548 114.22424 
L 477.256438 116.478315 
L 481.38411 121.826298 
L 482.76 122.748995 
L 489.639452 125.66763 
L 491.015342 126.119496 
L 493.767123 126.508464 
L 495.143014 126.470198 
L 496.518904 126.625673 
L 499.270685 127.235746 
L 500.646575 127.521232 
L 503.398356 128.260932 
L 508.901918 128.611264 
L 518.533151 128.624318 
L 645.115068 128.559114 
L 649 127.517976 
L 649 127.517976 
" style="fill:none;stroke:#808080;stroke-linecap:round;stroke-width:0.5;"/>
   </g>
   <g id="line2d_38">
    <path clip-path="url(#p6109fefffe)" d="M -1 128.424666 
L 1.198356 128.624318 
L 153.922192 128.533331 
L 156.673973 128.42929 
L 160.801644 128.285537 
L 162.177534 128.324374 
L 166.305205 127.741339 
L 169.056986 127.081088 
L 171.808767 125.766194 
L 173.184658 125.348252 
L 174.560548 125.106944 
L 177.312329 125.157481 
L 178.688219 125.232077 
L 181.44 125.918638 
L 182.81589 125.750419 
L 184.191781 125.899485 
L 185.567671 125.756954 
L 188.319452 124.206796 
L 189.695342 123.401531 
L 196.574795 117.771639 
L 199.326575 116.724933 
L 204.830137 114.520779 
L 206.206027 114.726493 
L 207.581918 115.396089 
L 208.957808 116.634014 
L 211.709589 120.162949 
L 213.085479 121.415198 
L 214.46137 122.988621 
L 215.83726 123.468112 
L 217.213151 123.506912 
L 218.589041 122.851647 
L 219.964932 121.678241 
L 222.716712 116.271149 
L 225.468493 110.022532 
L 226.844384 107.405902 
L 228.220274 105.828083 
L 229.596164 104.921502 
L 230.972055 104.151576 
L 232.347945 103.547399 
L 233.723836 102.342704 
L 237.851507 97.808384 
L 239.227397 96.476894 
L 241.979178 94.172749 
L 243.355068 92.451581 
L 246.106849 88.426378 
L 247.48274 87.065832 
L 247.48274 87.065832 
" style="fill:none;stroke:#808080;stroke-linecap:round;stroke-width:0.5;"/>
   </g>
   <g id="line2d_39">
    <path clip-path="url(#p6109fefffe)" d="M 247.48274 64.991194 
L 250.234521 63.537633 
L 251.610411 63.065291 
L 252.986301 63.086031 
L 255.738082 63.680851 
L 257.113973 64.01208 
L 261.241644 66.518936 
L 263.993425 68.636742 
L 265.369315 69.026 
L 266.745205 68.590896 
L 268.121096 67.545853 
L 269.496986 65.794525 
L 270.872877 63.703718 
L 272.248767 61.931191 
L 273.624658 60.648181 
L 275.000548 60.308081 
L 277.752329 61.719591 
L 279.128219 61.97472 
L 280.50411 61.657007 
L 281.88 60.506994 
L 284.631781 57.321639 
L 286.007671 55.927475 
L 287.383562 55.171311 
L 290.135342 54.677394 
L 292.887123 54.019824 
L 294.263014 53.284996 
L 295.638904 51.985216 
L 297.014795 50.523208 
L 298.390685 49.724129 
L 299.766575 49.278944 
L 302.518356 48.922662 
L 303.894247 48.609944 
L 305.270137 47.868024 
L 306.646027 46.738439 
L 312.149589 40.292354 
L 313.525479 38.993512 
L 314.90137 39.36152 
L 317.653151 41.666281 
L 319.029041 42.910795 
L 320.404932 43.872315 
L 321.780822 43.262526 
L 324.532603 40.824916 
L 327.284384 38.613078 
L 330.036164 37.934635 
L 331.412055 37.96476 
L 332.787945 38.165384 
L 334.163836 38.653291 
L 335.539726 40.092371 
L 338.291507 43.700818 
L 339.667397 44.774416 
L 341.043288 45.55452 
L 342.419178 45.857424 
L 345.170959 46.13699 
L 346.546849 46.560897 
L 347.92274 46.742726 
L 349.29863 46.548871 
L 352.050411 45.834501 
L 358.929863 44.809884 
L 360.305753 44.379568 
L 361.681644 43.727309 
L 363.057534 42.900597 
L 365.809315 40.899919 
L 367.185205 40.467903 
L 369.936986 40.707651 
L 371.312877 41.353529 
L 374.064658 43.583455 
L 375.440548 44.946847 
L 378.192329 48.533003 
L 379.568219 49.364746 
L 380.94411 49.550928 
L 382.32 48.98145 
L 383.69589 47.501098 
L 386.447671 43.212042 
L 387.823562 41.22016 
L 389.199452 40.00036 
L 390.575342 39.684811 
L 391.951233 39.962813 
L 393.327123 40.674629 
L 394.703014 42.114691 
L 401.582466 50.557388 
L 402.958356 51.945002 
L 404.334247 54.177334 
L 405.710137 57.13622 
L 407.086027 59.822178 
L 408.461918 61.805729 
L 409.837808 63.325314 
L 411.213699 63.930851 
L 413.965479 63.25501 
L 418.093151 63.202262 
L 419.469041 63.466147 
L 420.844932 64.415788 
L 422.220822 65.89323 
L 424.972603 69.287534 
L 426.348493 70.950261 
L 430.476164 75.084503 
L 431.852055 76.195296 
L 433.227945 77.117676 
L 434.603836 77.871577 
L 435.979726 78.362537 
L 437.355616 79.156586 
L 438.731507 80.224856 
L 441.483288 83.470954 
L 445.610959 88.611542 
L 446.986849 90.024002 
L 455.242192 100.173992 
L 459.369863 105.099024 
L 464.873425 111.441398 
L 467.625205 114.37338 
L 470.376986 117.49927 
L 474.504658 123.303006 
L 477.256438 125.946629 
L 478.632329 126.53534 
L 480.008219 126.8067 
L 482.76 126.858907 
L 484.13589 126.704191 
L 488.263562 126.949886 
L 489.639452 127.079246 
L 491.015342 127.350989 
L 495.143014 127.493987 
L 499.270685 128.104584 
L 502.022466 128.533326 
L 504.774247 128.624318 
L 649 128.624318 
L 649 128.624318 
" style="fill:none;stroke:#808080;stroke-linecap:round;stroke-width:0.5;"/>
   </g>
   <g id="line2d_40">
    <path clip-path="url(#p6109fefffe)" d="M -1 128.120149 
L 1.198356 128.624318 
L 155.298082 128.624318 
L 159.425753 128.184764 
L 162.177534 127.354907 
L 163.553425 126.791387 
L 166.305205 125.463129 
L 167.681096 125.027097 
L 169.056986 124.403407 
L 174.560548 122.818622 
L 175.936438 122.780148 
L 177.312329 122.942145 
L 178.688219 123.344875 
L 180.06411 124.092934 
L 181.44 125.035216 
L 182.81589 125.782206 
L 184.191781 126.226984 
L 185.567671 126.456421 
L 186.943562 126.441994 
L 191.071233 125.465115 
L 192.447123 125.387271 
L 193.823014 124.962065 
L 195.198904 124.249271 
L 197.950685 122.025827 
L 199.326575 121.255468 
L 200.702466 120.872361 
L 202.078356 121.075199 
L 204.830137 122.531629 
L 206.206027 123.014232 
L 207.581918 123.160772 
L 208.957808 122.644691 
L 211.709589 121.162067 
L 214.46137 118.318007 
L 217.213151 115.842117 
L 219.964932 113.011719 
L 225.468493 108.77862 
L 229.596164 106.724135 
L 232.347945 105.666231 
L 235.099726 103.634132 
L 237.851507 101.576903 
L 240.603288 100.073715 
L 241.979178 99.540959 
L 243.355068 100.13122 
L 244.730959 101.108397 
L 247.48274 103.98234 
L 247.48274 103.98234 
" style="fill:none;stroke:#808080;stroke-linecap:round;stroke-width:0.5;"/>
   </g>
   <g id="line2d_41">
    <path clip-path="url(#p6109fefffe)" d="M 247.48274 85.543255 
L 251.610411 84.659071 
L 252.986301 84.787902 
L 254.362192 84.611724 
L 257.113973 84.834884 
L 259.865753 84.282987 
L 261.241644 83.939024 
L 263.993425 81.939076 
L 265.369315 80.919818 
L 269.496986 76.851277 
L 270.872877 75.709651 
L 272.248767 75.073503 
L 273.624658 75.125801 
L 277.752329 76.710918 
L 279.128219 76.846048 
L 280.50411 76.867486 
L 281.88 77.153589 
L 284.631781 78.984697 
L 286.007671 80.529405 
L 287.383562 82.353987 
L 288.759452 83.842525 
L 290.135342 84.584825 
L 291.511233 85.035236 
L 292.887123 84.931136 
L 294.263014 84.171775 
L 295.638904 83.548984 
L 297.014795 83.293796 
L 298.390685 82.596902 
L 301.142466 79.807589 
L 302.518356 77.571003 
L 303.894247 74.84947 
L 305.270137 72.550516 
L 310.773699 64.352385 
L 312.149589 62.10171 
L 314.90137 58.142283 
L 316.27726 56.625044 
L 317.653151 56.374059 
L 319.029041 57.475386 
L 320.404932 59.663607 
L 323.156712 65.232017 
L 324.532603 67.45364 
L 325.908493 68.940879 
L 327.284384 69.660735 
L 330.036164 70.427706 
L 331.412055 71.020498 
L 332.787945 70.845463 
L 334.163836 70.014835 
L 335.539726 68.789116 
L 338.291507 64.571983 
L 341.043288 61.337634 
L 342.419178 59.795482 
L 345.170959 57.267485 
L 349.29863 52.698579 
L 350.674521 51.741917 
L 353.426301 51.495335 
L 354.802192 51.890096 
L 357.553973 53.730418 
L 358.929863 54.03322 
L 360.305753 54.836481 
L 361.681644 56.17564 
L 364.433425 58.351104 
L 365.809315 59.816991 
L 367.185205 61.496281 
L 371.312877 65.090277 
L 372.688767 66.299146 
L 374.064658 66.934692 
L 375.440548 67.35691 
L 376.816438 67.505178 
L 378.192329 67.112195 
L 382.32 64.079229 
L 383.69589 63.625867 
L 385.071781 63.66456 
L 386.447671 64.295167 
L 387.823562 65.690834 
L 390.575342 69.996184 
L 393.327123 75.265435 
L 394.703014 77.421272 
L 396.078904 78.934542 
L 397.454795 80.002615 
L 398.830685 80.521936 
L 400.206575 80.767095 
L 401.582466 81.238575 
L 404.334247 83.006156 
L 408.461918 86.135834 
L 411.213699 87.486757 
L 412.589589 89.707356 
L 413.965479 92.205478 
L 415.34137 94.469029 
L 418.093151 97.855405 
L 420.844932 97.792446 
L 422.220822 97.996717 
L 424.972603 99.42766 
L 426.348493 100.537426 
L 427.724384 102.065966 
L 430.476164 106.937638 
L 431.852055 109.797884 
L 433.227945 112.379268 
L 434.603836 114.286002 
L 435.979726 115.18444 
L 437.355616 115.801927 
L 438.731507 116.085281 
L 440.107397 116.563941 
L 442.859178 117.057627 
L 445.610959 117.875096 
L 446.986849 117.851612 
L 449.73863 118.487799 
L 451.114521 118.824418 
L 456.618082 119.589247 
L 457.993973 119.693447 
L 459.369863 120.236187 
L 462.121644 121.914281 
L 464.873425 123.114786 
L 466.249315 123.346972 
L 469.001096 123.140689 
L 470.376986 123.348188 
L 473.128767 123.271796 
L 477.256438 123.673005 
L 480.008219 124.616664 
L 481.38411 125.159179 
L 482.76 125.573113 
L 486.887671 126.388602 
L 492.391233 126.596207 
L 496.518904 126.855257 
L 502.022466 128.337829 
L 503.398356 128.624318 
L 649 128.624318 
L 649 128.624318 
" style="fill:none;stroke:#808080;stroke-linecap:round;stroke-width:0.5;"/>
   </g>
   <g id="line2d_42">
    <path clip-path="url(#p6109fefffe)" d="M -1 128.624318 
L 169.056986 128.520801 
L 173.184658 128.19733 
L 178.688219 127.176957 
L 181.44 126.155829 
L 182.81589 125.780541 
L 185.567671 124.524579 
L 186.943562 123.514985 
L 188.319452 122.33369 
L 189.695342 120.873158 
L 191.071233 119.741607 
L 192.447123 118.818047 
L 193.823014 118.655878 
L 195.198904 118.699711 
L 197.950685 119.31564 
L 199.326575 119.296625 
L 202.078356 118.223095 
L 204.830137 117.867735 
L 206.206027 118.038191 
L 207.581918 117.733945 
L 208.957808 116.695046 
L 210.333699 114.922674 
L 213.085479 110.344607 
L 214.46137 108.533146 
L 215.83726 107.391055 
L 218.589041 104.541867 
L 222.716712 99.992113 
L 224.092603 99.109474 
L 225.468493 99.120752 
L 226.844384 99.611307 
L 230.972055 100.456989 
L 232.347945 100.289658 
L 236.475616 97.305739 
L 239.227397 93.712008 
L 240.603288 92.317055 
L 243.355068 90.007543 
L 244.730959 89.494053 
L 246.106849 89.159726 
L 247.48274 89.414874 
L 247.48274 89.414874 
" style="fill:none;stroke:#808080;stroke-linecap:round;stroke-width:0.5;"/>
   </g>
   <g id="line2d_43">
    <path clip-path="url(#p6109fefffe)" d="M 247.48274 106.24736 
L 250.234521 107.498791 
L 251.610411 108.441268 
L 252.986301 108.239747 
L 254.362192 107.883785 
L 255.738082 107.105953 
L 257.113973 106.140112 
L 258.489863 104.773522 
L 259.865753 103.733525 
L 261.241644 103.178083 
L 263.993425 102.668268 
L 265.369315 102.66173 
L 266.745205 102.262776 
L 268.121096 101.483333 
L 269.496986 100.448907 
L 273.624658 96.127976 
L 275.000548 94.852483 
L 276.376438 92.974336 
L 280.50411 86.454908 
L 281.88 84.688291 
L 283.25589 83.638173 
L 287.383562 81.530359 
L 288.759452 81.209004 
L 292.887123 80.836631 
L 294.263014 80.240839 
L 295.638904 79.265907 
L 297.014795 77.747669 
L 301.142466 72.213745 
L 302.518356 70.170687 
L 303.894247 68.368456 
L 305.270137 66.823491 
L 306.646027 65.908686 
L 308.021918 65.341374 
L 309.397808 65.172798 
L 310.773699 65.448661 
L 314.90137 66.954721 
L 317.653151 68.282289 
L 320.404932 69.606154 
L 321.780822 70.378889 
L 323.156712 71.29735 
L 324.532603 73.019393 
L 327.284384 77.46196 
L 330.036164 79.656398 
L 331.412055 82.48294 
L 332.787945 84.405356 
L 334.163836 84.915212 
L 336.915616 85.688951 
L 338.291507 85.167781 
L 339.667397 84.147152 
L 341.043288 82.908573 
L 342.419178 80.964631 
L 343.795068 78.181976 
L 345.170959 74.634252 
L 346.546849 71.406871 
L 347.92274 69.337122 
L 349.29863 67.700948 
L 350.674521 66.495581 
L 354.802192 64.506392 
L 363.057534 62.342544 
L 364.433425 62.392989 
L 365.809315 62.616284 
L 369.936986 63.709146 
L 371.312877 63.594422 
L 374.064658 63.07477 
L 375.440548 63.213722 
L 376.816438 63.921187 
L 378.192329 65.356293 
L 379.568219 67.245487 
L 380.94411 68.81258 
L 382.32 69.895839 
L 383.69589 70.422647 
L 385.071781 69.97467 
L 386.447671 68.983082 
L 387.823562 67.854431 
L 390.575342 65.368097 
L 393.327123 63.999231 
L 394.703014 63.641339 
L 396.078904 63.42125 
L 398.830685 62.352404 
L 401.582466 61.815286 
L 402.958356 62.314936 
L 404.334247 63.839384 
L 405.710137 65.647726 
L 407.086027 68.035538 
L 409.837808 74.846413 
L 412.589589 81.86441 
L 413.965479 84.791287 
L 415.34137 86.697667 
L 416.71726 88.328172 
L 420.844932 92.47839 
L 422.220822 94.091997 
L 423.596712 95.48234 
L 434.603836 108.172131 
L 440.107397 116.877021 
L 441.483288 119.00469 
L 444.235068 122.658105 
L 445.610959 124.200652 
L 446.986849 125.164457 
L 448.36274 125.846887 
L 449.73863 126.194528 
L 452.490411 126.41206 
L 453.866301 126.734778 
L 457.993973 127.317063 
L 459.369863 127.382255 
L 463.497534 126.927036 
L 466.249315 127.0676 
L 471.752877 127.637423 
L 474.504658 127.624282 
L 477.256438 127.741314 
L 482.76 128.378124 
L 485.511781 128.533753 
L 492.391233 128.624318 
L 649 128.624318 
L 649 128.624318 
" style="fill:none;stroke:#808080;stroke-linecap:round;stroke-width:0.5;"/>
   </g>
   <g id="line2d_44">
    <path clip-path="url(#p6109fefffe)" d="M -1 128.624318 
L 171.808767 128.624318 
L 173.184658 128.456294 
L 175.936438 127.720816 
L 180.06411 125.397448 
L 182.81589 124.601794 
L 185.567671 124.63786 
L 186.943562 124.780796 
L 189.695342 124.315527 
L 192.447123 123.29436 
L 193.823014 122.531402 
L 197.950685 120.726958 
L 200.702466 118.827014 
L 202.078356 118.127913 
L 203.454247 117.098957 
L 207.581918 114.525237 
L 210.333699 111.556511 
L 211.709589 110.752342 
L 213.085479 110.563783 
L 215.83726 109.790447 
L 217.213151 109.579338 
L 218.589041 108.809505 
L 219.964932 107.381422 
L 221.340822 106.55048 
L 222.716712 106.598033 
L 224.092603 107.410422 
L 225.468493 108.636432 
L 226.844384 110.539128 
L 228.220274 112.882048 
L 229.596164 114.37891 
L 230.972055 114.744678 
L 232.347945 114.340074 
L 233.723836 112.982948 
L 235.099726 110.856617 
L 236.475616 108.996096 
L 237.851507 107.447383 
L 239.227397 106.436192 
L 241.979178 103.319097 
L 243.355068 102.25236 
L 244.730959 101.682444 
L 246.106849 101.599911 
L 247.48274 103.482144 
L 247.48274 103.482144 
" style="fill:none;stroke:#808080;stroke-linecap:round;stroke-width:0.5;"/>
   </g>
   <g id="line2d_45">
    <path clip-path="url(#p6109fefffe)" d="M 247.48274 90.228393 
L 248.85863 90.996784 
L 250.234521 91.449692 
L 251.610411 91.54795 
L 252.986301 91.826948 
L 254.362192 91.951592 
L 255.738082 92.341991 
L 257.113973 93.73492 
L 258.489863 94.559231 
L 259.865753 95.070382 
L 261.241644 95.949212 
L 262.617534 96.410634 
L 263.993425 95.53892 
L 266.745205 94.210695 
L 270.872877 90.147381 
L 275.000548 86.709019 
L 283.25589 82.657827 
L 286.007671 81.265402 
L 287.383562 80.758326 
L 288.759452 80.6643 
L 290.135342 81.112505 
L 292.887123 82.817786 
L 294.263014 83.195836 
L 295.638904 83.273212 
L 297.014795 82.885169 
L 298.390685 82.244886 
L 299.766575 81.866936 
L 301.142466 81.864991 
L 302.518356 81.978153 
L 303.894247 81.905054 
L 305.270137 81.556327 
L 308.021918 80.481421 
L 309.397808 79.792936 
L 310.773699 79.655871 
L 312.149589 80.50756 
L 316.27726 83.853809 
L 317.653151 83.919075 
L 319.029041 82.743773 
L 323.156712 77.924796 
L 324.532603 76.968353 
L 325.908493 76.610711 
L 327.284384 76.477449 
L 328.660274 76.469425 
L 330.036164 76.885968 
L 332.787945 78.139026 
L 334.163836 78.588972 
L 335.539726 78.24264 
L 336.915616 77.410669 
L 338.291507 76.290933 
L 341.043288 73.577963 
L 342.419178 72.967871 
L 347.92274 72.534943 
L 349.29863 72.158966 
L 350.674521 71.436269 
L 352.050411 70.901361 
L 356.178082 69.852113 
L 357.553973 69.360365 
L 360.305753 67.810533 
L 361.681644 67.384581 
L 367.185205 67.051687 
L 368.561096 66.729737 
L 369.936986 66.222514 
L 374.064658 65.438895 
L 378.192329 64.987871 
L 379.568219 65.001337 
L 380.94411 65.300549 
L 383.69589 66.368926 
L 386.447671 67.445263 
L 390.575342 68.890175 
L 391.951233 69.472956 
L 394.703014 69.889777 
L 396.078904 70.924835 
L 397.454795 72.274512 
L 398.830685 74.164694 
L 400.206575 76.778205 
L 401.582466 80.194839 
L 402.958356 83.126699 
L 407.086027 90.801178 
L 408.461918 92.273317 
L 411.213699 94.395659 
L 415.34137 96.897041 
L 416.71726 98.038304 
L 418.093151 99.484385 
L 419.469041 100.527938 
L 420.844932 102.204035 
L 422.220822 104.157181 
L 423.596712 106.571494 
L 424.972603 108.56545 
L 426.348493 110.785458 
L 427.724384 112.496077 
L 429.100274 113.519078 
L 430.476164 113.797137 
L 431.852055 114.205723 
L 433.227945 114.809154 
L 434.603836 115.134298 
L 435.979726 115.680913 
L 437.355616 116.410891 
L 444.235068 119.142062 
L 445.610959 119.818135 
L 446.986849 120.675468 
L 448.36274 122.025987 
L 451.114521 124.032647 
L 452.490411 124.97333 
L 453.866301 125.695662 
L 455.242192 125.81084 
L 459.369863 126.542803 
L 464.873425 126.993933 
L 471.752877 128.106569 
L 477.256438 128.59842 
L 484.13589 128.624318 
L 649 128.624318 
L 649 128.624318 
" style="fill:none;stroke:#808080;stroke-linecap:round;stroke-width:0.5;"/>
   </g>
   <g id="line2d_46">
    <path clip-path="url(#p6109fefffe)" d="M -1 128.624318 
L 159.425753 128.598388 
L 166.305205 128.158435 
L 169.056986 128.158435 
L 173.184658 128.046036 
L 175.936438 127.381848 
L 180.06411 126.456409 
L 181.44 126.480845 
L 182.81589 126.774575 
L 184.191781 126.925769 
L 185.567671 126.872501 
L 186.943562 126.654769 
L 188.319452 126.704327 
L 189.695342 126.588675 
L 193.823014 125.825627 
L 196.574795 124.542356 
L 197.950685 124.109761 
L 199.326575 123.474225 
L 200.702466 122.372441 
L 202.078356 121.43255 
L 204.830137 120.002106 
L 206.206027 119.615654 
L 207.581918 120.08827 
L 208.957808 120.373073 
L 211.709589 120.208878 
L 213.085479 120.067457 
L 214.46137 119.710719 
L 215.83726 119.186215 
L 217.213151 118.194802 
L 218.589041 116.923636 
L 221.340822 115.182165 
L 222.716712 114.696791 
L 225.468493 115.151173 
L 226.844384 115.005416 
L 229.596164 114.452401 
L 230.972055 114.822913 
L 232.347945 115.704133 
L 233.723836 116.728026 
L 236.475616 119.074092 
L 237.851507 119.172 
L 239.227397 119.041586 
L 240.603288 118.451573 
L 241.979178 117.500652 
L 247.48274 111.608536 
L 247.48274 111.608536 
" style="fill:none;stroke:#808080;stroke-linecap:round;stroke-width:0.5;"/>
   </g>
   <g id="line2d_47">
    <path clip-path="url(#p6109fefffe)" d="M 247.48274 106.919416 
L 248.85863 109.801498 
L 250.234521 111.974459 
L 251.610411 113.38449 
L 252.986301 113.858535 
L 254.362192 112.974221 
L 255.738082 112.458593 
L 258.489863 112.248447 
L 259.865753 111.915204 
L 261.241644 111.140967 
L 262.617534 109.527527 
L 263.993425 106.864201 
L 265.369315 103.829055 
L 268.121096 96.984871 
L 269.496986 93.871657 
L 270.872877 91.57215 
L 272.248767 89.741493 
L 273.624658 88.217807 
L 276.376438 85.64764 
L 281.88 80.984945 
L 283.25589 80.028778 
L 284.631781 79.22821 
L 286.007671 78.953904 
L 287.383562 79.358878 
L 288.759452 80.482114 
L 290.135342 81.758035 
L 292.887123 85.046581 
L 294.263014 86.338241 
L 295.638904 86.740988 
L 297.014795 86.650751 
L 298.390685 85.606063 
L 299.766575 84.182464 
L 306.646027 73.982398 
L 308.021918 71.355439 
L 310.773699 67.514284 
L 312.149589 65.699361 
L 313.525479 64.235436 
L 314.90137 63.444865 
L 316.27726 62.403457 
L 317.653151 61.704772 
L 319.029041 61.981731 
L 320.404932 63.29354 
L 321.780822 65.308738 
L 323.156712 68.120809 
L 324.532603 71.521067 
L 325.908493 74.2096 
L 327.284384 75.216023 
L 330.036164 74.611114 
L 331.412055 72.846752 
L 334.163836 67.944292 
L 335.539726 66.560892 
L 336.915616 66.075905 
L 339.667397 65.839531 
L 341.043288 65.954803 
L 342.419178 66.256306 
L 343.795068 66.755041 
L 345.170959 67.004598 
L 346.546849 66.978651 
L 347.92274 66.649786 
L 350.674521 65.087313 
L 352.050411 64.676715 
L 354.802192 64.045061 
L 357.553973 63.326224 
L 358.929863 62.776775 
L 361.681644 61.225255 
L 367.185205 58.823669 
L 368.561096 58.002446 
L 369.936986 56.961455 
L 371.312877 56.478457 
L 372.688767 56.535398 
L 374.064658 56.841978 
L 375.440548 57.332653 
L 376.816438 58.062411 
L 380.94411 59.111637 
L 382.32 59.597756 
L 385.071781 61.093254 
L 386.447671 62.48578 
L 387.823562 66.692622 
L 391.951233 80.557331 
L 393.327123 84.52481 
L 394.703014 85.644348 
L 397.454795 86.944858 
L 401.582466 88.416248 
L 402.958356 89.884832 
L 407.086027 94.881075 
L 408.461918 96.201135 
L 409.837808 96.854964 
L 411.213699 97.833281 
L 412.589589 99.118893 
L 416.71726 105.068611 
L 418.093151 106.268322 
L 419.469041 107.304659 
L 420.844932 107.912525 
L 422.220822 108.88918 
L 426.348493 113.910686 
L 429.100274 116.495498 
L 430.476164 117.521853 
L 434.603836 121.496727 
L 435.979726 122.661426 
L 437.355616 123.418397 
L 441.483288 124.216854 
L 446.986849 125.572344 
L 448.36274 125.947255 
L 451.114521 125.98547 
L 453.866301 126.308453 
L 459.369863 126.658271 
L 469.001096 127.552055 
L 493.767123 128.624318 
L 649 128.624318 
L 649 128.624318 
" style="fill:none;stroke:#808080;stroke-linecap:round;stroke-width:0.5;"/>
   </g>
   <g id="line2d_48">
    <path clip-path="url(#p6109fefffe)" d="M -1 127.67961 
L 2.574247 127.877827 
L 53.482192 127.913831 
L 141.539178 127.780912 
L 156.673973 127.522432 
L 160.801644 127.12932 
L 164.929315 126.520966 
L 174.560548 124.535354 
L 181.44 122.634608 
L 184.191781 121.249828 
L 191.071233 117.676058 
L 192.447123 116.88851 
L 193.823014 115.936524 
L 195.198904 114.68558 
L 196.574795 113.606423 
L 199.326575 111.09589 
L 202.078356 109.068025 
L 208.957808 105.041347 
L 211.709589 103.018647 
L 214.46137 101.221292 
L 217.213151 99.977123 
L 218.589041 99.53233 
L 219.964932 98.807006 
L 222.716712 97.103249 
L 226.844384 94.011545 
L 228.220274 93.325822 
L 230.972055 91.728096 
L 232.347945 91.148901 
L 233.723836 90.693053 
L 237.851507 88.594518 
L 241.979178 85.548588 
L 244.730959 84.120715 
L 247.48274 82.936002 
L 247.48274 82.936002 
" style="fill:none;stroke:#000000;stroke-linecap:round;stroke-width:2;"/>
   </g>
   <g id="line2d_49">
    <path clip-path="url(#p6109fefffe)" d="M -1 128.624318 
L 171.808767 128.624318 
L 173.184658 128.480911 
L 175.936438 126.854438 
L 180.06411 124.941931 
L 181.44 124.449907 
L 185.567671 121.13155 
L 186.943562 119.761804 
L 188.319452 118.975164 
L 189.695342 118.389238 
L 191.071233 117.438836 
L 192.447123 115.913072 
L 193.823014 114.198602 
L 196.574795 109.752281 
L 199.326575 105.781643 
L 202.078356 102.189994 
L 203.454247 100.599553 
L 204.830137 98.77869 
L 206.206027 97.35403 
L 207.581918 96.304961 
L 208.957808 95.824772 
L 210.333699 95.185095 
L 214.46137 96.115566 
L 215.83726 96.585307 
L 217.213151 97.58074 
L 218.589041 98.39673 
L 219.964932 99.602478 
L 221.340822 100.502457 
L 222.716712 100.927938 
L 224.092603 100.320405 
L 225.468493 98.573933 
L 228.220274 92.943015 
L 229.596164 90.227083 
L 230.972055 88.357074 
L 232.347945 87.297936 
L 233.723836 86.517174 
L 235.099726 85.974644 
L 236.475616 85.108938 
L 237.851507 83.657905 
L 240.603288 79.5733 
L 244.730959 72.648436 
L 246.106849 70.62121 
L 247.48274 68.857775 
L 247.48274 68.857775 
" style="fill:none;stroke:#0000ff;stroke-linecap:round;stroke-width:2.5;"/>
   </g>
   <g id="line2d_50">
    <path clip-path="url(#p6109fefffe)" d="M -1 128.624318 
L 171.808767 128.624318 
L 173.184658 128.456294 
L 175.936438 127.720816 
L 180.06411 125.397448 
L 182.81589 124.601794 
L 185.567671 124.63786 
L 186.943562 124.780796 
L 189.695342 124.315527 
L 192.447123 123.29436 
L 193.823014 122.531402 
L 197.950685 120.726958 
L 200.702466 118.827014 
L 202.078356 118.127913 
L 203.454247 117.098957 
L 207.581918 114.525237 
L 210.333699 111.556511 
L 211.709589 110.752342 
L 213.085479 110.563783 
L 215.83726 109.790447 
L 217.213151 109.579338 
L 218.589041 108.809505 
L 219.964932 107.381422 
L 221.340822 106.55048 
L 222.716712 106.598033 
L 224.092603 107.410422 
L 225.468493 108.636432 
L 226.844384 110.539128 
L 228.220274 112.882048 
L 229.596164 114.37891 
L 230.972055 114.744678 
L 232.347945 114.340074 
L 233.723836 112.982948 
L 235.099726 110.856617 
L 236.475616 108.996096 
L 237.851507 107.447383 
L 239.227397 106.436192 
L 241.979178 103.319097 
L 243.355068 102.25236 
L 244.730959 101.682444 
L 246.106849 101.599911 
L 247.48274 103.482144 
L 247.48274 103.482144 
" style="fill:none;stroke:#ffa500;stroke-linecap:round;stroke-width:2.5;"/>
   </g>
   <g id="line2d_51">
    <path clip-path="url(#p6109fefffe)" d="M -1 128.624318 
L 159.425753 128.598388 
L 166.305205 128.158435 
L 169.056986 128.158435 
L 173.184658 128.046036 
L 175.936438 127.381848 
L 180.06411 126.456409 
L 181.44 126.480845 
L 182.81589 126.774575 
L 184.191781 126.925769 
L 185.567671 126.872501 
L 186.943562 126.654769 
L 188.319452 126.704327 
L 189.695342 126.588675 
L 193.823014 125.825627 
L 196.574795 124.542356 
L 197.950685 124.109761 
L 199.326575 123.474225 
L 200.702466 122.372441 
L 202.078356 121.43255 
L 204.830137 120.002106 
L 206.206027 119.615654 
L 207.581918 120.08827 
L 208.957808 120.373073 
L 211.709589 120.208878 
L 213.085479 120.067457 
L 214.46137 119.710719 
L 215.83726 119.186215 
L 217.213151 118.194802 
L 218.589041 116.923636 
L 221.340822 115.182165 
L 222.716712 114.696791 
L 225.468493 115.151173 
L 226.844384 115.005416 
L 229.596164 114.452401 
L 230.972055 114.822913 
L 232.347945 115.704133 
L 233.723836 116.728026 
L 236.475616 119.074092 
L 237.851507 119.172 
L 239.227397 119.041586 
L 240.603288 118.451573 
L 241.979178 117.500652 
L 247.48274 111.608536 
L 247.48274 111.608536 
" style="fill:none;stroke:#ff0000;stroke-linecap:round;stroke-width:2.5;"/>
   </g>
   <g id="line2d_52">
    <path clip-path="url(#p6109fefffe)" d="M -1 128.263227 
L 1.198356 128.353753 
L 3.950137 128.496398 
L 5.326027 128.227336 
L 9.453699 127.997725 
L 10.829589 127.984401 
L 13.58137 128.280064 
L 16.333151 128.123178 
L 23.212603 127.849536 
L 24.588493 127.85017 
L 27.340274 128.109409 
L 30.092055 128.149203 
L 34.219726 127.778206 
L 36.971507 127.583708 
L 43.850959 128.308111 
L 47.97863 128.436182 
L 53.482192 128.497907 
L 54.858082 128.317606 
L 58.985753 128.293097 
L 64.489315 128.473533 
L 67.241096 128.396068 
L 78.248219 128.485475 
L 96.134795 128.559182 
L 101.638356 128.337664 
L 103.014247 128.285722 
L 109.893699 128.533478 
L 120.900822 128.559335 
L 123.652603 128.005373 
L 125.028493 127.59045 
L 126.404384 126.979831 
L 127.780274 126.688228 
L 129.156164 126.538362 
L 130.532055 126.664898 
L 133.283836 127.198585 
L 134.659726 126.921861 
L 136.035616 127.138589 
L 137.411507 126.609049 
L 140.163288 126.778527 
L 141.539178 127.122693 
L 142.915068 126.810001 
L 144.290959 127.340512 
L 145.666849 127.315974 
L 148.41863 127.738933 
L 149.794521 128.124328 
L 151.170411 128.100165 
L 152.546301 128.25027 
L 153.922192 128.224283 
L 155.298082 128.043261 
L 164.929315 128.342361 
L 167.681096 127.856388 
L 170.432877 127.880708 
L 171.808767 127.771756 
L 175.936438 128.172593 
L 177.312329 128.051565 
L 178.688219 127.689771 
L 181.44 126.514414 
L 184.191781 126.344073 
L 185.567671 126.448551 
L 188.319452 127.254762 
L 191.071233 127.548777 
L 192.447123 127.949894 
L 193.823014 128.225401 
L 195.198904 128.326496 
L 197.950685 127.790395 
L 200.702466 126.879901 
L 202.078356 126.519768 
L 203.454247 126.338861 
L 204.830137 125.928925 
L 206.206027 125.315519 
L 208.957808 125.03268 
L 210.333699 124.359726 
L 211.709589 123.967087 
L 213.085479 124.140919 
L 214.46137 123.644748 
L 215.83726 122.996398 
L 217.213151 122.814649 
L 218.589041 122.287462 
L 219.964932 121.454886 
L 221.340822 120.486325 
L 222.716712 119.122719 
L 224.092603 117.582375 
L 225.468493 115.742964 
L 229.596164 109.167401 
L 230.972055 106.963648 
L 233.723836 103.052547 
L 236.475616 98.795069 
L 239.227397 95.683994 
L 240.603288 94.443129 
L 243.355068 93.198263 
L 244.730959 91.966295 
L 246.106849 90.399151 
L 247.48274 89.710301 
L 247.48274 89.710301 
" style="fill:none;stroke:#ff0000;stroke-dasharray:7.4,3.2;stroke-dashoffset:0;stroke-width:2;"/>
   </g>
   <g id="line2d_53">
    <path clip-path="url(#p6109fefffe)" d="M -1 127.939033 
L 1.198356 128.122002 
L 2.574247 128.357949 
L 5.326027 128.41188 
L 9.453699 128.175699 
L 12.205479 128.004599 
L 19.084932 127.864203 
L 21.836712 127.734017 
L 25.964384 127.77681 
L 27.340274 127.980627 
L 30.092055 128.079345 
L 32.843836 127.89594 
L 34.219726 127.981827 
L 35.595616 127.842341 
L 39.723288 128.025276 
L 41.099178 128.208934 
L 42.475068 128.219158 
L 45.226849 128.413403 
L 47.97863 128.445227 
L 56.233973 128.359267 
L 60.361644 128.476905 
L 69.992877 128.520556 
L 78.248219 128.356846 
L 82.37589 128.300688 
L 87.879452 128.429937 
L 92.007123 128.505226 
L 94.758904 128.537612 
L 107.141918 128.624318 
L 115.39726 128.537943 
L 120.900822 128.291449 
L 122.276712 127.968302 
L 123.652603 127.831291 
L 126.404384 127.997459 
L 127.780274 127.827692 
L 129.156164 127.827516 
L 130.532055 128.140446 
L 131.907945 128.288231 
L 134.659726 128.298329 
L 136.035616 128.444687 
L 137.411507 128.12726 
L 141.539178 128.003725 
L 144.290959 128.10002 
L 145.666849 128.469904 
L 147.04274 128.55218 
L 148.41863 128.335117 
L 151.170411 128.221636 
L 155.298082 127.33619 
L 156.673973 127.553124 
L 158.049863 127.645951 
L 159.425753 127.482469 
L 160.801644 127.630256 
L 162.177534 127.942849 
L 163.553425 127.992593 
L 164.929315 127.912636 
L 166.305205 127.521847 
L 173.184658 126.505025 
L 174.560548 126.551665 
L 175.936438 126.833796 
L 177.312329 126.672102 
L 180.06411 125.672713 
L 181.44 125.592385 
L 182.81589 125.382615 
L 184.191781 124.804755 
L 185.567671 123.88348 
L 186.943562 123.530943 
L 188.319452 123.38054 
L 189.695342 122.826027 
L 191.071233 122.398309 
L 192.447123 122.110444 
L 193.823014 122.537765 
L 195.198904 122.016757 
L 200.702466 121.970394 
L 202.078356 121.74795 
L 203.454247 122.122144 
L 204.830137 121.781087 
L 207.581918 120.505851 
L 208.957808 119.466195 
L 210.333699 117.797354 
L 213.085479 116.399271 
L 214.46137 116.026208 
L 215.83726 116.351982 
L 217.213151 117.086575 
L 218.589041 118.471526 
L 219.964932 119.120122 
L 221.340822 119.5724 
L 222.716712 119.906135 
L 224.092603 119.55659 
L 228.220274 117.988824 
L 229.596164 117.780445 
L 232.347945 116.756034 
L 233.723836 116.178652 
L 235.099726 115.195636 
L 236.475616 113.801075 
L 237.851507 111.84389 
L 240.603288 107.081143 
L 243.355068 101.681486 
L 246.106849 98.79139 
L 247.48274 97.57804 
L 247.48274 97.57804 
" style="fill:none;stroke:#bf00bf;stroke-linecap:round;stroke-width:2.5;"/>
   </g>
   <g id="line2d_54">
    <path clip-path="url(#p6109fefffe)" d="M 247.48274 80.766027 
L 251.610411 78.750293 
L 252.986301 78.435781 
L 257.113973 76.344296 
L 259.865753 74.719939 
L 262.617534 73.372296 
L 263.993425 72.837689 
L 265.369315 72.599516 
L 269.496986 71.203182 
L 272.248767 69.852664 
L 275.000548 68.551404 
L 276.376438 67.969326 
L 279.128219 67.147497 
L 280.50411 66.966544 
L 284.631781 65.679366 
L 286.007671 64.959447 
L 290.135342 63.254634 
L 292.887123 62.45021 
L 295.638904 61.83635 
L 298.390685 61.765806 
L 303.894247 62.334914 
L 309.397808 61.803711 
L 313.525479 60.73209 
L 314.90137 60.389658 
L 319.029041 59.088063 
L 320.404932 58.682033 
L 323.156712 58.323515 
L 325.908493 58.314083 
L 327.284384 58.300176 
M 330.036164 58.21479 
L 334.163836 58.255344 
L 335.539726 58.462879 
L 336.915616 58.403818 
L 338.291507 58.460286 
L 341.043288 58.186247 
L 342.419178 57.915556 
L 346.546849 56.592243 
L 350.674521 55.818983 
L 352.050411 55.56755 
L 356.178082 55.400984 
L 357.553973 55.55195 
L 358.929863 55.551148 
L 361.681644 55.76222 
L 371.312877 56.370672 
L 374.064658 57.021256 
L 379.568219 58.68861 
L 385.071781 59.86134 
L 386.447671 60.478335 
L 387.823562 60.871801 
L 391.951233 62.43034 
L 396.078904 63.888465 
L 400.206575 64.832897 
L 401.582466 65.237604 
L 404.334247 66.535426 
L 409.837808 70.263449 
L 411.213699 71.36717 
L 413.965479 73.166696 
L 422.220822 78.546681 
L 426.348493 81.819409 
L 429.100274 84.509721 
L 431.852055 87.368894 
L 434.603836 89.918407 
L 440.107397 94.816714 
L 444.235068 98.904605 
L 446.986849 101.372486 
L 449.73863 103.893597 
L 456.618082 110.422605 
L 457.993973 111.572072 
L 460.745753 114.14095 
L 466.249315 118.535011 
L 469.001096 120.222182 
L 471.752877 121.711408 
L 477.256438 124.104883 
L 480.008219 125.072716 
L 482.76 125.786982 
L 492.391233 126.853612 
L 497.894795 127.370596 
L 500.646575 127.636757 
L 504.774247 127.877827 
L 555.682192 127.913831 
L 643.739178 127.780912 
L 649 127.734501 
L 649 127.734501 
" style="fill:none;stroke:#000000;stroke-linecap:round;stroke-width:2;"/>
   </g>
   <g id="line2d_55">
    <path clip-path="url(#p6109fefffe)" d="M 247.48274 66.792762 
L 248.85863 66.027673 
L 250.234521 64.940652 
L 251.610411 63.637976 
L 252.986301 62.748257 
L 254.362192 61.142289 
L 255.738082 59.741794 
L 257.113973 58.637348 
L 259.865753 57.321975 
L 262.617534 55.530356 
L 263.993425 54.99587 
L 265.369315 54.999761 
L 266.745205 55.793307 
L 269.496986 58.106856 
L 270.872877 58.529914 
L 272.248767 58.086938 
L 273.624658 56.485698 
L 275.000548 54.538251 
L 277.752329 49.701149 
L 279.128219 47.458131 
L 281.88 43.917226 
L 283.25589 42.763366 
L 286.007671 41.400304 
L 287.383562 40.688434 
L 290.135342 39.741361 
L 291.511233 38.773105 
L 292.887123 38.015222 
L 294.263014 37.618426 
L 295.638904 37.507719 
L 297.014795 37.686046 
L 298.390685 38.360471 
L 299.766575 38.818203 
L 302.518356 39.323192 
L 303.894247 40.037816 
L 306.646027 40.989446 
L 308.021918 41.519237 
L 309.397808 41.76861 
L 312.149589 41.046539 
L 313.525479 41.075766 
L 314.90137 41.445605 
L 319.029041 42.932975 
L 320.404932 42.699202 
L 323.156712 41.246347 
L 324.532603 40.937571 
L 325.908493 40.23151 
L 327.284384 39.309955 
L 328.660274 38.63854 
L 330.036164 37.577402 
L 331.412055 35.544702 
L 332.787945 33.96019 
L 334.163836 33.078161 
L 335.539726 32.977425 
L 336.915616 33.392085 
L 339.667397 35.373287 
L 341.043288 36.103252 
L 342.419178 35.645442 
L 345.170959 33.39254 
L 356.178082 24.100473 
L 357.553973 23.610682 
L 358.929863 23.63127 
L 360.305753 24.660978 
L 361.681644 26.795767 
L 364.433425 31.819623 
L 365.809315 33.582477 
L 367.185205 34.268973 
L 368.561096 33.881298 
L 369.936986 32.801963 
L 374.064658 28.279105 
L 375.440548 27.523964 
L 376.816438 26.983713 
L 378.192329 26.611675 
L 379.568219 26.697046 
L 382.32 28.357698 
L 383.69589 29.855165 
L 385.071781 31.852708 
L 386.447671 33.584995 
L 387.823562 34.253422 
L 389.199452 34.19357 
L 390.575342 33.454981 
L 394.703014 29.195595 
L 397.454795 27.140063 
L 398.830685 26.468851 
L 400.206575 26.577353 
L 401.582466 27.672192 
L 402.958356 29.175457 
L 407.086027 34.614532 
L 409.837808 37.85285 
L 411.213699 39.763669 
L 412.589589 42.103275 
L 413.965479 44.704805 
L 415.34137 46.970789 
L 416.71726 48.960939 
L 418.093151 50.494294 
L 419.469041 51.505308 
L 420.844932 51.757782 
L 422.220822 51.763628 
L 423.596712 51.429978 
L 424.972603 51.426803 
L 429.100274 52.334835 
L 430.476164 53.04902 
L 431.852055 54.091645 
L 433.227945 55.477023 
L 435.979726 60.065988 
L 437.355616 62.169222 
L 438.731507 63.75561 
L 440.107397 64.884904 
L 441.483288 65.483391 
L 442.859178 66.270995 
L 444.235068 67.418255 
L 446.986849 70.017385 
L 449.73863 73.519815 
L 451.114521 75.46254 
L 453.866301 80.397288 
L 455.242192 82.165799 
L 456.618082 83.729384 
L 457.993973 84.966705 
L 459.369863 85.91323 
L 460.745753 87.134137 
L 463.497534 90.835793 
L 466.249315 95.339544 
L 473.128767 110.187092 
L 475.880548 114.22424 
L 477.256438 116.478315 
L 481.38411 121.826298 
L 482.76 122.748995 
L 489.639452 125.66763 
L 491.015342 126.119496 
L 493.767123 126.508464 
L 495.143014 126.470198 
L 496.518904 126.625673 
L 499.270685 127.235746 
L 500.646575 127.521232 
L 503.398356 128.260932 
L 508.901918 128.611264 
L 518.533151 128.624318 
L 645.115068 128.559114 
L 649 127.517976 
L 649 127.517976 
" style="fill:none;stroke:#0000ff;stroke-linecap:round;stroke-width:2.5;"/>
   </g>
   <g id="line2d_56">
    <path clip-path="url(#p6109fefffe)" d="M 247.48274 106.919416 
L 248.85863 109.801498 
L 250.234521 111.974459 
L 251.610411 113.38449 
L 252.986301 113.858535 
L 254.362192 112.974221 
L 255.738082 112.458593 
L 258.489863 112.248447 
L 259.865753 111.915204 
L 261.241644 111.140967 
L 262.617534 109.527527 
L 263.993425 106.864201 
L 265.369315 103.829055 
L 268.121096 96.984871 
L 269.496986 93.871657 
L 270.872877 91.57215 
L 272.248767 89.741493 
L 273.624658 88.217807 
L 276.376438 85.64764 
L 281.88 80.984945 
L 283.25589 80.028778 
L 284.631781 79.22821 
L 286.007671 78.953904 
L 287.383562 79.358878 
L 288.759452 80.482114 
L 290.135342 81.758035 
L 292.887123 85.046581 
L 294.263014 86.338241 
L 295.638904 86.740988 
L 297.014795 86.650751 
L 298.390685 85.606063 
L 299.766575 84.182464 
L 306.646027 73.982398 
L 308.021918 71.355439 
L 310.773699 67.514284 
L 312.149589 65.699361 
L 313.525479 64.235436 
L 314.90137 63.444865 
L 316.27726 62.403457 
L 317.653151 61.704772 
L 319.029041 61.981731 
L 320.404932 63.29354 
L 321.780822 65.308738 
L 323.156712 68.120809 
L 324.532603 71.521067 
L 325.908493 74.2096 
L 327.284384 75.216023 
L 330.036164 74.611114 
L 331.412055 72.846752 
L 334.163836 67.944292 
L 335.539726 66.560892 
L 336.915616 66.075905 
L 339.667397 65.839531 
L 341.043288 65.954803 
L 342.419178 66.256306 
L 343.795068 66.755041 
L 345.170959 67.004598 
L 346.546849 66.978651 
L 347.92274 66.649786 
L 350.674521 65.087313 
L 352.050411 64.676715 
L 354.802192 64.045061 
L 357.553973 63.326224 
L 358.929863 62.776775 
L 361.681644 61.225255 
L 367.185205 58.823669 
L 368.561096 58.002446 
L 369.936986 56.961455 
L 371.312877 56.478457 
L 372.688767 56.535398 
L 374.064658 56.841978 
L 375.440548 57.332653 
L 376.816438 58.062411 
L 380.94411 59.111637 
L 382.32 59.597756 
L 385.071781 61.093254 
L 386.447671 62.48578 
L 387.823562 66.692622 
L 391.951233 80.557331 
L 393.327123 84.52481 
L 394.703014 85.644348 
L 397.454795 86.944858 
L 401.582466 88.416248 
L 402.958356 89.884832 
L 407.086027 94.881075 
L 408.461918 96.201135 
L 409.837808 96.854964 
L 411.213699 97.833281 
L 412.589589 99.118893 
L 416.71726 105.068611 
L 418.093151 106.268322 
L 419.469041 107.304659 
L 420.844932 107.912525 
L 422.220822 108.88918 
L 426.348493 113.910686 
L 429.100274 116.495498 
L 430.476164 117.521853 
L 434.603836 121.496727 
L 435.979726 122.661426 
L 437.355616 123.418397 
L 441.483288 124.216854 
L 446.986849 125.572344 
L 448.36274 125.947255 
L 451.114521 125.98547 
L 453.866301 126.308453 
L 459.369863 126.658271 
L 469.001096 127.552055 
L 493.767123 128.624318 
L 649 128.624318 
L 649 128.624318 
" style="fill:none;stroke:#ffa500;stroke-linecap:round;stroke-width:2.5;"/>
   </g>
   <g id="line2d_57">
    <path clip-path="url(#p6109fefffe)" d="M 247.48274 110.995683 
L 248.85863 111.893158 
L 250.234521 113.021147 
L 251.610411 114.360254 
L 252.986301 113.730277 
L 254.362192 113.996782 
L 255.738082 114.656423 
L 257.113973 115.520034 
L 258.489863 115.995951 
L 259.865753 116.976763 
L 261.241644 116.733157 
L 262.617534 115.49599 
L 265.369315 112.229099 
L 266.745205 110.770259 
L 268.121096 109.892298 
L 270.872877 108.356686 
L 272.248767 107.389898 
L 273.624658 106.121095 
L 275.000548 104.526239 
L 277.752329 101.00429 
L 280.50411 98.750471 
L 281.88 97.276155 
L 283.25589 96.258562 
L 287.383562 94.507446 
L 288.759452 94.399454 
L 290.135342 93.691012 
L 291.511233 92.578212 
L 292.887123 90.673793 
L 295.638904 88.082842 
L 297.014795 87.579346 
L 298.390685 87.705549 
L 299.766575 89.010895 
L 301.142466 89.968758 
L 305.270137 95.513904 
L 306.646027 96.987836 
L 308.021918 99.331655 
L 312.149589 103.801575 
L 314.90137 105.673869 
L 316.27726 107.282587 
L 317.653151 109.16843 
L 320.404932 111.717691 
L 321.780822 111.167416 
L 323.156712 109.559443 
L 324.532603 106.749704 
L 327.284384 102.07252 
L 330.036164 100.832927 
L 331.412055 100.531242 
L 334.163836 101.835282 
L 336.915616 105.326673 
L 339.667397 107.14221 
L 341.043288 107.571828 
L 342.419178 105.491384 
L 345.170959 99.864246 
L 346.546849 96.748654 
L 347.92274 93.969149 
L 349.29863 92.455338 
L 352.050411 90.321704 
L 353.426301 89.839203 
L 354.802192 89.724676 
L 356.178082 90.459609 
L 357.553973 91.451362 
L 358.929863 93.129826 
L 360.305753 95.741771 
L 361.681644 98.750901 
L 364.433425 103.354538 
L 365.809315 105.191622 
L 367.185205 105.748557 
L 368.561096 105.737183 
L 369.936986 105.923981 
L 371.312877 106.54288 
L 374.064658 108.823193 
L 375.440548 110.02773 
L 376.816438 111.446696 
L 378.192329 112.017929 
L 379.568219 111.896353 
L 380.94411 111.340444 
L 383.69589 110.057616 
L 385.071781 109.639579 
L 386.447671 110.086783 
L 387.823562 110.746363 
L 390.575342 111.278027 
L 391.951233 111.406474 
L 393.327123 112.266978 
L 394.703014 113.395637 
L 396.078904 114.831119 
L 397.454795 116.580976 
L 398.830685 118.81417 
L 400.206575 119.692482 
L 402.958356 120.798424 
L 404.334247 120.502391 
L 405.710137 120.582756 
L 407.086027 120.984986 
L 408.461918 121.570365 
L 409.837808 121.968243 
L 411.213699 122.832308 
L 412.589589 123.419793 
L 416.71726 124.330287 
L 422.220822 125.367348 
L 423.596712 125.313808 
L 424.972603 125.787219 
L 426.348493 126.089896 
L 427.724384 125.888276 
L 429.100274 126.046063 
L 430.476164 126.661563 
L 433.227945 127.022243 
L 434.603836 127.44324 
L 435.979726 127.479014 
L 438.731507 127.280014 
L 442.859178 127.258687 
L 445.610959 127.477312 
L 451.114521 127.796692 
L 453.866301 127.555633 
L 456.618082 127.738245 
L 457.993973 127.620554 
L 460.745753 127.889074 
L 463.497534 128.000268 
L 467.625205 128.353696 
L 474.504658 128.378057 
L 478.632329 128.063348 
L 481.38411 127.688848 
L 485.511781 127.616678 
L 489.639452 128.063831 
L 491.015342 127.976433 
L 492.391233 127.319195 
L 495.143014 127.18263 
L 496.518904 127.120832 
L 497.894795 127.242365 
L 499.270685 128.111161 
L 500.646575 128.259347 
L 503.398356 128.353753 
L 506.150137 128.496398 
L 507.526027 128.227336 
L 511.653699 127.997725 
L 513.029589 127.984401 
L 515.78137 128.280064 
L 518.533151 128.123178 
L 525.412603 127.849536 
L 526.788493 127.85017 
L 529.540274 128.109409 
L 532.292055 128.149203 
L 536.419726 127.778206 
L 539.171507 127.583708 
L 546.050959 128.308111 
L 550.17863 128.436182 
L 555.682192 128.497907 
L 557.058082 128.317606 
L 561.185753 128.293097 
L 566.689315 128.473533 
L 569.441096 128.396068 
L 580.448219 128.485475 
L 598.334795 128.559182 
L 603.838356 128.337664 
L 605.214247 128.285722 
L 612.093699 128.533478 
L 623.100822 128.559335 
L 625.852603 128.005373 
L 627.228493 127.59045 
L 628.604384 126.979831 
L 629.980274 126.688228 
L 631.356164 126.538362 
L 632.732055 126.664898 
L 635.483836 127.198585 
L 636.859726 126.921861 
L 638.235616 127.138589 
L 639.611507 126.609049 
L 642.363288 126.778527 
L 643.739178 127.122693 
L 645.115068 126.810001 
L 646.490959 127.340512 
L 647.866849 127.315974 
L 649 127.4797 
L 649 127.4797 
" style="fill:none;stroke:#ff0000;stroke-linecap:round;stroke-width:2.5;"/>
   </g>
   <g id="line2d_58">
    <path clip-path="url(#p6109fefffe)" d="M 247.48274 88.337076 
L 248.85863 88.218551 
L 250.234521 88.417798 
L 251.610411 88.168509 
L 252.986301 88.036626 
L 254.362192 87.781875 
L 255.738082 87.772468 
L 257.113973 87.876891 
L 258.489863 87.742291 
L 259.865753 87.813084 
L 261.241644 87.393944 
L 262.617534 86.185014 
L 265.369315 82.964766 
L 266.745205 81.79293 
L 268.121096 81.578315 
L 269.496986 81.710674 
L 272.248767 82.809627 
L 273.624658 82.597783 
L 275.000548 81.362737 
L 277.752329 78.452743 
L 280.50411 76.405828 
L 281.88 76.276159 
L 283.25589 77.068638 
L 284.631781 78.353361 
L 286.007671 79.16747 
L 287.383562 80.118176 
L 288.759452 80.8102 
L 291.511233 81.397364 
L 292.887123 82.499136 
L 295.638904 85.406414 
L 297.014795 87.30358 
L 299.766575 90.303872 
L 301.142466 91.940455 
L 302.518356 93.796818 
L 303.894247 95.060454 
L 305.270137 96.576693 
L 306.646027 97.086618 
L 308.021918 96.594466 
L 309.397808 95.939083 
L 312.149589 96.330341 
L 313.525479 96.354636 
L 316.27726 97.383766 
L 319.029041 96.587874 
L 320.404932 97.00078 
L 321.780822 98.459893 
L 323.156712 100.435419 
L 330.036164 114.894497 
L 331.412055 116.539084 
L 332.787945 117.769904 
L 335.539726 119.14454 
L 336.915616 118.071107 
L 338.291507 116.718158 
L 339.667397 114.886784 
L 341.043288 112.436272 
L 342.419178 109.666545 
L 343.795068 107.17764 
L 345.170959 105.128431 
L 347.92274 101.591925 
L 349.29863 100.14005 
L 350.674521 99.124267 
L 352.050411 97.782442 
L 353.426301 96.086673 
L 354.802192 93.937598 
L 356.178082 92.254214 
L 357.553973 91.290362 
L 358.929863 90.745565 
L 360.305753 91.767402 
L 361.681644 94.319859 
L 367.185205 109.011094 
L 368.561096 111.447684 
L 369.936986 112.950994 
L 371.312877 113.918711 
L 372.688767 115.18644 
L 374.064658 115.898524 
L 375.440548 116.338999 
L 376.816438 116.476068 
L 378.192329 116.30401 
L 379.568219 115.885255 
L 380.94411 114.968775 
L 382.32 113.791239 
L 383.69589 112.824 
L 385.071781 112.257482 
L 386.447671 112.067366 
L 387.823562 112.07258 
L 391.951233 112.484265 
L 393.327123 112.258537 
L 396.078904 110.983051 
L 397.454795 109.469044 
L 400.206575 107.008476 
L 401.582466 105.267215 
L 402.958356 104.628123 
L 404.334247 105.018853 
L 405.710137 106.636281 
L 407.086027 108.426037 
L 408.461918 110.436093 
L 409.837808 113.539756 
L 411.213699 115.993666 
L 412.589589 117.499966 
L 415.34137 119.934019 
L 416.71726 120.824161 
L 422.220822 122.354239 
L 429.100274 124.821473 
L 430.476164 124.974096 
L 433.227945 124.910131 
L 441.483288 124.935184 
L 444.235068 124.656702 
L 448.36274 124.527222 
L 451.114521 124.743811 
L 455.242192 125.621326 
L 460.745753 126.511518 
L 463.497534 126.552287 
L 464.873425 126.672995 
L 475.880548 126.639956 
L 477.256438 126.75114 
L 480.008219 127.227222 
L 482.76 127.340859 
L 484.13589 127.384017 
L 485.511781 127.218093 
L 486.887671 126.786727 
L 488.263562 126.614288 
L 491.015342 126.738801 
L 492.391233 126.641961 
L 495.143014 127.323037 
L 497.894795 127.412659 
L 499.270685 127.600552 
L 500.646575 127.91702 
L 503.398356 128.122002 
L 504.774247 128.357949 
L 507.526027 128.41188 
L 511.653699 128.175699 
L 514.405479 128.004599 
L 521.284932 127.864203 
L 524.036712 127.734017 
L 528.164384 127.77681 
L 529.540274 127.980627 
L 532.292055 128.079345 
L 535.043836 127.89594 
L 536.419726 127.981827 
L 537.795616 127.842341 
L 541.923288 128.025276 
L 543.299178 128.208934 
L 544.675068 128.219158 
L 547.426849 128.413403 
L 550.17863 128.445227 
L 558.433973 128.359267 
L 562.561644 128.476905 
L 572.192877 128.520556 
L 580.448219 128.356846 
L 584.57589 128.300688 
L 590.079452 128.429937 
L 594.207123 128.505226 
L 596.958904 128.537612 
L 609.341918 128.624318 
L 617.59726 128.537943 
L 623.100822 128.291449 
L 624.476712 127.968302 
L 625.852603 127.831291 
L 628.604384 127.997459 
L 629.980274 127.827692 
L 631.356164 127.827516 
L 632.732055 128.140446 
L 634.107945 128.288231 
L 636.859726 128.298329 
L 638.235616 128.444687 
L 639.611507 128.12726 
L 643.739178 128.003725 
L 646.490959 128.10002 
L 647.866849 128.469904 
L 649 128.537664 
L 649 128.537664 
" style="fill:none;stroke:#ff0000;stroke-dasharray:7.4,3.2;stroke-dashoffset:0;stroke-width:2;"/>
   </g>
   <g id="line2d_59">
    <path clip-path="url(#p6109fefffe)" d="M 247.48274 96.23817 
L 251.610411 88.279909 
L 252.986301 87.504253 
L 254.362192 85.588133 
L 255.738082 84.017412 
L 257.113973 82.754375 
L 258.489863 81.864111 
L 259.865753 81.260161 
L 261.241644 81.511865 
L 262.617534 82.646281 
L 263.993425 84.5095 
L 265.369315 86.69526 
L 266.745205 88.32604 
L 268.121096 89.661206 
L 269.496986 90.638846 
L 270.872877 90.930822 
L 272.248767 90.402243 
L 273.624658 90.07467 
L 275.000548 89.421991 
L 279.128219 86.145025 
L 280.50411 84.899898 
L 281.88 83.442197 
L 283.25589 81.475043 
L 288.759452 72.474608 
L 291.511233 69.442824 
L 292.887123 68.375544 
L 294.263014 67.604759 
L 295.638904 67.191728 
L 297.014795 66.246535 
L 298.390685 65.774914 
L 299.766575 63.867571 
L 301.142466 62.811336 
L 302.518356 61.202045 
L 303.894247 60.404847 
L 305.270137 59.226426 
L 306.646027 59.807334 
L 308.021918 59.410941 
L 310.773699 60.429126 
L 312.149589 61.219879 
L 313.525479 61.355773 
L 314.90137 61.796017 
L 316.27726 61.062857 
L 317.653151 59.661256 
L 319.029041 58.420759 
L 320.404932 57.572829 
L 321.780822 56.476037 
L 323.156712 56.034017 
L 325.908493 55.571483 
L 327.284384 55.195525 
L 328.660274 54.112883 
L 330.036164 53.383238 
L 331.412055 53.066921 
L 332.787945 52.495279 
L 334.163836 51.600542 
L 335.539726 51.751799 
L 339.667397 51.563322 
L 341.043288 51.89836 
L 343.795068 51.766248 
L 345.170959 51.349913 
L 346.546849 51.811352 
L 347.92274 53.065735 
L 350.674521 56.533562 
L 353.426301 60.677754 
L 354.802192 62.404146 
L 361.681644 75.69258 
L 363.057534 77.147388 
L 364.433425 78.406461 
L 365.809315 79.29094 
L 367.185205 79.364796 
L 368.561096 79.007523 
L 369.936986 78.460888 
L 371.312877 78.274121 
L 372.688767 78.489079 
L 374.064658 79.223852 
L 375.440548 80.211557 
L 376.816438 81.550138 
L 378.192329 82.649493 
L 379.568219 83.535275 
L 380.94411 83.567366 
L 382.32 83.366319 
L 385.071781 82.658113 
L 386.447671 82.48613 
L 387.823562 83.157838 
L 389.199452 84.235825 
L 391.951233 85.545689 
L 394.703014 86.529564 
L 396.078904 86.644234 
L 400.206575 88.348322 
L 401.582466 88.385927 
L 402.958356 88.201651 
L 407.086027 86.485094 
L 408.461918 86.419892 
L 409.837808 86.679566 
L 412.589589 87.578497 
L 413.965479 88.176913 
L 415.34137 88.400538 
L 416.71726 88.909246 
L 420.844932 91.59423 
L 422.220822 92.725949 
L 423.596712 93.389711 
L 424.972603 93.840106 
L 426.348493 94.934368 
L 427.724384 96.365496 
L 429.100274 97.587882 
L 431.852055 100.607284 
L 433.227945 101.243095 
L 435.979726 101.864866 
L 437.355616 101.864866 
L 437.355616 101.864866 
" style="fill:none;stroke:#bf00bf;stroke-linecap:round;stroke-width:2.5;"/>
   </g>
   <g id="patch_3">
    <path d="M 81 133.875 
L 81 18.36 
" style="fill:none;stroke:#000000;stroke-linecap:square;stroke-linejoin:miter;stroke-width:1.5;"/>
   </g>
   <g id="patch_4">
    <path d="M 583.2 133.875 
L 583.2 18.36 
" style="fill:none;stroke:#000000;stroke-linecap:square;stroke-linejoin:miter;stroke-width:1.5;"/>
   </g>
   <g id="patch_5">
    <path d="M 81 133.875 
L 583.2 133.875 
" style="fill:none;stroke:#000000;stroke-linecap:square;stroke-linejoin:miter;stroke-width:1.5;"/>
   </g>
   <g id="patch_6">
    <path d="M 81 18.36 
L 583.2 18.36 
" style="fill:none;stroke:#000000;stroke-linecap:square;stroke-linejoin:miter;stroke-width:1.5;"/>
   </g>
   <g id="legend_1">
    <g id="line2d_60">
     <path d="M 470.592188 39.839375 
L 490.592188 39.839375 
" style="fill:none;stroke:#000000;stroke-linecap:round;stroke-width:2;"/>
    </g>
    <g id="line2d_61"/>
    <g id="text_19">
     <text style="fill:#262626;font-family:Arial;font-size:10px;font-stretch:normal;font-style:normal;font-weight:normal;text-anchor:start;" transform="rotate(-0, 498.592188, 43.339375)" x="498.592188" y="43.339375">1979-2014 mean</text>
    </g>
    <g id="line2d_62">
     <path d="M 470.592188 53.984687 
L 490.592188 53.984687 
" style="fill:none;stroke:#0000ff;stroke-linecap:round;stroke-width:2.5;"/>
    </g>
    <g id="line2d_63"/>
    <g id="text_20">
     <text style="fill:#262626;font-family:Arial;font-size:10px;font-stretch:normal;font-style:normal;font-weight:normal;text-anchor:start;" transform="rotate(-0, 498.592188, 57.484687)" x="498.592188" y="57.484687">2011/12</text>
    </g>
    <g id="line2d_64">
     <path d="M 470.592188 68.13 
L 490.592188 68.13 
" style="fill:none;stroke:#ffa500;stroke-linecap:round;stroke-width:2.5;"/>
    </g>
    <g id="line2d_65"/>
    <g id="text_21">
     <text style="fill:#262626;font-family:Arial;font-size:10px;font-stretch:normal;font-style:normal;font-weight:normal;text-anchor:start;" transform="rotate(-0, 498.592188, 71.63)" x="498.592188" y="71.63">2016/17</text>
    </g>
    <g id="line2d_66">
     <path d="M 470.592188 82.275312 
L 490.592188 82.275312 
" style="fill:none;stroke:#ff0000;stroke-linecap:round;stroke-width:2.5;"/>
    </g>
    <g id="line2d_67"/>
    <g id="text_22">
     <text style="fill:#262626;font-family:Arial;font-size:10px;font-stretch:normal;font-style:normal;font-weight:normal;text-anchor:start;" transform="rotate(-0, 498.592188, 85.775312)" x="498.592188" y="85.775312">2017/18</text>
    </g>
    <g id="line2d_68">
     <path d="M 470.592188 96.420625 
L 490.592188 96.420625 
" style="fill:none;stroke:#ff0000;stroke-dasharray:7.4,3.2;stroke-dashoffset:0;stroke-width:2;"/>
    </g>
    <g id="line2d_69"/>
    <g id="text_23">
     <text style="fill:#262626;font-family:Arial;font-size:10px;font-stretch:normal;font-style:normal;font-weight:normal;text-anchor:start;" transform="rotate(-0, 498.592188, 99.920625)" x="498.592188" y="99.920625">2018/19</text>
    </g>
    <g id="line2d_70">
     <path d="M 470.592188 110.565937 
L 490.592188 110.565937 
" style="fill:none;stroke:#bf00bf;stroke-linecap:round;stroke-width:2.5;"/>
    </g>
    <g id="line2d_71"/>
    <g id="text_24">
     <text style="fill:#262626;font-family:Arial;font-size:10px;font-stretch:normal;font-style:normal;font-weight:normal;text-anchor:start;" transform="rotate(-0, 498.592188, 114.065937)" x="498.592188" y="114.065937">2019/20</text>
    </g>
   </g>
  </g>
 </g>
 <defs>
  <clipPath id="p6109fefffe">
   <rect height="115.515" width="502.2" x="81" y="18.36"/>
  </clipPath>
 </defs>
</svg>
