<?xml version="1.0" encoding="utf-8" standalone="no"?>
<!DOCTYPE svg PUBLIC "-//W3C//DTD SVG 1.1//EN"
  "http://www.w3.org/Graphics/SVG/1.1/DTD/svg11.dtd">
<!-- Created with matplotlib (http://matplotlib.org/) -->
<svg height="162pt" version="1.1" viewBox="0 0 306 162" width="306pt" xmlns="http://www.w3.org/2000/svg" xmlns:xlink="http://www.w3.org/1999/xlink">
 <defs>
  <style type="text/css">
*{stroke-linecap:butt;stroke-linejoin:round;}
  </style>
 </defs>
 <g id="figure_1">
  <g id="patch_1">
   <path d="M 0 162 
L 306 162 
L 306 0 
L 0 0 
z
" style="fill:#ffffff;"/>
  </g>
  <g id="axes_1">
   <g id="patch_2">
    <path d="M 40.425 123.7 
L 253.275 123.7 
L 253.275 12.8 
L 40.425 12.8 
z
" style="fill:#ffffff;"/>
   </g>
   <g id="matplotlib.axis_1">
    <g id="xtick_1">
     <g id="line2d_1">
      <defs>
       <path d="M 0 0 
L 0 2 
" id="mf190891384" style="stroke:#808080;"/>
      </defs>
      <g>
       <use style="fill:#808080;stroke:#808080;" x="59.775" xlink:href="#mf190891384" y="123.7"/>
      </g>
     </g>
     <g id="text_1">
      <text style="fill:#808080;font-family:Arial;font-size:10px;font-style:normal;font-weight:normal;text-anchor:middle;" transform="rotate(-0, 59.775, 136.357812)" x="59.775" y="136.357812">17-Jul</text>
     </g>
    </g>
    <g id="xtick_2">
     <g id="line2d_2">
      <g>
       <use style="fill:#808080;stroke:#808080;" x="98.475" xlink:href="#mf190891384" y="123.7"/>
      </g>
     </g>
     <g id="text_2">
      <text style="fill:#808080;font-family:Arial;font-size:10px;font-style:normal;font-weight:normal;text-anchor:middle;" transform="rotate(-0, 98.475, 136.357812)" x="98.475" y="136.357812">19-Jul</text>
     </g>
    </g>
    <g id="xtick_3">
     <g id="line2d_3">
      <g>
       <use style="fill:#808080;stroke:#808080;" x="137.175" xlink:href="#mf190891384" y="123.7"/>
      </g>
     </g>
     <g id="text_3">
      <text style="fill:#808080;font-family:Arial;font-size:10px;font-style:normal;font-weight:normal;text-anchor:middle;" transform="rotate(-0, 137.175, 136.357812)" x="137.175" y="136.357812">21-Jul</text>
     </g>
    </g>
    <g id="xtick_4">
     <g id="line2d_4">
      <g>
       <use style="fill:#808080;stroke:#808080;" x="175.875" xlink:href="#mf190891384" y="123.7"/>
      </g>
     </g>
     <g id="text_4">
      <text style="fill:#808080;font-family:Arial;font-size:10px;font-style:normal;font-weight:normal;text-anchor:middle;" transform="rotate(-0, 175.875, 136.357812)" x="175.875" y="136.357812">23-Jul</text>
     </g>
    </g>
    <g id="xtick_5">
     <g id="line2d_5">
      <g>
       <use style="fill:#808080;stroke:#808080;" x="214.575" xlink:href="#mf190891384" y="123.7"/>
      </g>
     </g>
     <g id="text_5">
      <text style="fill:#808080;font-family:Arial;font-size:10px;font-style:normal;font-weight:normal;text-anchor:middle;" transform="rotate(-0, 214.575, 136.357812)" x="214.575" y="136.357812">25-Jul</text>
     </g>
    </g>
    <g id="xtick_6">
     <g id="line2d_6">
      <g>
       <use style="fill:#808080;stroke:#808080;" x="253.275" xlink:href="#mf190891384" y="123.7"/>
      </g>
     </g>
     <g id="text_6">
      <text style="fill:#808080;font-family:Arial;font-size:10px;font-style:normal;font-weight:normal;text-anchor:middle;" transform="rotate(-0, 253.275, 136.357812)" x="253.275" y="136.357812">27-Jul</text>
     </g>
    </g>
    <g id="text_7">
     <text style="fill:#262626;font-family:Arial;font-size:10px;font-style:normal;font-weight:normal;text-anchor:middle;" transform="rotate(-0, 146.85, 149.625)" x="146.85" y="149.625">Time (UTC)</text>
    </g>
   </g>
   <g id="matplotlib.axis_2">
    <g id="ytick_1">
     <g id="line2d_7">
      <defs>
       <path d="M 0 0 
L -2 0 
" id="m5d5e60e310" style="stroke:#808080;"/>
      </defs>
      <g>
       <use style="fill:#808080;stroke:#808080;" x="40.425" xlink:href="#m5d5e60e310" y="103.360429"/>
      </g>
     </g>
     <g id="text_8">
      <text style="fill:#808080;font-family:Arial;font-size:10px;font-style:normal;font-weight:normal;text-anchor:end;" transform="rotate(-0, 34.925, 106.939335)" x="34.925" y="106.939335">0</text>
     </g>
    </g>
    <g id="ytick_2">
     <g id="line2d_8">
      <g>
       <use style="fill:#808080;stroke:#808080;" x="40.425" xlink:href="#m5d5e60e310" y="72.763105"/>
      </g>
     </g>
     <g id="text_9">
      <text style="fill:#808080;font-family:Arial;font-size:10px;font-style:normal;font-weight:normal;text-anchor:end;" transform="rotate(-0, 34.925, 76.342012)" x="34.925" y="76.342012">10</text>
     </g>
    </g>
    <g id="ytick_3">
     <g id="line2d_9">
      <g>
       <use style="fill:#808080;stroke:#808080;" x="40.425" xlink:href="#m5d5e60e310" y="42.165781"/>
      </g>
     </g>
     <g id="text_10">
      <text style="fill:#808080;font-family:Arial;font-size:10px;font-style:normal;font-weight:normal;text-anchor:end;" transform="rotate(-0, 34.925, 45.744688)" x="34.925" y="45.744688">20</text>
     </g>
    </g>
    <g id="text_11">
     <text style="fill:#262626;font-family:Arial;font-size:10px;font-style:normal;font-weight:normal;text-anchor:middle;" transform="rotate(-90, 17.698438, 68.25)" x="17.698438" y="68.25">Temperature (°C)</text>
    </g>
   </g>
   <g id="line2d_10">
    <path clip-path="url(#p86be8655e3)" d="M 46.774891 109.29631 
L 48.387391 109.265713 
L 67.320996 109.357504 
L 67.323292 109.388102 
L 67.340648 106.328369 
L 67.375194 106.66494 
L 68.543641 105.441047 
L 72.171766 105.624631 
L 76.606141 105.257463 
L 77.412391 105.104476 
L 77.815516 105.012685 
L 78.218641 105.073879 
L 80.234266 104.829101 
L 80.637391 104.829101 
L 81.443641 104.614919 
L 85.474891 104.400738 
L 94.343641 104.308946 
L 95.553016 104.155959 
L 96.359266 104.155959 
L 100.390516 103.635805 
L 104.824891 103.727597 
L 110.468641 104.064167 
L 114.096766 103.972376 
L 117.321766 103.57461 
L 118.128016 103.666402 
L 118.934266 103.360429 
L 119.740516 103.268637 
L 121.756141 103.207442 
L 123.368641 103.329832 
L 124.578016 103.697 
L 126.190516 104.002973 
L 129.818641 104.247751 
L 132.237391 103.972376 
L 132.640516 104.186557 
L 133.446766 104.217154 
L 135.462391 103.849986 
L 138.284266 103.391026 
L 138.687391 103.207442 
L 139.493641 103.176845 
L 140.299891 103.268637 
L 141.509266 103.268637 
L 143.524891 103.360429 
L 144.331141 103.360429 
L 145.137391 103.329832 
L 145.943641 103.207442 
L 147.153016 103.146248 
L 147.959266 102.687288 
L 148.362391 102.840275 
L 149.168641 102.870872 
L 149.571766 102.993261 
L 150.781141 102.870872 
L 152.393641 102.901469 
L 152.796766 98.189481 
L 153.199891 90.876721 
L 153.603016 88.092364 
L 154.006141 89.408049 
L 154.409266 84.971437 
L 154.812391 82.860222 
L 155.215516 81.605732 
L 155.618641 80.840799 
L 156.424891 71.263836 
L 156.828016 67.500366 
L 157.231141 65.450345 
L 157.634266 65.84811 
L 158.037391 64.471231 
L 158.843641 68.785453 
L 160.053016 79.34153 
L 160.859266 89.989399 
L 161.262391 92.71256 
L 161.665516 94.640192 
L 162.068641 95.741695 
L 162.471766 97.608132 
L 163.278016 103.299234 
L 163.681141 104.614919 
L 164.084266 105.135074 
L 164.487391 105.349255 
L 164.890516 103.176845 
L 165.293641 102.656691 
L 165.696766 102.901469 
L 166.099891 104.706711 
L 166.906141 104.125362 
L 167.712391 103.023858 
L 168.518641 102.595496 
L 168.921766 101.708174 
L 170.534266 92.467782 
L 170.937391 83.68635 
L 171.340516 85.338605 
L 171.743641 80.932591 
L 172.146766 65.725721 
L 172.549891 67.347379 
L 172.953016 64.838398 
L 173.356141 60.921941 
L 173.759266 59.361477 
L 174.162391 50.794227 
L 174.565516 62.513002 
L 174.968641 64.777204 
L 175.371766 65.083177 
L 175.774891 64.991385 
L 176.178016 65.174969 
L 176.581141 62.115237 
L 176.984266 68.663064 
L 177.387391 72.640716 
L 177.790516 74.109388 
L 178.193641 76.037019 
L 178.596766 80.657215 
L 180.209266 94.028245 
L 180.612391 95.34393 
L 181.015516 98.250676 
L 182.224891 101.310408 
L 183.434266 103.085053 
L 184.240516 104.002973 
L 184.643641 104.614919 
L 186.256141 103.911181 
L 187.062391 103.972376 
L 187.465516 103.727597 
L 188.674891 101.493992 
L 189.078016 99.964126 
L 190.287391 90.019996 
L 191.496766 76.648965 
L 191.899891 74.721334 
L 192.303016 68.969037 
L 193.109266 61.931653 
L 193.512391 72.36534 
L 193.915516 52.140509 
L 194.721766 54.833074 
L 195.124891 63.583908 
L 195.528016 60.58537 
L 195.931141 59.728645 
L 196.334266 62.054042 
L 196.737391 65.266761 
L 197.140516 66.062291 
L 197.543641 68.907842 
L 197.946766 82.799027 
L 198.753016 87.449821 
L 199.156141 81.819913 
L 199.962391 82.615444 
L 200.365516 84.451283 
L 201.171766 100.667865 
L 201.574891 104.676114 
L 202.381141 109.020934 
L 202.784266 110.153035 
L 203.993641 112.325445 
L 204.396766 113.243365 
L 204.799891 113.794116 
L 205.203016 113.671727 
L 205.606141 113.671727 
L 206.412391 113.18217 
L 206.815516 112.662015 
L 207.218641 113.273962 
L 207.621766 113.64113 
L 208.428016 111.958277 
L 208.831141 110.979163 
L 210.040516 108.959739 
L 210.443641 106.940316 
L 210.846766 103.023858 
L 211.653016 92.37599 
L 212.459266 84.267699 
L 213.265516 78.362416 
L 213.668641 76.587771 
L 214.878016 68.387688 
L 215.281141 66.704835 
L 216.087391 69.091426 
L 216.490516 69.672776 
L 216.893641 73.344454 
L 217.699891 85.583384 
L 218.103016 90.081191 
L 218.909266 94.609594 
L 219.312391 93.844661 
L 219.715516 93.599883 
L 220.118641 94.273024 
L 221.328016 98.587247 
L 222.537391 101.493992 
L 223.343641 102.962664 
L 223.746766 103.299234 
L 224.149891 103.329832 
L 224.553016 103.085053 
L 224.956141 102.626093 
L 225.762391 100.882046 
L 226.165516 100.759657 
L 226.568641 100.178307 
L 227.374891 97.914105 
L 227.778016 95.527514 
L 228.181141 91.91703 
L 228.584266 86.868472 
L 229.390516 69.917554 
L 229.793641 65.725721 
L 230.599891 56.332342 
L 231.406141 55.812188 
L 231.809266 60.891344 
L 232.212391 54.098738 
L 232.615516 56.730108 
L 233.018641 61.839861 
L 233.421766 63.277935 
L 233.824891 62.543599 
L 234.228016 62.941364 
L 235.034266 70.743682 
L 235.437391 70.345917 
L 235.840516 70.345917 
L 236.243641 70.774279 
L 236.646766 73.038481 
L 237.049891 72.487729 
L 237.453016 75.945227 
L 237.856141 83.808739 
L 239.065516 92.345392 
L 239.871766 96.751407 
L 240.678016 99.35218 
L 241.484266 101.126824 
L 242.290516 102.136536 
L 242.693641 102.870872 
L 243.499891 103.329832 
L 243.903016 103.360429 
L 244.306141 103.23804 
L 244.709266 102.809677 
L 245.112391 102.656691 
L 245.515516 102.197731 
L 245.918641 101.310408 
L 246.321766 99.68875 
L 246.724891 98.832025 
L 247.531141 95.34393 
L 247.934266 95.558111 
L 248.337391 93.018534 
L 248.740516 87.327431 
L 249.143641 86.715485 
L 249.546766 77.842261 
L 249.949891 72.518327 
L 250.353016 70.254125 
L 250.756141 61.717471 
L 251.159266 46.204628 
L 251.562391 49.72332 
L 251.965516 49.968099 
L 252.368641 49.294958 
L 252.771766 55.689799 
L 253.174891 53.700973 
L 253.981141 51.375576 
L 254.384266 45.806863 
L 254.787391 50.763629 
L 255.190516 59.147296 
L 255.593641 61.289109 
L 255.996766 65.633929 
L 256.803016 78.515402 
L 257.206141 82.462457 
L 258.818641 89.805815 
L 259.624891 95.099152 
L 260.028016 97.149172 
L 260.834266 99.933529 
L 261.640516 101.249214 
L 262.446766 101.922355 
L 263.253016 103.482818 
L 264.059266 108.256001 
L 264.462391 108.959739 
L 264.865516 108.286598 
L 265.268641 104.706711 
L 265.671766 103.452221 
L 266.074891 103.23804 
L 266.478016 102.503704 
L 266.881141 98.097689 
L 267.284266 97.822313 
L 268.090516 87.266237 
L 268.493641 76.220603 
L 269.299891 73.497441 
L 269.703016 62.451807 
L 270.106141 63.461519 
L 270.509266 55.047255 
L 270.912391 57.801014 
L 271.315516 57.770417 
L 272.121766 68.326493 
L 272.524891 67.806339 
L 272.928016 63.492116 
L 273.734266 67.010808 
L 274.540516 75.639254 
L 274.943641 78.362416 
L 275.346766 83.166195 
L 275.749891 85.613981 
L 276.959266 89.836412 
L 278.571766 96.59842 
L 278.974891 98.923817 
L 279.781141 101.4022 
L 280.184266 102.289523 
L 280.990516 103.054456 
L 282.199891 103.513416 
L 282.603016 103.391026 
L 283.006141 103.697 
L 283.812391 102.901469 
L 284.215516 103.788792 
L 285.021766 102.687288 
L 285.424891 101.157422 
L 285.828016 99.168596 
L 286.231141 98.067092 
L 287.037391 93.355104 
L 287.440516 92.161809 
L 288.649891 83.074403 
L 289.053016 72.854897 
L 289.456141 71.998172 
L 289.859266 66.857822 
L 290.262391 67.041406 
L 290.665516 65.970499 
L 291.068641 65.725721 
L 291.471766 64.960788 
L 291.874891 69.122024 
L 292.278016 69.458594 
L 292.681141 63.767492 
L 293.084266 64.287647 
L 293.890516 75.057905 
L 294.293641 77.719872 
L 294.696766 79.310933 
L 295.503016 83.961726 
L 296.309266 92.345392 
L 297.115516 97.240964 
L 297.518641 98.220079 
L 297.921766 99.749945 
L 298.324891 100.300697 
L 298.728016 101.157422 
L 300.743641 103.452221 
L 301.549891 103.727597 
L 301.953016 103.605208 
L 303.162391 103.513416 
L 303.565516 103.268637 
L 303.968641 102.809677 
L 304.774891 100.790254 
L 305.581141 95.129749 
L 305.984266 90.081191 
L 306.387391 90.172982 
L 307 67.98644 
L 307 67.98644 
" style="fill:none;stroke:#ff0000;stroke-linecap:round;"/>
   </g>
   <g id="patch_3">
    <path d="M 40.425 123.7 
L 40.425 12.8 
" style="fill:none;stroke:#000000;stroke-linecap:square;stroke-linejoin:miter;stroke-width:0.5;"/>
   </g>
   <g id="patch_4">
    <path d="M 253.275 123.7 
L 253.275 12.8 
" style="fill:none;stroke:#000000;stroke-linecap:square;stroke-linejoin:miter;stroke-width:0.5;"/>
   </g>
   <g id="patch_5">
    <path d="M 40.425 123.7 
L 253.275 123.7 
" style="fill:none;stroke:#000000;stroke-linecap:square;stroke-linejoin:miter;stroke-width:0.5;"/>
   </g>
   <g id="patch_6">
    <path d="M 40.425 12.8 
L 253.275 12.8 
" style="fill:none;stroke:#000000;stroke-linecap:square;stroke-linejoin:miter;stroke-width:0.5;"/>
   </g>
  </g>
  <g id="axes_2">
   <g id="matplotlib.axis_3">
    <g id="ytick_4">
     <g id="line2d_11">
      <defs>
       <path d="M 0 0 
L 2 0 
" id="m0c2b8d301b" style="stroke:#808080;"/>
      </defs>
      <g>
       <use style="fill:#808080;stroke:#808080;" x="253.275" xlink:href="#m0c2b8d301b" y="119.014342"/>
      </g>
     </g>
     <g id="text_12">
      <text style="fill:#808080;font-family:Arial;font-size:10px;font-style:normal;font-weight:normal;text-anchor:start;" transform="rotate(-0, 258.775, 122.593249)" x="258.775" y="122.593249">0</text>
     </g>
    </g>
    <g id="ytick_5">
     <g id="line2d_12">
      <g>
       <use style="fill:#808080;stroke:#808080;" x="253.275" xlink:href="#m0c2b8d301b" y="87.851934"/>
      </g>
     </g>
     <g id="text_13">
      <text style="fill:#808080;font-family:Arial;font-size:10px;font-style:normal;font-weight:normal;text-anchor:start;" transform="rotate(-0, 258.775, 91.43084)" x="258.775" y="91.43084">200</text>
     </g>
    </g>
    <g id="ytick_6">
     <g id="line2d_13">
      <g>
       <use style="fill:#808080;stroke:#808080;" x="253.275" xlink:href="#m0c2b8d301b" y="56.689526"/>
      </g>
     </g>
     <g id="text_14">
      <text style="fill:#808080;font-family:Arial;font-size:10px;font-style:normal;font-weight:normal;text-anchor:start;" transform="rotate(-0, 258.775, 60.268432)" x="258.775" y="60.268432">400</text>
     </g>
    </g>
    <g id="ytick_7">
     <g id="line2d_14">
      <g>
       <use style="fill:#808080;stroke:#808080;" x="253.275" xlink:href="#m0c2b8d301b" y="25.527117"/>
      </g>
     </g>
     <g id="text_15">
      <text style="fill:#808080;font-family:Arial;font-size:10px;font-style:normal;font-weight:normal;text-anchor:start;" transform="rotate(-0, 258.775, 29.106023)" x="258.775" y="29.106023">600</text>
     </g>
    </g>
    <g id="text_16">
     <!-- PAR ($\mu$mol $m^{-2}$ $s^{-1}$) -->
     <g style="fill:#262626;" transform="translate(288.557813 115.8)rotate(-90)">
      <text>
       <tspan style="font-family:Arial;font-size:10px;font-style:regular;font-weight:regular;" x="0 6.669922 13.339844 20.561523 23.339844 33.032227 41.362305 46.923828 49.145508 72.721439 91.76612" y="-0.9765625">PAR (mol  )</tspan>
       <tspan style="font-family:DejaVu Sans;font-size:10px;font-style:oblique;font-weight:oblique;" x="26.669922 51.923828 75.499759" y="-0.9765625">μms</tspan>
       <tspan style="font-family:DejaVu Sans;font-size:7px;font-style:book;font-weight:book;" x="62.129154 67.994388 81.173835 87.039069" y="-4.8046875">−2−1</tspan>
      </text>
     </g>
    </g>
   </g>
   <g id="line2d_15">
    <path clip-path="url(#p86be8655e3)" d="M 46.774891 118.54379 
L 47.178016 118.62637 
L 48.387391 118.564046 
L 52.821766 118.540674 
L 53.224891 118.409792 
L 54.434266 118.632603 
L 54.837391 118.037401 
L 55.240516 117.965727 
L 55.643641 118.545348 
L 56.046766 118.579627 
L 56.449891 118.230608 
L 56.853016 118.292933 
L 57.256141 118.132446 
L 57.659266 117.129017 
L 58.062391 117.372083 
L 58.465516 116.934252 
L 58.868641 116.909322 
L 59.271766 117.48271 
L 59.674891 117.479594 
L 60.078016 118.548464 
L 60.481141 118.631045 
L 60.884266 117.231853 
L 61.287391 118.554697 
L 61.690516 118.057656 
L 62.093641 118.188539 
L 62.496766 118.610789 
L 62.899891 118.604557 
L 63.303016 117.702405 
L 63.706141 118.373955 
L 64.109266 118.621696 
L 64.915516 118.641952 
L 65.318641 118.478349 
L 67.312206 118.532883 
L 67.312766 118.520418 
L 67.3229 117.914309 
L 67.34188 118.582743 
L 67.375194 118.56872 
L 70.559266 118.515744 
L 71.768641 118.347467 
L 73.784266 117.861333 
L 74.590516 117.30041 
L 75.396766 116.980995 
L 75.799891 116.658464 
L 76.203016 116.610163 
L 76.606141 116.315678 
L 77.009266 116.284515 
L 77.412391 115.793707 
L 78.218641 117.169528 
L 78.621766 116.96074 
L 79.024891 117.104087 
L 79.428016 115.930822 
L 79.831141 116.733254 
L 80.234266 116.55407 
L 80.637391 116.150517 
L 81.040516 116.393584 
L 81.443641 116.490187 
L 81.846766 116.23933 
L 82.249891 116.781556 
L 82.653016 117.099412 
L 83.056141 116.817393 
L 83.862391 117.875356 
L 84.668641 118.207236 
L 85.071766 118.152702 
L 87.490516 118.557813 
L 89.909266 118.475233 
L 91.924891 118.074796 
L 92.731141 117.608918 
L 93.134266 117.912751 
L 93.537391 117.661894 
L 93.940516 117.77252 
L 94.746766 117.164853 
L 95.149891 116.550954 
L 95.553016 116.645999 
L 95.956141 117.024623 
L 96.359266 116.273609 
L 97.165516 115.681523 
L 97.971766 115.02867 
L 98.374891 116.125587 
L 98.778016 114.057961 
L 99.181141 114.84637 
L 99.584266 114.514491 
L 99.987391 114.751325 
L 100.390516 115.909008 
L 100.793641 116.195703 
L 101.196766 116.698975 
L 101.599891 116.829858 
L 102.003016 117.370525 
L 102.406141 116.854787 
L 102.809266 117.322224 
L 103.212391 117.964169 
L 104.824891 118.377071 
L 105.631141 118.528209 
L 107.243641 118.592092 
L 109.259266 118.453419 
L 110.871766 118.098168 
L 111.274891 117.884705 
L 111.678016 117.111877 
L 112.081141 117.672801 
L 112.484266 117.114994 
L 112.887391 117.107203 
L 113.290516 116.862578 
L 113.693641 117.770962 
L 114.096766 116.069495 
L 114.903016 115.690872 
L 115.306141 115.965101 
L 115.709266 114.427236 
L 116.112391 114.383608 
L 116.515516 115.276411 
L 116.918641 115.776568 
L 117.321766 115.399503 
L 117.724891 116.656906 
L 118.128016 116.438769 
L 118.531141 114.918044 
L 118.934266 115.125274 
L 119.337391 115.693988 
L 119.740516 115.678407 
L 120.143641 115.955752 
L 120.949891 117.292619 
L 121.353016 117.130575 
L 121.756141 117.365851 
L 122.159266 117.372083 
L 122.562391 117.599569 
L 122.965516 117.568407 
L 123.771766 118.271119 
L 125.787391 118.565604 
L 127.803016 118.557813 
L 129.012391 118.487698 
L 129.415516 118.313188 
L 129.818641 117.841078 
L 130.221766 117.724219 
L 130.624891 116.974763 
L 131.028016 117.629173 
L 131.834266 117.87224 
L 132.237391 116.67872 
L 132.640516 116.233097 
L 133.446766 115.636337 
L 133.849891 115.201622 
L 134.253016 115.500781 
L 134.656141 114.947648 
L 135.059266 114.981927 
L 135.462391 114.833905 
L 135.865516 114.198192 
L 136.268641 114.827673 
L 136.671766 114.899346 
L 137.074891 113.958242 
L 137.478016 114.159239 
L 137.881141 114.012776 
L 138.284266 113.196321 
L 138.687391 112.69928 
L 139.090516 113.440946 
L 139.493641 114.827673 
L 140.299891 115.997821 
L 140.703016 115.466502 
L 141.106141 115.809289 
L 141.509266 117.066692 
L 141.912391 117.518547 
L 142.315516 117.277038 
L 142.718641 117.887821 
L 143.121766 117.985983 
L 143.524891 118.207236 
L 144.331141 118.397327 
L 145.137391 118.515744 
L 147.153016 118.459651 
L 148.765516 118.043633 
L 149.168641 117.53257 
L 149.571766 117.63229 
L 149.974891 117.15083 
L 150.378016 117.196016 
L 150.781141 115.926148 
L 151.184266 116.342166 
L 151.587391 115.282644 
L 151.990516 115.684639 
L 152.393641 114.368027 
L 152.796766 34.360102 
L 153.199891 30.746821 
L 153.603016 62.208388 
L 154.006141 66.099015 
L 154.409266 27.001099 
L 154.812391 41.063136 
L 155.215516 46.681718 
L 156.021766 17.840909 
L 158.843641 17.840909 
L 159.246766 49.491009 
L 160.859266 100.896518 
L 161.262391 86.100607 
L 161.665516 85.863772 
L 162.471766 101.279816 
L 162.874891 108.86942 
L 163.681141 112.816139 
L 164.084266 114.115612 
L 164.487391 114.911811 
L 164.890516 115.108134 
L 165.293641 115.558431 
L 166.099891 115.46027 
L 166.906141 113.746337 
L 168.518641 108.076337 
L 168.921766 102.736658 
L 169.728016 98.986262 
L 170.131141 99.115586 
L 170.534266 84.181002 
L 170.937391 85.855982 
L 171.340516 44.310259 
L 171.743641 33.548321 
L 172.146766 48.057538 
L 172.549891 43.905147 
L 172.953016 81.46364 
L 173.356141 84.09998 
L 173.759266 17.840909 
L 176.581141 17.840909 
L 176.984266 19.562632 
L 177.387391 17.840909 
L 177.790516 19.92879 
L 178.193641 36.837513 
L 178.596766 37.797315 
L 178.999891 57.52312 
L 179.403016 64.637498 
L 180.209266 89.732585 
L 180.612391 92.007441 
L 181.821766 108.666865 
L 182.224891 109.277648 
L 182.628016 111.44811 
L 183.031141 112.322215 
L 183.434266 114.392957 
L 183.837391 115.309132 
L 184.643641 115.990031 
L 185.046766 115.985356 
L 185.449891 115.834219 
L 185.853016 115.354317 
L 186.256141 115.555315 
L 186.659266 114.729511 
L 187.062391 111.940476 
L 188.674891 95.43998 
L 190.287391 51.243895 
L 190.690516 43.295922 
L 191.093641 31.698832 
L 191.496766 27.868972 
L 191.899891 25.622162 
L 192.303016 17.840909 
L 197.140516 17.840909 
L 197.543641 105.880945 
L 197.946766 103.969132 
L 198.349891 106.25801 
L 198.753016 63.180655 
L 199.559266 89.576773 
L 199.962391 96.691151 
L 200.365516 99.109354 
L 201.171766 106.580541 
L 202.381141 113.225925 
L 203.187391 115.475851 
L 203.590516 116.167656 
L 203.993641 116.426304 
L 204.799891 116.223749 
L 205.606141 115.017763 
L 206.009266 113.554688 
L 206.412391 112.69928 
L 206.815516 110.969767 
L 207.218641 110.831094 
L 207.621766 108.2898 
L 208.024891 106.63975 
L 208.428016 104.430335 
L 208.831141 103.425348 
L 209.234266 101.744136 
L 210.040516 99.382025 
L 210.443641 82.016773 
L 210.846766 28.478197 
L 211.249891 17.840909 
L 216.490516 17.840909 
L 216.893641 61.772114 
L 217.296766 53.849072 
L 217.699891 79.2589 
L 218.103016 71.36702 
L 218.506141 81.667754 
L 218.909266 86.792412 
L 219.312391 79.651546 
L 219.715516 95.633187 
L 220.118641 97.618233 
L 220.521766 106.387334 
L 220.924891 108.6544 
L 221.328016 112.27703 
L 222.134266 115.656593 
L 223.343641 117.051111 
L 223.746766 116.857904 
L 224.149891 116.231539 
L 224.553016 115.059833 
L 224.956141 113.464317 
L 225.359266 109.090673 
L 225.762391 107.007466 
L 226.165516 105.68618 
L 226.971766 97.753789 
L 227.778016 81.131761 
L 228.181141 79.944473 
L 228.584266 62.097762 
L 229.390516 83.655916 
L 229.793641 51.273499 
L 230.196766 38.817884 
L 230.599891 21.301495 
L 231.003016 68.802354 
L 231.406141 27.239491 
L 231.809266 33.464183 
L 232.212391 17.840909 
L 232.615516 36.150382 
L 233.018641 24.980217 
L 233.421766 22.336087 
L 233.824891 17.840909 
L 234.228016 36.828165 
L 234.631141 28.778914 
L 235.034266 39.635898 
L 235.437391 25.439862 
L 235.840516 17.840909 
L 236.646766 47.55894 
L 237.049891 27.833135 
L 237.453016 64.836937 
L 237.856141 80.161052 
L 238.259266 73.814827 
L 239.065516 100.383896 
L 239.468641 101.423163 
L 239.871766 106.728563 
L 241.081141 115.41041 
L 241.484266 115.274853 
L 241.887391 116.022751 
L 242.290516 116.406049 
L 243.096766 116.71144 
L 243.499891 116.522908 
L 243.903016 115.885637 
L 244.306141 115.02867 
L 244.709266 111.909313 
L 245.112391 110.813955 
L 245.515516 108.777491 
L 245.918641 103.035817 
L 246.321766 99.791811 
L 246.724891 100.986889 
L 247.531141 81.647498 
L 248.337391 58.975288 
L 248.740516 54.238602 
L 249.143641 39.126392 
L 249.546766 17.840909 
L 249.949891 35.276277 
L 250.353016 17.840909 
L 251.562391 17.840909 
L 251.965516 37.750572 
L 252.368641 17.840909 
L 252.771766 48.553021 
L 253.174891 17.840909 
L 253.981141 17.840909 
L 254.384266 21.437051 
L 255.190516 54.930408 
L 255.593641 50.548973 
L 256.803016 77.5512 
L 257.206141 73.674596 
L 257.609266 79.219947 
L 258.415516 93.138637 
L 258.818641 96.787755 
L 259.221766 104.201292 
L 260.028016 113.219693 
L 260.431141 114.967904 
L 261.237391 116.907764 
L 261.640516 117.280154 
L 262.446766 116.800253 
L 262.849891 116.494862 
L 263.656141 115.329388 
L 264.059266 114.634466 
L 264.462391 112.973509 
L 264.865516 110.589585 
L 265.671766 98.542198 
L 266.074891 97.633814 
L 266.478016 93.470516 
L 266.881141 99.3197 
L 267.687391 52.163186 
L 268.090516 44.048495 
L 268.493641 26.301503 
L 268.896766 31.578857 
L 269.299891 27.833135 
L 269.703016 17.840909 
L 270.106141 17.840909 
L 270.509266 51.725354 
L 270.912391 17.840909 
L 271.718641 17.840909 
L 272.121766 35.39781 
L 272.524891 17.840909 
L 273.331141 17.840909 
L 273.734266 23.870835 
L 274.137391 60.090902 
L 274.540516 54.399089 
L 274.943641 59.506607 
L 275.346766 71.90613 
L 275.749891 71.917036 
L 276.153016 71.376369 
L 276.556141 75.055091 
L 276.959266 86.980945 
L 278.168641 101.631951 
L 278.571766 102.384523 
L 278.974891 110.221869 
L 279.378016 111.544713 
L 279.781141 114.553444 
L 280.184266 116.205051 
L 280.990516 116.904647 
L 281.393641 117.04332 
L 281.796766 117.038646 
L 282.603016 115.083205 
L 283.006141 113.13088 
L 283.409266 112.577747 
L 283.812391 105.888736 
L 284.215516 108.060756 
L 285.021766 109.500459 
L 285.424891 96.789313 
L 285.828016 95.354284 
L 286.231141 90.67369 
L 286.634266 78.712 
L 287.440516 70.429031 
L 288.246766 46.474488 
L 289.053016 17.840909 
L 289.456141 17.840909 
L 289.859266 27.926623 
L 290.262391 19.534586 
L 290.665516 17.840909 
L 291.471766 17.840909 
L 291.874891 45.773334 
L 292.278016 17.840909 
L 292.681141 26.346688 
L 293.084266 21.720629 
L 293.487391 36.162847 
L 293.890516 37.864315 
L 294.293641 66.984027 
L 294.696766 42.984298 
L 295.099891 64.531546 
L 295.503016 72.498215 
L 295.906141 84.911761 
L 296.309266 101.826716 
L 296.712391 106.427846 
L 297.115516 108.846048 
L 297.518641 107.392322 
L 297.921766 108.584284 
L 298.324891 110.313798 
L 298.728016 112.962603 
L 299.131141 114.096914 
L 299.937391 117.007483 
L 300.340516 117.728893 
L 300.743641 117.71487 
L 301.549891 117.340921 
L 302.356141 115.994705 
L 302.759266 114.586164 
L 303.162391 114.14989 
L 303.565516 113.260204 
L 303.968641 108.37238 
L 304.371766 105.237442 
L 304.774891 103.250838 
L 305.178016 84.372651 
L 305.581141 83.054481 
L 305.984266 67.264489 
L 306.387391 74.403797 
L 306.790516 41.591339 
L 307 47.272857 
L 307 47.272857 
" style="fill:none;stroke:#000000;stroke-dasharray:3.7,1.6;stroke-dashoffset:0;"/>
   </g>
   <g id="patch_7">
    <path d="M 40.425 123.7 
L 40.425 12.8 
" style="fill:none;stroke:#000000;stroke-linecap:square;stroke-linejoin:miter;stroke-width:0.5;"/>
   </g>
   <g id="patch_8">
    <path d="M 253.275 123.7 
L 253.275 12.8 
" style="fill:none;stroke:#000000;stroke-linecap:square;stroke-linejoin:miter;stroke-width:0.5;"/>
   </g>
   <g id="patch_9">
    <path d="M 40.425 123.7 
L 253.275 123.7 
" style="fill:none;stroke:#000000;stroke-linecap:square;stroke-linejoin:miter;stroke-width:0.5;"/>
   </g>
   <g id="patch_10">
    <path d="M 40.425 12.8 
L 253.275 12.8 
" style="fill:none;stroke:#000000;stroke-linecap:square;stroke-linejoin:miter;stroke-width:0.5;"/>
   </g>
  </g>
 </g>
 <defs>
  <clipPath id="p86be8655e3">
   <rect height="110.9" width="212.85" x="40.425" y="12.8"/>
  </clipPath>
 </defs>
</svg>
