<?xml version="1.0" encoding="utf-8" standalone="no"?>
<!DOCTYPE svg PUBLIC "-//W3C//DTD SVG 1.1//EN"
  "http://www.w3.org/Graphics/SVG/1.1/DTD/svg11.dtd">
<!-- Created with matplotlib (http://matplotlib.org/) -->
<svg height="162pt" version="1.1" viewBox="0 0 306 162" width="306pt" xmlns="http://www.w3.org/2000/svg" xmlns:xlink="http://www.w3.org/1999/xlink">
 <defs>
  <style type="text/css">
*{stroke-linecap:butt;stroke-linejoin:round;}
  </style>
 </defs>
 <g id="figure_1">
  <g id="patch_1">
   <path d="M 0 162 
L 306 162 
L 306 0 
L 0 0 
z
" style="fill:#ffffff;"/>
  </g>
  <g id="axes_1">
   <g id="patch_2">
    <path d="M 40.425 123.7 
L 256.075 123.7 
L 256.075 12.8 
L 40.425 12.8 
z
" style="fill:#ffffff;"/>
   </g>
   <g id="matplotlib.axis_1">
    <g id="xtick_1">
     <g id="line2d_1">
      <defs>
       <path d="M 0 0 
L 0 2 
" id="m4a84960b0b" style="stroke:#808080;"/>
      </defs>
      <g>
       <use style="fill:#808080;stroke:#808080;" x="60.029545" xlink:href="#m4a84960b0b" y="123.7"/>
      </g>
     </g>
     <g id="text_1">
      <text style="fill:#808080;font-family:Arial;font-size:10px;font-style:normal;font-weight:normal;text-anchor:middle;" transform="rotate(-0, 60.029545, 136.357812)" x="60.029545" y="136.357812">17-Jul</text>
     </g>
    </g>
    <g id="xtick_2">
     <g id="line2d_2">
      <g>
       <use style="fill:#808080;stroke:#808080;" x="99.238636" xlink:href="#m4a84960b0b" y="123.7"/>
      </g>
     </g>
     <g id="text_2">
      <text style="fill:#808080;font-family:Arial;font-size:10px;font-style:normal;font-weight:normal;text-anchor:middle;" transform="rotate(-0, 99.238636, 136.357812)" x="99.238636" y="136.357812">19-Jul</text>
     </g>
    </g>
    <g id="xtick_3">
     <g id="line2d_3">
      <g>
       <use style="fill:#808080;stroke:#808080;" x="138.447727" xlink:href="#m4a84960b0b" y="123.7"/>
      </g>
     </g>
     <g id="text_3">
      <text style="fill:#808080;font-family:Arial;font-size:10px;font-style:normal;font-weight:normal;text-anchor:middle;" transform="rotate(-0, 138.447727, 136.357812)" x="138.447727" y="136.357812">21-Jul</text>
     </g>
    </g>
    <g id="xtick_4">
     <g id="line2d_4">
      <g>
       <use style="fill:#808080;stroke:#808080;" x="177.656818" xlink:href="#m4a84960b0b" y="123.7"/>
      </g>
     </g>
     <g id="text_4">
      <text style="fill:#808080;font-family:Arial;font-size:10px;font-style:normal;font-weight:normal;text-anchor:middle;" transform="rotate(-0, 177.656818, 136.357812)" x="177.656818" y="136.357812">23-Jul</text>
     </g>
    </g>
    <g id="xtick_5">
     <g id="line2d_5">
      <g>
       <use style="fill:#808080;stroke:#808080;" x="216.865909" xlink:href="#m4a84960b0b" y="123.7"/>
      </g>
     </g>
     <g id="text_5">
      <text style="fill:#808080;font-family:Arial;font-size:10px;font-style:normal;font-weight:normal;text-anchor:middle;" transform="rotate(-0, 216.865909, 136.357812)" x="216.865909" y="136.357812">25-Jul</text>
     </g>
    </g>
    <g id="xtick_6">
     <g id="line2d_6">
      <g>
       <use style="fill:#808080;stroke:#808080;" x="256.075" xlink:href="#m4a84960b0b" y="123.7"/>
      </g>
     </g>
     <g id="text_6">
      <text style="fill:#808080;font-family:Arial;font-size:10px;font-style:normal;font-weight:normal;text-anchor:middle;" transform="rotate(-0, 256.075, 136.357812)" x="256.075" y="136.357812">27-Jul</text>
     </g>
    </g>
    <g id="text_7">
     <text style="fill:#262626;font-family:Arial;font-size:10px;font-style:normal;font-weight:normal;text-anchor:middle;" transform="rotate(-0, 148.25, 149.625)" x="148.25" y="149.625">Time (UTC)</text>
    </g>
   </g>
   <g id="matplotlib.axis_2">
    <g id="ytick_1">
     <g id="line2d_7">
      <defs>
       <path d="M 0 0 
L -2 0 
" id="m2805bd0366" style="stroke:#808080;"/>
      </defs>
      <g>
       <use style="fill:#808080;stroke:#808080;" x="40.425" xlink:href="#m2805bd0366" y="103.360429"/>
      </g>
     </g>
     <g id="text_8">
      <text style="fill:#808080;font-family:Arial;font-size:10px;font-style:normal;font-weight:normal;text-anchor:end;" transform="rotate(-0, 34.925, 106.939335)" x="34.925" y="106.939335">0</text>
     </g>
    </g>
    <g id="ytick_2">
     <g id="line2d_8">
      <g>
       <use style="fill:#808080;stroke:#808080;" x="40.425" xlink:href="#m2805bd0366" y="72.763105"/>
      </g>
     </g>
     <g id="text_9">
      <text style="fill:#808080;font-family:Arial;font-size:10px;font-style:normal;font-weight:normal;text-anchor:end;" transform="rotate(-0, 34.925, 76.342012)" x="34.925" y="76.342012">10</text>
     </g>
    </g>
    <g id="ytick_3">
     <g id="line2d_9">
      <g>
       <use style="fill:#808080;stroke:#808080;" x="40.425" xlink:href="#m2805bd0366" y="42.165781"/>
      </g>
     </g>
     <g id="text_10">
      <text style="fill:#808080;font-family:Arial;font-size:10px;font-style:normal;font-weight:normal;text-anchor:end;" transform="rotate(-0, 34.925, 45.744688)" x="34.925" y="45.744688">20</text>
     </g>
    </g>
    <g id="text_11">
     <text style="fill:#262626;font-family:Arial;font-size:10px;font-style:normal;font-weight:normal;text-anchor:middle;" transform="rotate(-90, 17.698438, 68.25)" x="17.698438" y="68.25">Temperature (°C)</text>
    </g>
   </g>
   <g id="line2d_10">
    <path clip-path="url(#pf0cea38c8e)" d="M 46.858422 109.29631 
L 48.492134 109.265713 
L 67.674808 109.357504 
L 67.677133 109.388102 
L 67.694719 106.328369 
L 67.729719 106.66494 
L 68.913536 105.441047 
L 72.589388 105.624631 
L 77.082096 105.257463 
L 77.898952 105.104476 
L 78.307381 105.012685 
L 78.715809 105.073879 
L 80.757949 104.829101 
L 81.166377 104.829101 
L 81.983233 104.614919 
L 86.067513 104.400738 
L 95.05293 104.308946 
L 96.278214 104.155959 
L 97.09507 104.155959 
L 101.17935 103.635805 
L 105.672059 103.727597 
L 111.390051 104.064167 
L 115.065903 103.972376 
L 118.333327 103.57461 
L 119.150184 103.666402 
L 119.96704 103.360429 
L 120.783896 103.268637 
L 122.826036 103.207442 
L 124.459748 103.329832 
L 125.685032 103.697 
L 127.318744 104.002973 
L 130.994596 104.247751 
L 133.445165 103.972376 
L 133.853593 104.186557 
L 134.670449 104.217154 
L 136.712589 103.849986 
L 139.571585 103.391026 
L 139.980013 103.207442 
L 140.796869 103.176845 
L 141.613725 103.268637 
L 142.839009 103.268637 
L 144.881149 103.360429 
L 145.698006 103.360429 
L 146.514862 103.329832 
L 147.331718 103.207442 
L 148.557002 103.146248 
L 149.373858 102.687288 
L 149.782286 102.840275 
L 150.599142 102.870872 
L 151.00757 102.993261 
L 152.232854 102.870872 
L 153.866566 102.901469 
L 154.274994 98.189481 
L 154.683422 90.876721 
L 155.09185 88.092364 
L 155.500278 89.408049 
L 155.908706 84.971437 
L 156.317134 82.860222 
L 156.725562 81.605732 
L 157.13399 80.840799 
L 157.950846 71.263836 
L 158.359274 67.500366 
L 158.767702 65.450345 
L 159.176131 65.84811 
L 159.584559 64.471231 
L 160.401415 68.785453 
L 161.626699 79.34153 
L 162.443555 89.989399 
L 162.851983 92.71256 
L 163.260411 94.640192 
L 163.668839 95.741695 
L 164.077267 97.608132 
L 164.894123 103.299234 
L 165.302551 104.614919 
L 165.710979 105.135074 
L 166.119407 105.349255 
L 166.527835 103.176845 
L 166.936263 102.656691 
L 167.344691 102.901469 
L 167.753119 104.706711 
L 168.569975 104.125362 
L 169.386831 103.023858 
L 170.203687 102.595496 
L 170.612115 101.708174 
L 172.245827 92.467782 
L 172.654256 83.68635 
L 173.062684 85.338605 
L 173.471112 80.932591 
L 173.87954 65.725721 
L 174.287968 67.347379 
L 174.696396 64.838398 
L 175.104824 60.921941 
L 175.513252 59.361477 
L 175.92168 50.794227 
L 176.330108 62.513002 
L 176.738536 64.777204 
L 177.146964 65.083177 
L 177.555392 64.991385 
L 177.96382 65.174969 
L 178.372248 62.115237 
L 178.780676 68.663064 
L 179.189104 72.640716 
L 179.597532 74.109388 
L 180.00596 76.037019 
L 180.414388 80.657215 
L 182.0481 94.028245 
L 182.456528 95.34393 
L 182.864956 98.250676 
L 184.09024 101.310408 
L 185.315524 103.085053 
L 186.132381 104.002973 
L 186.540809 104.614919 
L 188.174521 103.911181 
L 188.991377 103.972376 
L 189.399805 103.727597 
L 190.625089 101.493992 
L 191.033517 99.964126 
L 192.258801 90.019996 
L 193.484085 76.648965 
L 193.892513 74.721334 
L 194.300941 68.969037 
L 195.117797 61.931653 
L 195.526225 72.36534 
L 195.934653 52.140509 
L 196.751509 54.833074 
L 197.159937 63.583908 
L 197.568365 60.58537 
L 197.976793 59.728645 
L 198.385221 62.054042 
L 198.793649 65.266761 
L 199.202077 66.062291 
L 199.610506 68.907842 
L 200.018934 82.799027 
L 200.83579 87.449821 
L 201.244218 81.819913 
L 202.061074 82.615444 
L 202.469502 84.451283 
L 203.286358 100.667865 
L 203.694786 104.676114 
L 204.511642 109.020934 
L 204.92007 110.153035 
L 206.145354 112.325445 
L 206.553782 113.243365 
L 206.96221 113.794116 
L 207.370638 113.671727 
L 207.779066 113.671727 
L 208.595922 113.18217 
L 209.00435 112.662015 
L 209.412778 113.273962 
L 209.821206 113.64113 
L 210.638062 111.958277 
L 211.04649 110.979163 
L 212.271774 108.959739 
L 212.680202 106.940316 
L 213.088631 103.023858 
L 213.905487 92.37599 
L 214.722343 84.267699 
L 215.539199 78.362416 
L 215.947627 76.587771 
L 217.172911 68.387688 
L 217.581339 66.704835 
L 218.398195 69.091426 
L 218.806623 69.672776 
L 219.215051 73.344454 
L 220.031907 85.583384 
L 220.440335 90.081191 
L 221.257191 94.609594 
L 221.665619 93.844661 
L 222.074047 93.599883 
L 222.482475 94.273024 
L 223.707759 98.587247 
L 224.933043 101.493992 
L 225.749899 102.962664 
L 226.158327 103.299234 
L 226.566756 103.329832 
L 226.975184 103.085053 
L 227.383612 102.626093 
L 228.200468 100.882046 
L 228.608896 100.759657 
L 229.017324 100.178307 
L 229.83418 97.914105 
L 230.242608 95.527514 
L 230.651036 91.91703 
L 231.059464 86.868472 
L 231.87632 69.917554 
L 232.284748 65.725721 
L 232.693176 60.279397 
L 233.101604 56.332342 
L 233.91846 55.812188 
L 234.326888 60.891344 
L 234.735316 54.098738 
L 235.143744 56.730108 
L 235.552172 61.839861 
L 235.9606 63.277935 
L 236.369028 62.543599 
L 236.777456 62.941364 
L 237.594312 70.743682 
L 238.00274 70.345917 
L 238.411168 70.345917 
L 238.819596 70.774279 
L 239.228024 73.038481 
L 239.636452 72.487729 
L 240.044881 75.945227 
L 240.453309 83.808739 
L 241.678593 92.345392 
L 242.495449 96.751407 
L 243.312305 99.35218 
L 244.129161 101.126824 
L 244.946017 102.136536 
L 245.354445 102.870872 
L 246.171301 103.329832 
L 246.579729 103.360429 
L 246.988157 103.23804 
L 247.396585 102.809677 
L 247.805013 102.656691 
L 248.213441 102.197731 
L 248.621869 101.310408 
L 249.030297 99.68875 
L 249.438725 98.832025 
L 250.255581 95.34393 
L 250.664009 95.558111 
L 251.072437 93.018534 
L 251.480865 87.327431 
L 251.889293 86.715485 
L 252.297721 77.842261 
L 252.706149 72.518327 
L 253.114577 70.254125 
L 253.523006 61.717471 
L 253.931434 46.204628 
L 254.339862 49.72332 
L 254.74829 49.968099 
L 255.156718 49.294958 
L 255.565146 55.689799 
L 255.973574 53.700973 
L 256.79043 51.375576 
L 257.198858 45.806863 
L 257.607286 50.763629 
L 258.015714 59.147296 
L 258.424142 61.289109 
L 258.83257 65.633929 
L 259.649426 78.515402 
L 260.057854 82.462457 
L 261.691566 89.805815 
L 262.508422 95.099152 
L 262.91685 97.149172 
L 263.733706 99.933529 
L 264.550562 101.249214 
L 265.367418 101.922355 
L 265.775846 102.840275 
L 266.184274 103.482818 
L 267.001131 108.256001 
L 267.409559 108.959739 
L 267.817987 108.286598 
L 268.226415 104.706711 
L 268.634843 103.452221 
L 269.043271 103.23804 
L 269.451699 102.503704 
L 269.860127 98.097689 
L 270.268555 97.822313 
L 271.085411 87.266237 
L 271.493839 76.220603 
L 272.310695 73.497441 
L 272.719123 62.451807 
L 273.127551 63.461519 
L 273.535979 55.047255 
L 273.944407 57.801014 
L 274.352835 57.770417 
L 275.169691 68.326493 
L 275.578119 67.806339 
L 275.986547 63.492116 
L 276.803403 67.010808 
L 277.620259 75.639254 
L 278.028687 78.362416 
L 278.437115 83.166195 
L 278.845543 85.613981 
L 280.070827 89.836412 
L 281.70454 96.59842 
L 282.112968 98.923817 
L 282.929824 101.4022 
L 283.338252 102.289523 
L 284.155108 103.054456 
L 285.380392 103.513416 
L 285.78882 103.391026 
L 286.197248 103.697 
L 287.014104 102.901469 
L 287.422532 103.788792 
L 288.239388 102.687288 
L 288.647816 101.157422 
L 289.056244 99.168596 
L 289.464672 98.067092 
L 290.281528 93.355104 
L 290.689956 92.161809 
L 291.91524 83.074403 
L 292.323668 72.854897 
L 292.732096 71.998172 
L 293.140524 66.857822 
L 293.548952 67.041406 
L 293.957381 65.970499 
L 294.365809 65.725721 
L 294.774237 64.960788 
L 295.182665 69.122024 
L 295.591093 69.458594 
L 295.999521 63.767492 
L 296.407949 64.287647 
L 297.224805 75.057905 
L 297.633233 77.719872 
L 298.041661 79.310933 
L 298.858517 83.961726 
L 299.675373 92.345392 
L 300.492229 97.240964 
L 300.900657 98.220079 
L 301.309085 99.749945 
L 301.717513 100.300697 
L 302.125941 101.157422 
L 304.168081 103.452221 
L 304.984937 103.727597 
L 305.393365 103.605208 
L 306.618649 103.513416 
L 307 103.284865 
L 307 103.284865 
" style="fill:none;stroke:#ff0000;stroke-linecap:round;stroke-width:1.5;"/>
   </g>
   <g id="patch_3">
    <path d="M 40.425 123.7 
L 40.425 12.8 
" style="fill:none;stroke:#000000;stroke-linecap:square;stroke-linejoin:miter;stroke-width:0.5;"/>
   </g>
   <g id="patch_4">
    <path d="M 256.075 123.7 
L 256.075 12.8 
" style="fill:none;stroke:#000000;stroke-linecap:square;stroke-linejoin:miter;stroke-width:0.5;"/>
   </g>
   <g id="patch_5">
    <path d="M 40.425 123.7 
L 256.075 123.7 
" style="fill:none;stroke:#000000;stroke-linecap:square;stroke-linejoin:miter;stroke-width:0.5;"/>
   </g>
   <g id="patch_6">
    <path d="M 40.425 12.8 
L 256.075 12.8 
" style="fill:none;stroke:#000000;stroke-linecap:square;stroke-linejoin:miter;stroke-width:0.5;"/>
   </g>
  </g>
  <g id="axes_2">
   <g id="matplotlib.axis_3">
    <g id="ytick_4">
     <g id="line2d_11">
      <defs>
       <path d="M 0 0 
L 2 0 
" id="mc19de3b4d4" style="stroke:#808080;"/>
      </defs>
      <g>
       <use style="fill:#808080;stroke:#808080;" x="256.075" xlink:href="#mc19de3b4d4" y="119.014342"/>
      </g>
     </g>
     <g id="text_12">
      <text style="fill:#808080;font-family:Arial;font-size:10px;font-style:normal;font-weight:normal;text-anchor:start;" transform="rotate(-0, 261.575, 122.593249)" x="261.575" y="122.593249">0</text>
     </g>
    </g>
    <g id="ytick_5">
     <g id="line2d_12">
      <g>
       <use style="fill:#808080;stroke:#808080;" x="256.075" xlink:href="#mc19de3b4d4" y="87.851934"/>
      </g>
     </g>
     <g id="text_13">
      <text style="fill:#808080;font-family:Arial;font-size:10px;font-style:normal;font-weight:normal;text-anchor:start;" transform="rotate(-0, 261.575, 91.43084)" x="261.575" y="91.43084">200</text>
     </g>
    </g>
    <g id="ytick_6">
     <g id="line2d_13">
      <g>
       <use style="fill:#808080;stroke:#808080;" x="256.075" xlink:href="#mc19de3b4d4" y="56.689526"/>
      </g>
     </g>
     <g id="text_14">
      <text style="fill:#808080;font-family:Arial;font-size:10px;font-style:normal;font-weight:normal;text-anchor:start;" transform="rotate(-0, 261.575, 60.268432)" x="261.575" y="60.268432">400</text>
     </g>
    </g>
    <g id="ytick_7">
     <g id="line2d_14">
      <g>
       <use style="fill:#808080;stroke:#808080;" x="256.075" xlink:href="#mc19de3b4d4" y="25.527117"/>
      </g>
     </g>
     <g id="text_15">
      <text style="fill:#808080;font-family:Arial;font-size:10px;font-style:normal;font-weight:normal;text-anchor:start;" transform="rotate(-0, 261.575, 29.106023)" x="261.575" y="29.106023">600</text>
     </g>
    </g>
    <g id="text_16">
     <!-- PAR ($\mu$mol m-2 s-1) -->
     <g style="fill:#262626;" transform="translate(289.557813 112.85)rotate(-90)">
      <text>
       <tspan style="font-family:Arial;font-size:10px;font-style:regular;font-weight:regular;" x="0 6.669922 13.339844 20.561523 23.339844 33.032227 41.362305 46.923828 49.145508 51.923828 60.253906 63.583984 69.145508 71.923828 76.923828 80.253906 85.81543" y="-0.71875">PAR (mol m-2 s-1)</tspan>
       <tspan style="font-family:DejaVu Sans;font-size:10px;font-style:oblique;font-weight:oblique;" x="26.669922" y="-0.71875">μ</tspan>
      </text>
     </g>
    </g>
   </g>
   <g id="line2d_15">
    <path clip-path="url(#pf0cea38c8e)" d="M 46.858422 118.54379 
L 47.26685 118.62637 
L 48.492134 118.564046 
L 52.984843 118.540674 
L 53.393271 118.409792 
L 54.618555 118.632603 
L 55.026983 118.037401 
L 55.435411 117.965727 
L 55.843839 118.545348 
L 56.252267 118.579627 
L 56.660695 118.230608 
L 57.069123 118.292933 
L 57.477551 118.132446 
L 57.885979 117.129017 
L 58.294407 117.372083 
L 58.702835 116.934252 
L 59.111263 116.909322 
L 59.519691 117.48271 
L 59.928119 117.479594 
L 60.336547 118.548464 
L 60.744975 118.631045 
L 61.153403 117.231853 
L 61.561831 118.554697 
L 61.970259 118.057656 
L 62.378687 118.188539 
L 62.787115 118.610789 
L 63.195543 118.604557 
L 63.603971 117.702405 
L 64.012399 118.373955 
L 64.420827 118.621696 
L 65.237684 118.641952 
L 65.646112 118.478349 
L 67.665902 118.532883 
L 67.666469 118.520418 
L 67.676736 117.914309 
L 67.695966 118.582743 
L 67.729719 118.56872 
L 70.955676 118.515744 
L 72.18096 118.347467 
L 74.2231 117.861333 
L 75.039956 117.30041 
L 75.856812 116.980995 
L 76.26524 116.658464 
L 76.673668 116.610163 
L 77.082096 116.315678 
L 77.490524 116.284515 
L 77.898952 115.793707 
L 78.715809 117.169528 
L 79.124237 116.96074 
L 79.532665 117.104087 
L 79.941093 115.930822 
L 80.349521 116.733254 
L 80.757949 116.55407 
L 81.166377 116.150517 
L 81.574805 116.393584 
L 81.983233 116.490187 
L 82.391661 116.23933 
L 82.800089 116.781556 
L 83.208517 117.099412 
L 83.616945 116.817393 
L 84.433801 117.875356 
L 85.250657 118.207236 
L 85.659085 118.152702 
L 88.109653 118.557813 
L 90.560221 118.475233 
L 92.602362 118.074796 
L 93.419218 117.608918 
L 93.827646 117.912751 
L 94.236074 117.661894 
L 94.644502 117.77252 
L 95.461358 117.164853 
L 95.869786 116.550954 
L 96.278214 116.645999 
L 96.686642 117.024623 
L 97.09507 116.273609 
L 97.911926 115.681523 
L 98.728782 115.02867 
L 99.13721 116.125587 
L 99.545638 114.057961 
L 99.954066 114.84637 
L 100.362494 114.514491 
L 100.770922 114.751325 
L 101.17935 115.909008 
L 101.587778 116.195703 
L 101.996206 116.698975 
L 102.404634 116.829858 
L 102.813062 117.370525 
L 103.22149 116.854787 
L 103.629918 117.322224 
L 104.038346 117.964169 
L 105.672059 118.377071 
L 106.488915 118.528209 
L 108.122627 118.592092 
L 110.164767 118.453419 
L 111.798479 118.098168 
L 112.206907 117.884705 
L 112.615335 117.111877 
L 113.023763 117.672801 
L 113.432191 117.114994 
L 113.840619 117.107203 
L 114.249047 116.862578 
L 114.657475 117.770962 
L 115.065903 116.069495 
L 115.882759 115.690872 
L 116.291187 115.965101 
L 116.699615 114.427236 
L 117.108043 114.383608 
L 117.516471 115.276411 
L 117.924899 115.776568 
L 118.333327 115.399503 
L 118.741756 116.656906 
L 119.150184 116.438769 
L 119.558612 114.918044 
L 119.96704 115.125274 
L 120.375468 115.693988 
L 120.783896 115.678407 
L 121.192324 115.955752 
L 122.00918 117.292619 
L 122.417608 117.130575 
L 122.826036 117.365851 
L 123.234464 117.372083 
L 123.642892 117.599569 
L 124.05132 117.568407 
L 124.868176 118.271119 
L 126.910316 118.565604 
L 128.952456 118.557813 
L 130.17774 118.487698 
L 130.586168 118.313188 
L 130.994596 117.841078 
L 131.403024 117.724219 
L 131.811452 116.974763 
L 132.219881 117.629173 
L 133.036737 117.87224 
L 133.445165 116.67872 
L 133.853593 116.233097 
L 134.670449 115.636337 
L 135.078877 115.201622 
L 135.487305 115.500781 
L 135.895733 114.947648 
L 136.304161 114.981927 
L 136.712589 114.833905 
L 137.121017 114.198192 
L 137.529445 114.827673 
L 137.937873 114.899346 
L 138.346301 113.958242 
L 138.754729 114.159239 
L 139.163157 114.012776 
L 139.571585 113.196321 
L 139.980013 112.69928 
L 140.388441 113.440946 
L 140.796869 114.827673 
L 141.613725 115.997821 
L 142.022153 115.466502 
L 142.430581 115.809289 
L 142.839009 117.066692 
L 143.247437 117.518547 
L 143.655865 117.277038 
L 144.064293 117.887821 
L 144.472721 117.985983 
L 144.881149 118.207236 
L 145.698006 118.397327 
L 146.514862 118.515744 
L 148.557002 118.459651 
L 150.190714 118.043633 
L 150.599142 117.53257 
L 151.00757 117.63229 
L 151.415998 117.15083 
L 151.824426 117.196016 
L 152.232854 115.926148 
L 152.641282 116.342166 
L 153.04971 115.282644 
L 153.458138 115.684639 
L 153.866566 114.368027 
L 154.274994 34.360102 
L 154.683422 30.746821 
L 155.09185 62.208388 
L 155.500278 66.099015 
L 155.908706 27.001099 
L 156.317134 41.063136 
L 156.725562 46.681718 
L 157.542418 17.840909 
L 160.401415 17.840909 
L 160.809843 49.491009 
L 162.443555 100.896518 
L 162.851983 86.100607 
L 163.260411 85.863772 
L 164.077267 101.279816 
L 164.485695 108.86942 
L 165.302551 112.816139 
L 165.710979 114.115612 
L 166.119407 114.911811 
L 166.527835 115.108134 
L 166.936263 115.558431 
L 167.753119 115.46027 
L 168.569975 113.746337 
L 170.203687 108.076337 
L 170.612115 102.736658 
L 171.428971 98.986262 
L 171.837399 99.115586 
L 172.245827 84.181002 
L 172.654256 85.855982 
L 173.062684 44.310259 
L 173.471112 33.548321 
L 173.87954 48.057538 
L 174.287968 43.905147 
L 174.696396 81.46364 
L 175.104824 84.09998 
L 175.513252 17.840909 
L 178.372248 17.840909 
L 178.780676 19.562632 
L 179.189104 17.840909 
L 179.597532 19.92879 
L 180.00596 36.837513 
L 180.414388 37.797315 
L 180.822816 57.52312 
L 181.231244 64.637498 
L 182.0481 89.732585 
L 182.456528 92.007441 
L 183.681812 108.666865 
L 184.09024 109.277648 
L 184.498668 111.44811 
L 184.907096 112.322215 
L 185.315524 114.392957 
L 185.723952 115.309132 
L 186.540809 115.990031 
L 186.949237 115.985356 
L 187.357665 115.834219 
L 187.766093 115.354317 
L 188.174521 115.555315 
L 188.582949 114.729511 
L 188.991377 111.940476 
L 190.216661 101.053888 
L 190.625089 95.43998 
L 192.258801 51.243895 
L 192.667229 43.295922 
L 193.075657 31.698832 
L 193.484085 27.868972 
L 193.892513 25.622162 
L 194.300941 17.840909 
L 199.202077 17.840909 
L 199.610506 105.880945 
L 200.018934 103.969132 
L 200.427362 106.25801 
L 200.83579 63.180655 
L 201.652646 89.576773 
L 202.061074 96.691151 
L 202.469502 99.109354 
L 203.286358 106.580541 
L 204.511642 113.225925 
L 204.92007 114.537862 
L 205.736926 116.167656 
L 206.145354 116.426304 
L 206.96221 116.223749 
L 207.779066 115.017763 
L 208.187494 113.554688 
L 208.595922 112.69928 
L 209.00435 110.969767 
L 209.412778 110.831094 
L 209.821206 108.2898 
L 210.229634 106.63975 
L 210.638062 104.430335 
L 211.04649 103.425348 
L 211.454918 101.744136 
L 212.271774 99.382025 
L 212.680202 82.016773 
L 213.088631 28.478197 
L 213.497059 17.840909 
L 218.806623 17.840909 
L 219.215051 61.772114 
L 219.623479 53.849072 
L 220.031907 79.2589 
L 220.440335 71.36702 
L 220.848763 81.667754 
L 221.257191 86.792412 
L 221.665619 79.651546 
L 222.074047 95.633187 
L 222.482475 97.618233 
L 222.890903 106.387334 
L 223.299331 108.6544 
L 223.707759 112.27703 
L 224.524615 115.656593 
L 225.749899 117.051111 
L 226.158327 116.857904 
L 226.566756 116.231539 
L 226.975184 115.059833 
L 227.383612 113.464317 
L 227.79204 109.090673 
L 228.200468 107.007466 
L 228.608896 105.68618 
L 229.425752 97.753789 
L 230.242608 81.131761 
L 230.651036 79.944473 
L 231.059464 62.097762 
L 231.87632 83.655916 
L 232.284748 51.273499 
L 232.693176 38.817884 
L 233.101604 21.301495 
L 233.510032 68.802354 
L 233.91846 27.239491 
L 234.326888 33.464183 
L 234.735316 17.840909 
L 235.143744 36.150382 
L 235.552172 24.980217 
L 235.9606 22.336087 
L 236.369028 17.840909 
L 236.777456 36.828165 
L 237.185884 28.778914 
L 237.594312 39.635898 
L 238.00274 25.439862 
L 238.411168 17.840909 
L 239.228024 47.55894 
L 239.636452 27.833135 
L 240.044881 64.836937 
L 240.453309 80.161052 
L 240.861737 73.814827 
L 241.678593 100.383896 
L 242.087021 101.423163 
L 242.495449 106.728563 
L 243.720733 115.41041 
L 244.129161 115.274853 
L 244.537589 116.022751 
L 244.946017 116.406049 
L 245.762873 116.71144 
L 246.171301 116.522908 
L 246.579729 115.885637 
L 246.988157 115.02867 
L 247.396585 111.909313 
L 247.805013 110.813955 
L 248.213441 108.777491 
L 248.621869 103.035817 
L 249.030297 99.791811 
L 249.438725 100.986889 
L 249.847153 89.771538 
L 250.255581 81.647498 
L 251.072437 58.975288 
L 251.480865 54.238602 
L 251.889293 39.126392 
L 252.297721 17.840909 
L 252.706149 35.276277 
L 253.114577 17.840909 
L 254.339862 17.840909 
L 254.74829 37.750572 
L 255.156718 17.840909 
L 255.565146 48.553021 
L 255.973574 17.840909 
L 256.79043 17.840909 
L 257.198858 21.437051 
L 258.015714 54.930408 
L 258.424142 50.548973 
L 259.649426 77.5512 
L 260.057854 73.674596 
L 260.466282 79.219947 
L 261.283138 93.138637 
L 261.691566 96.787755 
L 262.099994 104.201292 
L 262.91685 113.219693 
L 263.325278 114.967904 
L 264.142134 116.907764 
L 264.550562 117.280154 
L 265.367418 116.800253 
L 265.775846 116.494862 
L 266.592702 115.329388 
L 267.001131 114.634466 
L 267.409559 112.973509 
L 267.817987 110.589585 
L 268.634843 98.542198 
L 269.043271 97.633814 
L 269.451699 93.470516 
L 269.860127 99.3197 
L 270.676983 52.163186 
L 271.085411 44.048495 
L 271.493839 26.301503 
L 271.902267 31.578857 
L 272.310695 27.833135 
L 272.719123 17.840909 
L 273.127551 17.840909 
L 273.535979 51.725354 
L 273.944407 17.840909 
L 274.761263 17.840909 
L 275.169691 35.39781 
L 275.578119 17.840909 
L 276.394975 17.840909 
L 276.803403 23.870835 
L 277.211831 60.090902 
L 277.620259 54.399089 
L 278.028687 59.506607 
L 278.437115 71.90613 
L 278.845543 71.917036 
L 279.253971 71.376369 
L 279.662399 75.055091 
L 280.070827 86.980945 
L 281.296112 101.631951 
L 281.70454 102.384523 
L 282.112968 110.221869 
L 282.521396 111.544713 
L 282.929824 114.553444 
L 283.338252 116.205051 
L 284.155108 116.904647 
L 284.563536 117.04332 
L 284.971964 117.038646 
L 285.78882 115.083205 
L 286.197248 113.13088 
L 286.605676 112.577747 
L 287.014104 105.888736 
L 287.422532 108.060756 
L 288.239388 109.500459 
L 288.647816 96.789313 
L 289.056244 95.354284 
L 289.464672 90.67369 
L 289.8731 78.712 
L 290.689956 70.429031 
L 291.506812 46.474488 
L 292.323668 17.840909 
L 292.732096 17.840909 
L 293.140524 27.926623 
L 293.548952 19.534586 
L 293.957381 17.840909 
L 294.774237 17.840909 
L 295.182665 45.773334 
L 295.591093 17.840909 
L 295.999521 26.346688 
L 296.407949 21.720629 
L 296.816377 36.162847 
L 297.224805 37.864315 
L 297.633233 66.984027 
L 298.041661 42.984298 
L 298.450089 64.531546 
L 298.858517 72.498215 
L 299.266945 84.911761 
L 299.675373 101.826716 
L 300.083801 106.427846 
L 300.492229 108.846048 
L 300.900657 107.392322 
L 301.309085 108.584284 
L 301.717513 110.313798 
L 302.125941 112.962603 
L 302.534369 114.096914 
L 303.351225 117.007483 
L 303.759653 117.728893 
L 304.168081 117.71487 
L 304.984937 117.340921 
L 305.801793 115.994705 
L 306.210221 114.586164 
L 306.618649 114.14989 
L 307 113.319187 
L 307 113.319187 
" style="fill:none;stroke:#000000;stroke-dasharray:5.55,2.4;stroke-dashoffset:0;stroke-width:1.5;"/>
   </g>
   <g id="patch_7">
    <path d="M 40.425 123.7 
L 40.425 12.8 
" style="fill:none;stroke:#000000;stroke-linecap:square;stroke-linejoin:miter;stroke-width:0.5;"/>
   </g>
   <g id="patch_8">
    <path d="M 256.075 123.7 
L 256.075 12.8 
" style="fill:none;stroke:#000000;stroke-linecap:square;stroke-linejoin:miter;stroke-width:0.5;"/>
   </g>
   <g id="patch_9">
    <path d="M 40.425 123.7 
L 256.075 123.7 
" style="fill:none;stroke:#000000;stroke-linecap:square;stroke-linejoin:miter;stroke-width:0.5;"/>
   </g>
   <g id="patch_10">
    <path d="M 40.425 12.8 
L 256.075 12.8 
" style="fill:none;stroke:#000000;stroke-linecap:square;stroke-linejoin:miter;stroke-width:0.5;"/>
   </g>
  </g>
 </g>
 <defs>
  <clipPath id="pf0cea38c8e">
   <rect height="110.9" width="215.65" x="40.425" y="12.8"/>
  </clipPath>
 </defs>
</svg>
