<?xml version="1.0" encoding="utf-8" standalone="no"?>
<!DOCTYPE svg PUBLIC "-//W3C//DTD SVG 1.1//EN"
  "http://www.w3.org/Graphics/SVG/1.1/DTD/svg11.dtd">
<!-- Created with matplotlib (http://matplotlib.org/) -->
<svg height="162pt" version="1.1" viewBox="0 0 612 162" width="612pt" xmlns="http://www.w3.org/2000/svg" xmlns:xlink="http://www.w3.org/1999/xlink">
 <defs>
  <style type="text/css">
*{stroke-linecap:butt;stroke-linejoin:round;}
  </style>
 </defs>
 <g id="figure_1">
  <g id="patch_1">
   <path d="M 0 162 
L 612 162 
L 612 0 
L 0 0 
z
" style="fill:#ffffff;"/>
  </g>
  <g id="axes_1">
   <g id="patch_2">
    <path d="M 42.675 121.7 
L 557.275 121.7 
L 557.275 14.8 
L 42.675 14.8 
z
" style="fill:#ffffff;"/>
   </g>
   <g id="matplotlib.axis_1">
    <g id="xtick_1">
     <g id="line2d_1">
      <defs>
       <path d="M 0 0 
L 0 4 
" id="m4e80e1a5c5" style="stroke:#000000;stroke-width:2;"/>
      </defs>
      <g>
       <use style="stroke:#000000;stroke-width:2;" x="42.675" xlink:href="#m4e80e1a5c5" y="121.7"/>
      </g>
     </g>
     <g id="text_1">
      <text style="font-family:Arial;font-size:10px;font-style:normal;font-weight:normal;text-anchor:middle;" transform="rotate(-0, 42.675, 136.357812)" x="42.675" y="136.357812">7/16</text>
     </g>
    </g>
    <g id="xtick_2">
     <g id="line2d_2">
      <g>
       <use style="stroke:#000000;stroke-width:2;" x="89.456818" xlink:href="#m4e80e1a5c5" y="121.7"/>
      </g>
     </g>
     <g id="text_2">
      <text style="font-family:Arial;font-size:10px;font-style:normal;font-weight:normal;text-anchor:middle;" transform="rotate(-0, 89.456818, 136.357812)" x="89.456818" y="136.357812">7/17</text>
     </g>
    </g>
    <g id="xtick_3">
     <g id="line2d_3">
      <g>
       <use style="stroke:#000000;stroke-width:2;" x="136.238636" xlink:href="#m4e80e1a5c5" y="121.7"/>
      </g>
     </g>
     <g id="text_3">
      <text style="font-family:Arial;font-size:10px;font-style:normal;font-weight:normal;text-anchor:middle;" transform="rotate(-0, 136.238636, 136.357812)" x="136.238636" y="136.357812">7/18</text>
     </g>
    </g>
    <g id="xtick_4">
     <g id="line2d_4">
      <g>
       <use style="stroke:#000000;stroke-width:2;" x="183.020455" xlink:href="#m4e80e1a5c5" y="121.7"/>
      </g>
     </g>
     <g id="text_4">
      <text style="font-family:Arial;font-size:10px;font-style:normal;font-weight:normal;text-anchor:middle;" transform="rotate(-0, 183.020455, 136.357812)" x="183.020455" y="136.357812">7/19</text>
     </g>
    </g>
    <g id="xtick_5">
     <g id="line2d_5">
      <g>
       <use style="stroke:#000000;stroke-width:2;" x="229.802273" xlink:href="#m4e80e1a5c5" y="121.7"/>
      </g>
     </g>
     <g id="text_5">
      <text style="font-family:Arial;font-size:10px;font-style:normal;font-weight:normal;text-anchor:middle;" transform="rotate(-0, 229.802273, 136.357812)" x="229.802273" y="136.357812">7/20</text>
     </g>
    </g>
    <g id="xtick_6">
     <g id="line2d_6">
      <g>
       <use style="stroke:#000000;stroke-width:2;" x="276.584091" xlink:href="#m4e80e1a5c5" y="121.7"/>
      </g>
     </g>
     <g id="text_6">
      <text style="font-family:Arial;font-size:10px;font-style:normal;font-weight:normal;text-anchor:middle;" transform="rotate(-0, 276.584091, 136.357812)" x="276.584091" y="136.357812">7/21</text>
     </g>
    </g>
    <g id="xtick_7">
     <g id="line2d_7">
      <g>
       <use style="stroke:#000000;stroke-width:2;" x="323.365909" xlink:href="#m4e80e1a5c5" y="121.7"/>
      </g>
     </g>
     <g id="text_7">
      <text style="font-family:Arial;font-size:10px;font-style:normal;font-weight:normal;text-anchor:middle;" transform="rotate(-0, 323.365909, 136.357812)" x="323.365909" y="136.357812">7/22</text>
     </g>
    </g>
    <g id="xtick_8">
     <g id="line2d_8">
      <g>
       <use style="stroke:#000000;stroke-width:2;" x="370.147727" xlink:href="#m4e80e1a5c5" y="121.7"/>
      </g>
     </g>
     <g id="text_8">
      <text style="font-family:Arial;font-size:10px;font-style:normal;font-weight:normal;text-anchor:middle;" transform="rotate(-0, 370.147727, 136.357812)" x="370.147727" y="136.357812">7/23</text>
     </g>
    </g>
    <g id="xtick_9">
     <g id="line2d_9">
      <g>
       <use style="stroke:#000000;stroke-width:2;" x="416.929545" xlink:href="#m4e80e1a5c5" y="121.7"/>
      </g>
     </g>
     <g id="text_9">
      <text style="font-family:Arial;font-size:10px;font-style:normal;font-weight:normal;text-anchor:middle;" transform="rotate(-0, 416.929545, 136.357812)" x="416.929545" y="136.357812">7/24</text>
     </g>
    </g>
    <g id="xtick_10">
     <g id="line2d_10">
      <g>
       <use style="stroke:#000000;stroke-width:2;" x="463.711364" xlink:href="#m4e80e1a5c5" y="121.7"/>
      </g>
     </g>
     <g id="text_10">
      <text style="font-family:Arial;font-size:10px;font-style:normal;font-weight:normal;text-anchor:middle;" transform="rotate(-0, 463.711364, 136.357812)" x="463.711364" y="136.357812">7/25</text>
     </g>
    </g>
    <g id="xtick_11">
     <g id="line2d_11">
      <g>
       <use style="stroke:#000000;stroke-width:2;" x="510.493182" xlink:href="#m4e80e1a5c5" y="121.7"/>
      </g>
     </g>
     <g id="text_11">
      <text style="font-family:Arial;font-size:10px;font-style:normal;font-weight:normal;text-anchor:middle;" transform="rotate(-0, 510.493182, 136.357812)" x="510.493182" y="136.357812">7/26</text>
     </g>
    </g>
    <g id="xtick_12">
     <g id="line2d_12">
      <g>
       <use style="stroke:#000000;stroke-width:2;" x="557.275" xlink:href="#m4e80e1a5c5" y="121.7"/>
      </g>
     </g>
     <g id="text_12">
      <text style="font-family:Arial;font-size:10px;font-style:normal;font-weight:normal;text-anchor:middle;" transform="rotate(-0, 557.275, 136.357812)" x="557.275" y="136.357812">7/27</text>
     </g>
    </g>
    <g id="text_13">
     <text style="font-family:Arial;font-size:10px;font-style:normal;font-weight:normal;text-anchor:middle;" transform="rotate(-0, 299.975, 149.625)" x="299.975" y="149.625">Time (UTC)</text>
    </g>
   </g>
   <g id="matplotlib.axis_2">
    <g id="ytick_1">
     <g id="line2d_13">
      <defs>
       <path d="M 0 0 
L -4 0 
" id="mb83ad340f8" style="stroke:#000000;stroke-width:2;"/>
      </defs>
      <g>
       <use style="stroke:#000000;stroke-width:2;" x="42.675" xlink:href="#mb83ad340f8" y="121.7"/>
      </g>
     </g>
     <g id="text_14">
      <text style="font-family:Arial;font-size:10px;font-style:normal;font-weight:normal;text-anchor:end;" transform="rotate(-0, 35.175, 125.278906)" x="35.175" y="125.278906">−5</text>
     </g>
    </g>
    <g id="ytick_2">
     <g id="line2d_14">
      <g>
       <use style="stroke:#000000;stroke-width:2;" x="42.675" xlink:href="#mb83ad340f8" y="100.32"/>
      </g>
     </g>
     <g id="text_15">
      <text style="font-family:Arial;font-size:10px;font-style:normal;font-weight:normal;text-anchor:end;" transform="rotate(-0, 35.175, 103.898906)" x="35.175" y="103.898906">0</text>
     </g>
    </g>
    <g id="ytick_3">
     <g id="line2d_15">
      <g>
       <use style="stroke:#000000;stroke-width:2;" x="42.675" xlink:href="#mb83ad340f8" y="78.94"/>
      </g>
     </g>
     <g id="text_16">
      <text style="font-family:Arial;font-size:10px;font-style:normal;font-weight:normal;text-anchor:end;" transform="rotate(-0, 35.175, 82.518906)" x="35.175" y="82.518906">5</text>
     </g>
    </g>
    <g id="ytick_4">
     <g id="line2d_16">
      <g>
       <use style="stroke:#000000;stroke-width:2;" x="42.675" xlink:href="#mb83ad340f8" y="57.56"/>
      </g>
     </g>
     <g id="text_17">
      <text style="font-family:Arial;font-size:10px;font-style:normal;font-weight:normal;text-anchor:end;" transform="rotate(-0, 35.175, 61.138906)" x="35.175" y="61.138906">10</text>
     </g>
    </g>
    <g id="ytick_5">
     <g id="line2d_17">
      <g>
       <use style="stroke:#000000;stroke-width:2;" x="42.675" xlink:href="#mb83ad340f8" y="36.18"/>
      </g>
     </g>
     <g id="text_18">
      <text style="font-family:Arial;font-size:10px;font-style:normal;font-weight:normal;text-anchor:end;" transform="rotate(-0, 35.175, 39.758906)" x="35.175" y="39.758906">15</text>
     </g>
    </g>
    <g id="ytick_6">
     <g id="line2d_18">
      <g>
       <use style="stroke:#000000;stroke-width:2;" x="42.675" xlink:href="#mb83ad340f8" y="14.8"/>
      </g>
     </g>
     <g id="text_19">
      <text style="font-family:Arial;font-size:10px;font-style:normal;font-weight:normal;text-anchor:end;" transform="rotate(-0, 35.175, 18.378906)" x="35.175" y="18.378906">20</text>
     </g>
    </g>
    <g id="text_20">
     <text style="font-family:Arial;font-size:10px;font-style:normal;font-weight:normal;text-anchor:middle;" transform="rotate(-90, 17.66875, 68.25)" x="17.66875" y="68.25">Temperature (°C)</text>
    </g>
   </g>
   <g id="line2d_19">
    <path clip-path="url(#p7ff3ff4984)" d="M 58.026908 108.18784 
L 60.950772 108.14508 
L 107.69347 108.2306 
L 107.706059 108.31612 
L 107.748022 104.04012 
L 107.791744 104.21116 
L 107.794722 104.29668 
L 107.830052 104.55324 
L 107.831541 104.51048 
L 110.656454 102.80008 
L 118.453424 103.05664 
L 122.351908 102.97112 
L 130.148878 102.54352 
L 131.123499 102.37248 
L 135.996605 102.11592 
L 137.945848 101.94488 
L 139.89509 101.94488 
L 141.844333 101.64556 
L 145.742818 101.389 
L 147.69206 101.30348 
L 150.615924 101.34624 
L 171.082969 101.26072 
L 180.829181 100.79036 
L 181.803802 100.66208 
L 183.753045 100.57656 
L 184.727666 100.44828 
L 185.702287 100.44828 
L 186.676908 100.27724 
L 194.473878 100.36276 
L 197.397742 100.40552 
L 200.321605 100.49104 
L 209.093196 100.79036 
L 220.788651 100.7476 
L 224.687136 100.36276 
L 225.661757 100.19172 
L 226.636378 100.27724 
L 228.585621 100.19172 
L 230.534863 100.32 
L 232.484105 99.8924 
L 233.458727 99.8924 
L 235.407969 99.72136 
L 238.331833 99.6786 
L 242.230318 99.76412 
L 243.204939 99.84964 
L 245.154181 100.27724 
L 255.875015 101.13244 
L 259.773499 101.04692 
L 262.697363 100.83312 
L 264.646605 100.7476 
L 265.621227 101.04692 
L 266.595848 101.13244 
L 269.519711 100.91864 
L 273.418196 100.49104 
L 279.265924 99.93516 
L 280.240545 99.6786 
L 281.215166 99.59308 
L 285.113651 99.72136 
L 286.088272 99.6786 
L 289.012136 99.84964 
L 295.834484 99.84964 
L 297.783727 99.6786 
L 300.70759 99.59308 
L 301.682211 99.20824 
L 302.656833 98.95168 
L 303.631454 99.16548 
L 304.606075 99.12272 
L 307.529939 99.29376 
L 310.453802 99.20824 
L 312.403045 99.20824 
L 313.377666 99.251 
L 314.352287 92.66596 
L 315.326908 82.44632 
L 316.30153 78.55516 
L 317.276151 80.39384 
L 318.250772 74.19364 
L 319.225393 71.2432 
L 320.200015 69.49004 
L 321.174636 68.42104 
L 322.149257 61.1946 
L 323.123878 55.03716 
L 324.098499 49.77768 
L 325.073121 46.91276 
L 326.047742 47.46864 
L 327.022363 45.54444 
L 327.996984 48.3666 
L 328.971605 51.5736 
L 330.920848 60.42492 
L 331.895469 66.3258 
L 332.87009 74.83504 
L 333.844711 81.20628 
L 334.819333 85.01192 
L 335.793954 87.7058 
L 336.768575 89.24516 
L 337.743196 91.85352 
L 338.717818 96.2578 
L 339.692439 99.80688 
L 340.66706 101.64556 
L 341.641681 102.37248 
L 342.616302 102.6718 
L 343.590924 99.63584 
L 344.565545 98.90892 
L 345.540166 99.251 
L 346.514787 101.77384 
L 348.46403 100.9614 
L 350.413272 99.42204 
L 352.362515 98.8234 
L 353.337136 97.58336 
L 357.235621 84.66984 
L 358.210242 72.39772 
L 359.184863 74.70676 
L 360.159484 68.54932 
L 361.134105 47.2976 
L 362.108727 49.56388 
L 363.083348 46.05756 
L 364.057969 40.58428 
L 365.03259 38.40352 
L 366.007211 26.43072 
L 366.981833 42.8078 
L 367.956454 45.97204 
L 368.931075 46.39964 
L 369.905696 46.27136 
L 370.880318 46.52792 
L 371.854939 42.25192 
L 372.82956 51.40256 
L 373.804181 56.96136 
L 374.778802 59.01384 
L 375.753424 61.70772 
L 376.728045 68.16448 
L 377.702666 72.7398 
L 379.651908 83.04496 
L 380.62653 86.8506 
L 381.601151 88.68928 
L 382.575772 92.75148 
L 384.525015 95.91572 
L 385.499636 97.02748 
L 387.448878 98.8234 
L 391.347363 101.64556 
L 395.245848 100.66208 
L 397.19509 100.7476 
L 398.169711 100.40552 
L 400.118954 98.52408 
L 401.093575 97.28404 
L 402.068196 95.14604 
L 403.042818 90.57072 
L 404.017439 86.6368 
L 405.966681 75.43368 
L 407.915924 62.56292 
L 408.890545 59.86904 
L 409.865166 51.83016 
L 410.839787 47.21208 
L 411.814408 41.99536 
L 412.78903 56.57652 
L 413.763651 28.31216 
L 414.738272 30.4074 
L 415.712893 32.07504 
L 416.687515 44.3044 
L 417.662136 40.11392 
L 418.636757 38.91664 
L 419.611378 42.1664 
L 420.585999 46.6562 
L 421.560621 47.76796 
L 422.535242 51.74464 
L 423.509863 71.15768 
L 424.484484 74.8778 
L 425.459105 77.6572 
L 426.433727 69.78936 
L 427.408348 70.43076 
L 428.382969 70.90112 
L 429.35759 73.46672 
L 430.332211 85.69608 
L 431.306833 96.12952 
L 432.281454 101.73108 
L 433.256075 105.2374 
L 434.230696 107.803 
L 435.205318 109.38512 
L 438.129181 112.42108 
L 439.103802 113.70388 
L 440.078424 114.47356 
L 441.053045 114.30252 
L 442.027666 114.30252 
L 443.976908 113.61836 
L 444.95153 112.89144 
L 445.926151 113.74664 
L 446.900772 114.25976 
L 447.875393 113.19076 
L 449.824636 110.53964 
L 452.748499 107.71748 
L 453.723121 104.89532 
L 454.697742 99.42204 
L 456.646984 84.54156 
L 457.621605 78.5124 
L 458.596227 73.21016 
L 459.570848 68.54932 
L 460.545469 64.95748 
L 461.52009 62.4774 
L 463.469333 54.09644 
L 464.443954 51.01772 
L 465.418575 48.66592 
L 467.367818 52.0012 
L 468.342439 52.81364 
L 469.31706 57.94484 
L 471.266302 75.04884 
L 472.240924 81.33456 
L 473.215545 84.9264 
L 474.190166 87.66304 
L 475.164787 86.59404 
L 476.139408 86.25196 
L 477.11403 87.19268 
L 479.063272 91.29764 
L 480.037893 93.22184 
L 481.012515 94.71844 
L 484.910999 99.33652 
L 485.885621 99.80688 
L 486.860242 99.84964 
L 487.834863 99.50756 
L 488.809484 98.86616 
L 490.758727 96.42884 
L 491.733348 96.2578 
L 492.707969 95.44536 
L 494.657211 92.28112 
L 495.631833 88.94584 
L 496.606454 83.90016 
L 497.581075 76.84476 
L 498.555696 64.14504 
L 499.530318 53.15572 
L 500.504939 47.2976 
L 501.47956 39.68632 
L 502.454181 34.17028 
L 504.403424 33.44336 
L 505.378045 40.54152 
L 506.352666 31.0488 
L 507.327287 34.72616 
L 508.301908 41.86708 
L 509.27653 43.8768 
L 510.251151 42.85056 
L 511.225772 43.40644 
L 512.200393 48.3666 
L 513.175015 54.31024 
L 514.149636 53.75436 
L 515.124257 53.75436 
L 516.098878 54.353 
L 517.073499 57.51724 
L 518.048121 56.74756 
L 519.022742 61.57944 
L 519.997363 72.56876 
L 522.921227 84.4988 
L 524.870469 90.65624 
L 525.84509 92.66596 
L 526.819711 94.29084 
L 528.768954 96.77092 
L 530.718196 98.182 
L 531.692818 99.20824 
L 533.64206 99.84964 
L 534.616681 99.8924 
L 535.591302 99.72136 
L 536.565924 99.12272 
L 537.540545 98.90892 
L 538.515166 98.26752 
L 539.489787 97.02748 
L 540.464408 94.7612 
L 541.43903 93.56392 
L 542.413651 91.29764 
L 543.388272 88.68928 
L 544.362893 88.9886 
L 545.337515 85.43952 
L 546.312136 77.48616 
L 547.286757 76.63096 
L 548.261378 64.23056 
L 549.235999 56.79032 
L 550.210621 53.62608 
L 551.185242 41.69604 
L 552.159863 20.01672 
L 553.134484 24.93412 
L 554.109105 25.2762 
L 555.083727 24.33548 
L 556.058348 33.27232 
L 557.032969 30.49292 
L 558.00759 28.697 
L 558.982211 27.24316 
L 559.956833 19.46084 
L 560.931454 26.38796 
L 561.906075 38.1042 
L 562.880696 41.0974 
L 563.855318 47.16932 
L 565.80456 65.17128 
L 566.779181 70.68732 
L 567.753802 73.25292 
L 568.728424 75.39092 
L 570.677666 80.94972 
L 571.652287 84.9264 
L 572.626908 88.3472 
L 573.60153 91.21212 
L 574.576151 92.96528 
L 575.550772 95.10328 
L 577.500015 96.94196 
L 578.474636 97.3268 
L 579.449257 97.88268 
L 580.423878 99.16548 
L 581.398499 100.06344 
L 582.373121 103.82632 
L 583.347742 106.734 
L 584.322363 107.71748 
L 585.296984 106.77676 
L 586.271605 101.77384 
L 587.246227 100.02068 
L 588.220848 99.72136 
L 589.195469 98.69512 
L 590.17009 92.53768 
L 591.144711 92.15284 
L 593.093954 77.40064 
L 594.068575 61.96428 
L 596.017818 58.15864 
L 596.992439 42.72228 
L 597.96706 44.13336 
L 598.941681 32.37436 
L 599.916302 36.22276 
L 600.890924 36.18 
L 601.865545 44.34716 
L 602.840166 50.9322 
L 603.814787 50.20528 
L 604.789408 44.17612 
L 605.76403 46.91276 
L 606.738651 49.09352 
L 607.713272 55.93512 
L 608.687893 61.15184 
L 609.662515 64.95748 
L 610.637136 71.6708 
L 611.611757 75.0916 
L 613 77.590039 
L 613 77.590039 
" style="fill:none;stroke:#ff0000;stroke-linecap:round;"/>
   </g>
   <g id="patch_3">
    <path d="M 42.675 121.7 
L 42.675 14.8 
" style="fill:none;stroke:#000000;stroke-linecap:square;stroke-linejoin:miter;stroke-width:1.5;"/>
   </g>
   <g id="patch_4">
    <path d="M 557.275 121.7 
L 557.275 14.8 
" style="fill:none;stroke:#000000;stroke-linecap:square;stroke-linejoin:miter;stroke-width:1.5;"/>
   </g>
   <g id="patch_5">
    <path d="M 42.675 121.7 
L 557.275 121.7 
" style="fill:none;stroke:#000000;stroke-linecap:square;stroke-linejoin:miter;stroke-width:1.5;"/>
   </g>
   <g id="patch_6">
    <path d="M 42.675 14.8 
L 557.275 14.8 
" style="fill:none;stroke:#000000;stroke-linecap:square;stroke-linejoin:miter;stroke-width:1.5;"/>
   </g>
   <g id="legend_1">
    <g id="line2d_20">
     <path d="M 51.675 107.2125 
L 71.675 107.2125 
" style="fill:none;stroke:#ff0000;stroke-linecap:round;"/>
    </g>
    <g id="line2d_21"/>
    <g id="text_21">
     <text style="fill:#262626;font-family:Arial;font-size:10px;font-style:normal;font-weight:normal;text-anchor:start;" transform="rotate(-0, 79.675, 110.7125)" x="79.675" y="110.7125">Temperature</text>
    </g>
   </g>
  </g>
  <g id="axes_2">
   <g id="matplotlib.axis_3">
    <g id="ytick_7">
     <g id="line2d_22">
      <defs>
       <path d="M 0 0 
L 4 0 
" id="m24cfef5ab4" style="stroke:#000000;stroke-width:2;"/>
      </defs>
      <g>
       <use style="stroke:#000000;stroke-width:2;" x="557.275" xlink:href="#m24cfef5ab4" y="121.7"/>
      </g>
     </g>
     <g id="text_22">
      <text style="font-family:Arial;font-size:10px;font-style:normal;font-weight:normal;text-anchor:start;" transform="rotate(-0, 564.775, 125.278906)" x="564.775" y="125.278906">0</text>
     </g>
    </g>
    <g id="ytick_8">
     <g id="line2d_23">
      <g>
       <use style="stroke:#000000;stroke-width:2;" x="557.275" xlink:href="#m24cfef5ab4" y="106.428571"/>
      </g>
     </g>
     <g id="text_23">
      <text style="font-family:Arial;font-size:10px;font-style:normal;font-weight:normal;text-anchor:start;" transform="rotate(-0, 564.775, 110.007478)" x="564.775" y="110.007478">100</text>
     </g>
    </g>
    <g id="ytick_9">
     <g id="line2d_24">
      <g>
       <use style="stroke:#000000;stroke-width:2;" x="557.275" xlink:href="#m24cfef5ab4" y="91.157143"/>
      </g>
     </g>
     <g id="text_24">
      <text style="font-family:Arial;font-size:10px;font-style:normal;font-weight:normal;text-anchor:start;" transform="rotate(-0, 564.775, 94.736049)" x="564.775" y="94.736049">200</text>
     </g>
    </g>
    <g id="ytick_10">
     <g id="line2d_25">
      <g>
       <use style="stroke:#000000;stroke-width:2;" x="557.275" xlink:href="#m24cfef5ab4" y="75.885714"/>
      </g>
     </g>
     <g id="text_25">
      <text style="font-family:Arial;font-size:10px;font-style:normal;font-weight:normal;text-anchor:start;" transform="rotate(-0, 564.775, 79.464621)" x="564.775" y="79.464621">300</text>
     </g>
    </g>
    <g id="ytick_11">
     <g id="line2d_26">
      <g>
       <use style="stroke:#000000;stroke-width:2;" x="557.275" xlink:href="#m24cfef5ab4" y="60.614286"/>
      </g>
     </g>
     <g id="text_26">
      <text style="font-family:Arial;font-size:10px;font-style:normal;font-weight:normal;text-anchor:start;" transform="rotate(-0, 564.775, 64.193192)" x="564.775" y="64.193192">400</text>
     </g>
    </g>
    <g id="ytick_12">
     <g id="line2d_27">
      <g>
       <use style="stroke:#000000;stroke-width:2;" x="557.275" xlink:href="#m24cfef5ab4" y="45.342857"/>
      </g>
     </g>
     <g id="text_27">
      <text style="font-family:Arial;font-size:10px;font-style:normal;font-weight:normal;text-anchor:start;" transform="rotate(-0, 564.775, 48.921763)" x="564.775" y="48.921763">500</text>
     </g>
    </g>
    <g id="ytick_13">
     <g id="line2d_28">
      <g>
       <use style="stroke:#000000;stroke-width:2;" x="557.275" xlink:href="#m24cfef5ab4" y="30.071429"/>
      </g>
     </g>
     <g id="text_28">
      <text style="font-family:Arial;font-size:10px;font-style:normal;font-weight:normal;text-anchor:start;" transform="rotate(-0, 564.775, 33.650335)" x="564.775" y="33.650335">600</text>
     </g>
    </g>
    <g id="ytick_14">
     <g id="line2d_29">
      <g>
       <use style="stroke:#000000;stroke-width:2;" x="557.275" xlink:href="#m24cfef5ab4" y="14.8"/>
      </g>
     </g>
     <g id="text_29">
      <text style="font-family:Arial;font-size:10px;font-style:normal;font-weight:normal;text-anchor:start;" transform="rotate(-0, 564.775, 18.378906)" x="564.775" y="18.378906">700</text>
     </g>
    </g>
    <g id="text_30">
     <!-- PAR ($\mu$mol $m^{-2}$ $s^{-1}$) -->
     <g transform="translate(594.557812 115.8)rotate(-90)">
      <text>
       <tspan style="font-family:Arial;font-size:10px;font-style:regular;font-weight:regular;" x="0 6.669922 13.339844 20.561523 23.339844 33.032227 41.362305 46.923828 49.145508 72.721439 91.76612" y="-0.9765625">PAR (mol  )</tspan>
       <tspan style="font-family:DejaVu Sans;font-size:10px;font-style:oblique;font-weight:oblique;" x="26.669922 51.923828 75.499759" y="-0.9765625">μms</tspan>
       <tspan style="font-family:DejaVu Sans;font-size:7px;font-style:book;font-weight:book;" x="62.129154 67.994388 81.173835 87.039069" y="-4.8046875">−2−1</tspan>
      </text>
     </g>
    </g>
   </g>
   <g id="line2d_30">
    <path clip-path="url(#p7ff3ff4984)" d="M 58.026908 121.238803 
L 59.00153 121.319741 
L 61.925393 121.258656 
L 72.646227 121.235749 
L 73.620848 121.107469 
L 76.544711 121.32585 
L 77.519333 120.742481 
L 78.493954 120.672233 
L 79.468575 121.24033 
L 80.443196 121.273927 
L 81.417818 120.931847 
L 82.392439 120.992933 
L 83.36706 120.835637 
L 84.341681 119.852157 
L 85.316302 120.090391 
L 86.290924 119.661264 
L 87.265545 119.63683 
L 88.240166 120.198819 
L 89.214787 120.195764 
L 90.189408 121.243384 
L 91.16403 121.324323 
L 92.138651 119.952949 
L 93.113272 121.249493 
L 94.087893 120.762334 
L 95.062515 120.890614 
L 96.037136 121.30447 
L 97.011757 121.298361 
L 97.986378 120.414146 
L 98.960999 121.072344 
L 99.935621 121.31516 
L 101.884863 121.335013 
L 102.859484 121.174663 
L 107.68061 121.215896 
L 107.705111 120.621837 
L 107.751 121.276981 
L 107.790797 121.267819 
L 107.821931 121.276981 
L 107.79188 121.26171 
L 107.831541 121.263237 
L 115.52956 121.211314 
L 118.453424 121.046383 
L 123.32653 120.569914 
L 125.275772 120.020143 
L 127.225015 119.707079 
L 128.199636 119.39096 
L 129.174257 119.343619 
L 130.148878 119.054989 
L 131.123499 119.024446 
L 132.098121 118.543396 
L 134.047363 119.891863 
L 135.021984 119.687226 
L 135.996605 119.827723 
L 136.971227 118.677784 
L 137.945848 119.464263 
L 138.920469 119.288641 
L 139.89509 118.893111 
L 140.869711 119.131346 
L 141.844333 119.226029 
L 142.818954 118.980159 
L 143.793575 119.511604 
L 144.768196 119.823141 
L 145.742818 119.546729 
L 147.69206 120.583659 
L 149.641302 120.90894 
L 150.615924 120.85549 
L 156.463651 121.252547 
L 162.311378 121.171609 
L 167.184484 120.779133 
L 169.133727 120.322517 
L 170.108348 120.62031 
L 171.082969 120.37444 
L 172.05759 120.482867 
L 174.006833 119.887281 
L 174.981454 119.285587 
L 175.956075 119.378743 
L 176.930696 119.749839 
L 177.905318 119.013756 
L 179.85456 118.433441 
L 181.803802 117.793569 
L 182.778424 118.868677 
L 183.753045 116.842159 
L 184.727666 117.614893 
L 185.702287 117.289611 
L 186.676908 117.521737 
L 187.65153 118.656404 
L 188.626151 118.937399 
L 189.600772 119.430666 
L 190.575393 119.558946 
L 191.550015 120.088864 
L 192.524636 119.58338 
L 193.499257 120.041523 
L 194.473878 120.670706 
L 198.372363 121.075399 
L 200.321605 121.223531 
L 204.22009 121.286144 
L 209.093196 121.150229 
L 212.991681 120.80204 
L 213.966302 120.592821 
L 214.940924 119.835359 
L 215.915545 120.38513 
L 216.890166 119.838413 
L 217.864787 119.830777 
L 218.839408 119.591016 
L 219.81403 120.48134 
L 220.788651 118.8137 
L 222.737893 118.442604 
L 223.712515 118.711381 
L 224.687136 117.204091 
L 225.661757 117.161331 
L 226.636378 118.036384 
L 227.610999 118.526597 
L 228.585621 118.157029 
L 229.560242 119.389433 
L 230.534863 119.175633 
L 231.509484 117.685141 
L 232.484105 117.888251 
L 233.458727 118.445659 
L 234.433348 118.430387 
L 235.407969 118.702219 
L 237.357211 120.012507 
L 238.331833 119.853684 
L 239.306454 120.084283 
L 240.281075 120.090391 
L 241.255696 120.313354 
L 242.230318 120.282811 
L 243.204939 120.70583 
L 244.17956 120.971553 
L 249.052666 121.260183 
L 253.925772 121.252547 
L 256.849636 121.183826 
L 257.824257 121.012786 
L 258.798878 120.550061 
L 259.773499 120.435526 
L 260.748121 119.70097 
L 261.722742 120.34237 
L 263.671984 120.580604 
L 264.646605 119.410813 
L 265.621227 118.97405 
L 266.595848 118.740397 
L 268.54509 117.963081 
L 269.519711 118.256293 
L 270.494333 117.714157 
L 271.468954 117.747754 
L 272.443575 117.602676 
L 273.418196 116.979601 
L 274.392818 117.596567 
L 275.367439 117.666816 
L 276.34206 116.744421 
L 277.316681 116.941423 
L 278.291302 116.797871 
L 279.265924 115.997649 
L 280.240545 115.51049 
L 281.215166 116.23741 
L 282.189787 117.596567 
L 283.164408 118.263929 
L 284.13903 118.743451 
L 285.113651 118.222696 
L 286.088272 118.558667 
L 287.062893 119.791071 
L 288.037515 120.233943 
L 289.012136 119.997236 
L 289.986757 120.595876 
L 290.961378 120.692086 
L 291.935999 120.90894 
L 293.885242 121.095251 
L 295.834484 121.211314 
L 300.70759 121.156337 
L 304.606075 120.74859 
L 305.580696 120.247687 
L 306.555318 120.345424 
L 307.529939 119.873537 
L 308.50456 119.917824 
L 309.479181 118.673203 
L 310.453802 119.08095 
L 311.428424 118.042493 
L 312.403045 118.436496 
L 313.377666 117.14606 
L 314.352287 38.728801 
L 315.326908 35.187357 
L 316.30153 66.023426 
L 317.276151 69.836701 
L 318.250772 31.516106 
L 319.225393 45.29857 
L 320.200015 50.805447 
L 322.149257 22.538033 
L 328.971605 22.538033 
L 329.946227 53.558886 
L 331.895469 76.843233 
L 332.87009 87.07509 
L 333.844711 103.942383 
L 334.819333 89.440634 
L 335.793954 89.208509 
L 336.768575 97.940711 
L 337.743196 104.31806 
L 338.717818 111.756773 
L 339.692439 113.87492 
L 340.66706 115.625026 
L 341.641681 116.898663 
L 342.616302 117.679033 
L 343.590924 117.871453 
L 344.565545 118.312797 
L 346.514787 118.216587 
L 347.489408 117.482031 
L 348.46403 116.53673 
L 350.413272 113.818416 
L 352.362515 110.979457 
L 353.337136 105.745939 
L 354.311757 103.684296 
L 355.286378 102.070106 
L 356.260999 102.196859 
L 357.235621 87.559194 
L 358.210242 89.200873 
L 359.184863 48.481136 
L 360.159484 37.93316 
L 361.134105 52.153914 
L 362.108727 48.084079 
L 363.083348 84.895857 
L 364.057969 87.479783 
L 365.03259 22.538033 
L 371.854939 22.538033 
L 372.82956 24.225526 
L 373.804181 22.538033 
L 374.778802 24.584404 
L 375.753424 41.156959 
L 376.728045 42.097679 
L 377.702666 61.431307 
L 378.677287 68.404241 
L 379.651908 82.05079 
L 380.62653 93.000404 
L 381.601151 95.230033 
L 383.550393 106.613356 
L 384.525015 111.558244 
L 385.499636 112.156884 
L 386.474257 114.284194 
L 387.448878 115.140921 
L 388.423499 117.170494 
L 389.398121 118.068454 
L 390.372742 118.337231 
L 391.347363 118.735816 
L 392.321984 118.731234 
L 393.296605 118.583101 
L 394.271227 118.112741 
L 395.245848 118.309743 
L 396.220469 117.500357 
L 397.19509 114.766771 
L 399.144333 106.874497 
L 400.118954 104.096624 
L 401.093575 98.594329 
L 403.042818 75.40161 
L 404.017439 67.283319 
L 404.99206 55.276921 
L 405.966681 47.486966 
L 406.941302 36.120441 
L 407.915924 32.366724 
L 408.890545 30.164584 
L 409.865166 22.538033 
L 421.560621 22.538033 
L 422.535242 108.827713 
L 423.509863 106.953909 
L 424.484484 109.197281 
L 425.459105 66.976363 
L 426.433727 81.501019 
L 427.408348 92.84769 
L 428.382969 99.820624 
L 429.35759 102.19075 
L 431.306833 109.5134 
L 433.256075 114.268923 
L 434.230696 116.026664 
L 435.205318 117.312519 
L 436.179939 118.231859 
L 437.15456 118.90991 
L 438.129181 119.163416 
L 440.078424 118.964887 
L 442.027666 117.782879 
L 443.002287 116.348891 
L 443.976908 115.51049 
L 444.95153 113.815361 
L 445.926151 113.679446 
L 446.900772 111.188676 
L 447.875393 109.571431 
L 448.850015 107.405943 
L 449.824636 106.420936 
L 450.799257 104.773149 
L 451.773878 103.759126 
L 452.748499 102.458 
L 453.723121 85.437993 
L 454.697742 32.963837 
L 455.672363 22.538033 
L 468.342439 22.538033 
L 469.31706 65.595826 
L 470.291681 57.830304 
L 471.266302 82.73495 
L 472.240924 74.999971 
L 473.215545 85.095913 
L 474.190166 90.118686 
L 475.164787 83.11979 
L 476.139408 98.783694 
L 477.11403 100.729274 
L 478.088651 109.324034 
L 479.063272 111.546027 
L 480.037893 115.096634 
L 481.987136 118.409007 
L 484.910999 119.7758 
L 485.885621 119.586434 
L 486.860242 118.972523 
L 487.834863 117.824111 
L 488.809484 116.260317 
L 489.784105 111.973627 
L 490.758727 109.931837 
L 491.733348 108.63682 
L 493.68259 100.862136 
L 494.657211 91.96042 
L 495.631833 84.570576 
L 496.606454 83.406893 
L 497.581075 65.914999 
L 499.530318 87.044547 
L 500.504939 55.305937 
L 501.47956 43.097957 
L 502.454181 25.929817 
L 503.428802 72.486294 
L 504.403424 31.749759 
L 505.378045 37.850694 
L 506.352666 22.538033 
L 507.327287 40.483489 
L 508.301908 29.535401 
L 509.27653 26.94384 
L 510.251151 22.538033 
L 511.225772 41.147796 
L 512.200393 33.258576 
L 513.175015 43.899707 
L 514.149636 29.985909 
L 515.124257 22.538033 
L 516.098878 35.50653 
L 517.073499 51.665229 
L 518.048121 32.3316 
L 519.022742 68.599716 
L 519.997363 83.619166 
L 520.971984 77.399113 
L 522.921227 103.439953 
L 523.895848 104.458557 
L 524.870469 109.658479 
L 527.794333 118.167719 
L 528.768954 118.034857 
L 529.743575 118.767886 
L 530.718196 119.143563 
L 532.667439 119.442883 
L 533.64206 119.258099 
L 534.616681 118.633497 
L 535.591302 117.793569 
L 536.565924 114.736229 
L 537.540545 113.662647 
L 538.515166 111.666671 
L 539.489787 106.03915 
L 540.464408 102.859639 
L 541.43903 104.030957 
L 542.413651 93.038583 
L 543.388272 85.07606 
L 544.362893 74.896126 
L 545.337515 62.854604 
L 546.312136 58.21209 
L 547.286757 43.400331 
L 548.261378 22.538033 
L 549.235999 39.626761 
L 550.210621 22.538033 
L 553.134484 22.538033 
L 554.109105 42.051864 
L 555.083727 22.538033 
L 556.058348 52.639546 
L 557.032969 22.538033 
L 558.982211 22.538033 
L 559.956833 26.062679 
L 560.931454 41.422681 
L 561.906075 58.890141 
L 562.880696 54.595816 
L 565.80456 81.061201 
L 566.779181 77.26167 
L 567.753802 82.696771 
L 568.728424 90.564611 
L 569.703045 96.338739 
L 570.677666 99.915307 
L 571.652287 107.181453 
L 573.60153 116.020556 
L 574.576151 117.73401 
L 576.525393 119.635303 
L 577.500015 120.00029 
L 579.449257 119.52993 
L 580.423878 119.23061 
L 582.373121 118.088307 
L 583.347742 117.407201 
L 584.322363 115.779267 
L 585.296984 113.442739 
L 586.271605 106.95849 
L 587.246227 101.63487 
L 588.220848 100.744546 
L 589.195469 96.66402 
L 590.17009 102.396914 
L 591.144711 76.421741 
L 592.119333 56.177936 
L 593.093954 48.224576 
L 594.068575 30.830419 
L 595.043196 36.002851 
L 596.017818 32.3316 
L 596.992439 22.538033 
L 597.96706 22.538033 
L 598.941681 55.748809 
L 599.916302 22.538033 
L 601.865545 22.538033 
L 602.840166 39.745879 
L 603.814787 22.538033 
L 605.76403 22.538033 
L 606.738651 28.448076 
L 607.713272 63.948039 
L 608.687893 58.369386 
L 609.662515 63.37536 
L 610.637136 75.528363 
L 611.611757 75.539053 
L 612.586378 75.009134 
L 613 76.539317 
L 613 76.539317 
" style="fill:none;stroke:#000000;stroke-linecap:round;"/>
   </g>
   <g id="patch_7">
    <path d="M 42.675 121.7 
L 42.675 14.8 
" style="fill:none;stroke:#000000;stroke-linecap:square;stroke-linejoin:miter;stroke-width:1.5;"/>
   </g>
   <g id="patch_8">
    <path d="M 557.275 121.7 
L 557.275 14.8 
" style="fill:none;stroke:#000000;stroke-linecap:square;stroke-linejoin:miter;stroke-width:1.5;"/>
   </g>
   <g id="patch_9">
    <path d="M 42.675 121.7 
L 557.275 121.7 
" style="fill:none;stroke:#000000;stroke-linecap:square;stroke-linejoin:miter;stroke-width:1.5;"/>
   </g>
   <g id="patch_10">
    <path d="M 42.675 14.8 
L 557.275 14.8 
" style="fill:none;stroke:#000000;stroke-linecap:square;stroke-linejoin:miter;stroke-width:1.5;"/>
   </g>
   <g id="legend_2">
    <g id="line2d_31">
     <path d="M 51.675 27.457813 
L 71.675 27.457813 
" style="fill:none;stroke:#000000;stroke-linecap:round;"/>
    </g>
    <g id="line2d_32"/>
    <g id="text_31">
     <text style="fill:#262626;font-family:Arial;font-size:10px;font-style:normal;font-weight:normal;text-anchor:start;" transform="rotate(-0, 79.675, 30.957813)" x="79.675" y="30.957813">PAR</text>
    </g>
   </g>
  </g>
 </g>
 <defs>
  <clipPath id="p7ff3ff4984">
   <rect height="106.9" width="514.6" x="42.675" y="14.8"/>
  </clipPath>
 </defs>
</svg>
