<?xml version="1.0" encoding="utf-8" standalone="no"?>
<!DOCTYPE svg PUBLIC "-//W3C//DTD SVG 1.1//EN"
  "http://www.w3.org/Graphics/SVG/1.1/DTD/svg11.dtd">
<!-- Created with matplotlib (http://matplotlib.org/) -->
<svg height="162pt" version="1.1" viewBox="0 0 612 162" width="612pt" xmlns="http://www.w3.org/2000/svg" xmlns:xlink="http://www.w3.org/1999/xlink">
 <defs>
  <style type="text/css">
*{stroke-linecap:butt;stroke-linejoin:round;}
  </style>
 </defs>
 <g id="figure_1">
  <g id="patch_1">
   <path d="M 0 162 
L 612 162 
L 612 0 
L 0 0 
z
" style="fill:#ffffff;"/>
  </g>
  <g id="axes_1">
   <g id="patch_2">
    <path d="M 41.175 123.2 
L 558.775 123.2 
L 558.775 14.3 
L 41.175 14.3 
z
" style="fill:#ffffff;"/>
   </g>
   <g id="matplotlib.axis_1">
    <g id="xtick_1">
     <g id="line2d_1">
      <defs>
       <path d="M 0 0 
L 0 2.5 
" id="m429470e2e2" style="stroke:#000000;"/>
      </defs>
      <g>
       <use style="stroke:#000000;" x="41.175" xlink:href="#m429470e2e2" y="123.2"/>
      </g>
     </g>
     <g id="text_1">
      <text style="font-family:Arial;font-size:10px;font-style:normal;font-weight:normal;text-anchor:middle;" transform="rotate(-0, 41.175, 136.357812)" x="41.175" y="136.357812">7/16</text>
     </g>
    </g>
    <g id="xtick_2">
     <g id="line2d_2">
      <g>
       <use style="stroke:#000000;" x="88.229545" xlink:href="#m429470e2e2" y="123.2"/>
      </g>
     </g>
     <g id="text_2">
      <text style="font-family:Arial;font-size:10px;font-style:normal;font-weight:normal;text-anchor:middle;" transform="rotate(-0, 88.229545, 136.357812)" x="88.229545" y="136.357812">7/17</text>
     </g>
    </g>
    <g id="xtick_3">
     <g id="line2d_3">
      <g>
       <use style="stroke:#000000;" x="135.284091" xlink:href="#m429470e2e2" y="123.2"/>
      </g>
     </g>
     <g id="text_3">
      <text style="font-family:Arial;font-size:10px;font-style:normal;font-weight:normal;text-anchor:middle;" transform="rotate(-0, 135.284091, 136.357812)" x="135.284091" y="136.357812">7/18</text>
     </g>
    </g>
    <g id="xtick_4">
     <g id="line2d_4">
      <g>
       <use style="stroke:#000000;" x="182.338636" xlink:href="#m429470e2e2" y="123.2"/>
      </g>
     </g>
     <g id="text_4">
      <text style="font-family:Arial;font-size:10px;font-style:normal;font-weight:normal;text-anchor:middle;" transform="rotate(-0, 182.338636, 136.357812)" x="182.338636" y="136.357812">7/19</text>
     </g>
    </g>
    <g id="xtick_5">
     <g id="line2d_5">
      <g>
       <use style="stroke:#000000;" x="229.393182" xlink:href="#m429470e2e2" y="123.2"/>
      </g>
     </g>
     <g id="text_5">
      <text style="font-family:Arial;font-size:10px;font-style:normal;font-weight:normal;text-anchor:middle;" transform="rotate(-0, 229.393182, 136.357812)" x="229.393182" y="136.357812">7/20</text>
     </g>
    </g>
    <g id="xtick_6">
     <g id="line2d_6">
      <g>
       <use style="stroke:#000000;" x="276.447727" xlink:href="#m429470e2e2" y="123.2"/>
      </g>
     </g>
     <g id="text_6">
      <text style="font-family:Arial;font-size:10px;font-style:normal;font-weight:normal;text-anchor:middle;" transform="rotate(-0, 276.447727, 136.357812)" x="276.447727" y="136.357812">7/21</text>
     </g>
    </g>
    <g id="xtick_7">
     <g id="line2d_7">
      <g>
       <use style="stroke:#000000;" x="323.502273" xlink:href="#m429470e2e2" y="123.2"/>
      </g>
     </g>
     <g id="text_7">
      <text style="font-family:Arial;font-size:10px;font-style:normal;font-weight:normal;text-anchor:middle;" transform="rotate(-0, 323.502273, 136.357812)" x="323.502273" y="136.357812">7/22</text>
     </g>
    </g>
    <g id="xtick_8">
     <g id="line2d_8">
      <g>
       <use style="stroke:#000000;" x="370.556818" xlink:href="#m429470e2e2" y="123.2"/>
      </g>
     </g>
     <g id="text_8">
      <text style="font-family:Arial;font-size:10px;font-style:normal;font-weight:normal;text-anchor:middle;" transform="rotate(-0, 370.556818, 136.357812)" x="370.556818" y="136.357812">7/23</text>
     </g>
    </g>
    <g id="xtick_9">
     <g id="line2d_9">
      <g>
       <use style="stroke:#000000;" x="417.611364" xlink:href="#m429470e2e2" y="123.2"/>
      </g>
     </g>
     <g id="text_9">
      <text style="font-family:Arial;font-size:10px;font-style:normal;font-weight:normal;text-anchor:middle;" transform="rotate(-0, 417.611364, 136.357812)" x="417.611364" y="136.357812">7/24</text>
     </g>
    </g>
    <g id="xtick_10">
     <g id="line2d_10">
      <g>
       <use style="stroke:#000000;" x="464.665909" xlink:href="#m429470e2e2" y="123.2"/>
      </g>
     </g>
     <g id="text_10">
      <text style="font-family:Arial;font-size:10px;font-style:normal;font-weight:normal;text-anchor:middle;" transform="rotate(-0, 464.665909, 136.357812)" x="464.665909" y="136.357812">7/25</text>
     </g>
    </g>
    <g id="xtick_11">
     <g id="line2d_11">
      <g>
       <use style="stroke:#000000;" x="511.720455" xlink:href="#m429470e2e2" y="123.2"/>
      </g>
     </g>
     <g id="text_11">
      <text style="font-family:Arial;font-size:10px;font-style:normal;font-weight:normal;text-anchor:middle;" transform="rotate(-0, 511.720455, 136.357812)" x="511.720455" y="136.357812">7/26</text>
     </g>
    </g>
    <g id="xtick_12">
     <g id="line2d_12">
      <g>
       <use style="stroke:#000000;" x="558.775" xlink:href="#m429470e2e2" y="123.2"/>
      </g>
     </g>
     <g id="text_12">
      <text style="font-family:Arial;font-size:10px;font-style:normal;font-weight:normal;text-anchor:middle;" transform="rotate(-0, 558.775, 136.357812)" x="558.775" y="136.357812">7/27</text>
     </g>
    </g>
    <g id="text_13">
     <text style="font-family:Arial;font-size:10px;font-style:normal;font-weight:normal;text-anchor:middle;" transform="rotate(-0, 299.975, 149.625)" x="299.975" y="149.625">Time (UTC)</text>
    </g>
   </g>
   <g id="matplotlib.axis_2">
    <g id="ytick_1">
     <g id="line2d_13">
      <defs>
       <path d="M 0 0 
L -2.5 0 
" id="m54beb0e379" style="stroke:#000000;"/>
      </defs>
      <g>
       <use style="stroke:#000000;" x="41.175" xlink:href="#m54beb0e379" y="123.2"/>
      </g>
     </g>
     <g id="text_14">
      <text style="font-family:Arial;font-size:10px;font-style:normal;font-weight:normal;text-anchor:end;" transform="rotate(-0, 35.175, 126.778906)" x="35.175" y="126.778906">−5</text>
     </g>
    </g>
    <g id="ytick_2">
     <g id="line2d_14">
      <g>
       <use style="stroke:#000000;" x="41.175" xlink:href="#m54beb0e379" y="101.42"/>
      </g>
     </g>
     <g id="text_15">
      <text style="font-family:Arial;font-size:10px;font-style:normal;font-weight:normal;text-anchor:end;" transform="rotate(-0, 35.175, 104.998906)" x="35.175" y="104.998906">0</text>
     </g>
    </g>
    <g id="ytick_3">
     <g id="line2d_15">
      <g>
       <use style="stroke:#000000;" x="41.175" xlink:href="#m54beb0e379" y="79.64"/>
      </g>
     </g>
     <g id="text_16">
      <text style="font-family:Arial;font-size:10px;font-style:normal;font-weight:normal;text-anchor:end;" transform="rotate(-0, 35.175, 83.218906)" x="35.175" y="83.218906">5</text>
     </g>
    </g>
    <g id="ytick_4">
     <g id="line2d_16">
      <g>
       <use style="stroke:#000000;" x="41.175" xlink:href="#m54beb0e379" y="57.86"/>
      </g>
     </g>
     <g id="text_17">
      <text style="font-family:Arial;font-size:10px;font-style:normal;font-weight:normal;text-anchor:end;" transform="rotate(-0, 35.175, 61.438906)" x="35.175" y="61.438906">10</text>
     </g>
    </g>
    <g id="ytick_5">
     <g id="line2d_17">
      <g>
       <use style="stroke:#000000;" x="41.175" xlink:href="#m54beb0e379" y="36.08"/>
      </g>
     </g>
     <g id="text_18">
      <text style="font-family:Arial;font-size:10px;font-style:normal;font-weight:normal;text-anchor:end;" transform="rotate(-0, 35.175, 39.658906)" x="35.175" y="39.658906">15</text>
     </g>
    </g>
    <g id="ytick_6">
     <g id="line2d_18">
      <g>
       <use style="stroke:#000000;" x="41.175" xlink:href="#m54beb0e379" y="14.3"/>
      </g>
     </g>
     <g id="text_19">
      <text style="font-family:Arial;font-size:10px;font-style:normal;font-weight:normal;text-anchor:end;" transform="rotate(-0, 35.175, 17.878906)" x="35.175" y="17.878906">20</text>
     </g>
    </g>
    <g id="text_20">
     <text style="font-family:Arial;font-size:10px;font-style:normal;font-weight:normal;text-anchor:middle;" transform="rotate(-90, 17.66875, 68.75)" x="17.66875" y="68.75">Temperature (°C)</text>
    </g>
   </g>
   <g id="line2d_19">
    <path clip-path="url(#pbf8c69e8e8)" d="M 56.616407 109.87064 
L 59.557316 109.82708 
L 106.572513 109.9142 
L 106.585175 110.00132 
L 106.627383 105.64532 
L 106.670815 105.81956 
L 106.674355 105.90668 
L 106.709891 106.16804 
L 106.711389 106.12448 
L 109.55277 104.38208 
L 117.395194 104.64344 
L 121.316407 104.55632 
L 129.158831 104.12072 
L 130.139134 103.94648 
L 135.040649 103.68512 
L 137.001255 103.51088 
L 138.961861 103.51088 
L 140.922467 103.20596 
L 144.843679 102.9446 
L 146.804285 102.85748 
L 149.745194 102.90104 
L 170.331558 102.81392 
L 180.134588 102.33476 
L 181.114891 102.20408 
L 183.075497 102.11696 
L 184.055801 101.98628 
L 185.036104 101.98628 
L 186.016407 101.81204 
L 193.858831 101.89916 
L 196.79974 101.94272 
L 199.740649 102.02984 
L 208.563376 102.33476 
L 220.327013 102.2912 
L 224.248225 101.89916 
L 225.228528 101.72492 
L 226.208831 101.81204 
L 228.169437 101.72492 
L 230.130043 101.8556 
L 232.090649 101.42 
L 233.070952 101.42 
L 235.031558 101.24576 
L 237.972467 101.2022 
L 241.893679 101.28932 
L 242.873982 101.37644 
L 244.834588 101.81204 
L 255.617922 102.68324 
L 259.539134 102.59612 
L 262.480043 102.37832 
L 264.440649 102.2912 
L 265.420952 102.59612 
L 266.401255 102.68324 
L 269.342164 102.46544 
L 273.263376 102.02984 
L 279.145194 101.46356 
L 280.125497 101.2022 
L 281.105801 101.11508 
L 285.027013 101.24576 
L 286.007316 101.2022 
L 288.948225 101.37644 
L 295.810346 101.37644 
L 297.770952 101.2022 
L 300.711861 101.11508 
L 301.692164 100.72304 
L 302.672467 100.46168 
L 303.65277 100.67948 
L 304.633073 100.63592 
L 307.573982 100.81016 
L 310.514891 100.72304 
L 312.475497 100.72304 
L 313.455801 100.7666 
L 314.436104 94.05836 
L 315.416407 83.64752 
L 316.39671 79.68356 
L 317.377013 81.55664 
L 318.357316 75.24044 
L 319.337619 72.2348 
L 320.317922 70.44884 
L 321.298225 69.35984 
L 322.278528 61.9982 
L 323.258831 55.72556 
L 324.239134 50.36768 
L 325.219437 47.44916 
L 326.19974 48.01544 
L 327.180043 46.05524 
L 328.160346 48.9302 
L 329.140649 52.1972 
L 331.101255 61.21412 
L 332.081558 67.2254 
L 333.061861 75.89384 
L 334.042164 82.38428 
L 335.022467 86.26112 
L 336.00277 89.0054 
L 336.983073 90.57356 
L 337.963376 93.23072 
L 338.943679 97.7174 
L 339.923982 101.33288 
L 340.904285 103.20596 
L 341.884588 103.94648 
L 342.864891 104.2514 
L 343.845194 101.15864 
L 344.825497 100.41812 
L 345.805801 100.7666 
L 346.786104 103.33664 
L 348.74671 102.509 
L 350.707316 100.94084 
L 352.667922 100.331 
L 353.648225 99.06776 
L 357.569437 85.91264 
L 358.54974 73.41092 
L 359.530043 75.76316 
L 360.510346 69.49052 
L 361.490649 47.8412 
L 362.470952 50.14988 
L 363.451255 46.57796 
L 364.431558 41.00228 
L 365.411861 38.78072 
L 366.392164 26.58392 
L 367.372467 43.2674 
L 368.35277 46.49084 
L 369.333073 46.92644 
L 370.313376 46.79576 
L 371.293679 47.05712 
L 372.273982 42.70112 
L 373.254285 52.02296 
L 374.234588 57.68576 
L 375.214891 59.77664 
L 376.195194 62.52092 
L 377.175497 69.09848 
L 378.1558 73.7594 
L 380.116407 84.25736 
L 381.09671 88.1342 
L 382.077013 90.00728 
L 383.057316 94.14548 
L 385.017922 97.36892 
L 385.998225 98.50148 
L 387.958831 100.331 
L 391.880043 103.20596 
L 395.801255 102.20408 
L 397.761861 102.2912 
L 398.742164 101.94272 
L 400.70277 100.02608 
L 401.683073 98.76284 
L 402.663376 96.58484 
L 403.643679 91.92392 
L 404.623982 87.9164 
L 406.584588 76.50368 
L 408.545194 63.39212 
L 409.525497 60.64784 
L 410.505801 52.45856 
L 411.486104 47.75408 
L 412.466407 42.43976 
L 413.44671 57.29372 
L 414.427013 28.50056 
L 415.407316 30.635 
L 416.387619 32.33384 
L 417.367922 44.792 
L 418.348225 40.52312 
L 419.328528 39.30344 
L 420.308831 42.614 
L 421.289134 47.1878 
L 422.269437 48.32036 
L 423.24974 52.37144 
L 424.230043 72.14768 
L 425.210346 75.9374 
L 426.190649 78.7688 
L 427.170952 70.75376 
L 428.151255 71.40716 
L 429.131558 71.88632 
L 430.111861 74.49992 
L 431.092164 86.95808 
L 432.072467 97.58672 
L 433.05277 103.29308 
L 434.033073 106.865 
L 435.013376 109.4786 
L 435.993679 111.09032 
L 438.934588 114.18308 
L 439.914891 115.48988 
L 440.895194 116.27396 
L 441.875497 116.09972 
L 442.855801 116.09972 
L 444.816407 115.40276 
L 445.79671 114.66224 
L 446.777013 115.53344 
L 447.757316 116.05616 
L 448.737619 114.96716 
L 450.698225 112.26644 
L 453.639134 109.39148 
L 454.619437 106.51652 
L 455.59974 100.94084 
L 457.560346 85.78196 
L 458.540649 79.64 
L 459.520952 74.23856 
L 460.501255 69.49052 
L 461.481558 65.83148 
L 462.461861 63.305 
L 464.422467 54.76724 
L 465.40277 51.63092 
L 466.383073 49.23512 
L 468.343679 52.6328 
L 469.323982 53.46044 
L 470.304285 58.68764 
L 472.264891 76.11164 
L 473.245194 82.51496 
L 474.225497 86.174 
L 475.205801 88.96184 
L 476.186104 87.87284 
L 477.166407 87.52436 
L 478.14671 88.48268 
L 480.107316 92.66444 
L 481.087619 94.62464 
L 482.067922 96.14924 
L 485.989134 100.85372 
L 486.969437 101.33288 
L 487.94974 101.37644 
L 488.930043 101.02796 
L 489.910346 100.37456 
L 491.870952 97.89164 
L 492.851255 97.7174 
L 493.831558 96.88976 
L 495.792164 93.66632 
L 496.772467 90.26864 
L 497.75277 85.12856 
L 498.733073 77.94116 
L 499.713376 65.00384 
L 500.693679 53.80892 
L 501.673982 47.8412 
L 502.654285 40.08752 
L 503.634588 34.46828 
L 505.595194 33.72776 
L 506.575497 40.95872 
L 507.555801 31.2884 
L 508.536104 35.03456 
L 509.516407 42.30908 
L 510.49671 44.3564 
L 511.477013 43.31096 
L 512.457316 43.87724 
L 513.437619 48.9302 
L 514.417922 54.98504 
L 515.398225 54.41876 
L 516.378528 54.41876 
L 517.358831 55.0286 
L 518.339134 58.25204 
L 519.319437 57.46796 
L 520.29974 62.39024 
L 521.280043 73.58516 
L 524.220952 85.7384 
L 526.181558 92.01104 
L 527.161861 94.05836 
L 528.142164 95.71364 
L 530.10277 98.24012 
L 532.063376 99.6776 
L 533.043679 100.72304 
L 535.004285 101.37644 
L 535.984588 101.42 
L 536.964891 101.24576 
L 537.945194 100.63592 
L 538.925497 100.41812 
L 539.9058 99.76472 
L 540.886104 98.50148 
L 541.866407 96.1928 
L 542.84671 94.97312 
L 543.827013 92.66444 
L 544.807316 90.00728 
L 545.787619 90.3122 
L 546.767922 86.69672 
L 547.748225 78.59456 
L 548.728528 77.72336 
L 549.708831 65.09096 
L 550.689134 57.51152 
L 551.669437 54.28808 
L 552.64974 42.13484 
L 553.630043 20.04992 
L 554.610346 25.05932 
L 555.590649 25.4078 
L 556.570952 24.44948 
L 557.551255 33.55352 
L 558.531558 30.72212 
L 559.511861 28.8926 
L 560.492164 27.41156 
L 561.472467 19.48364 
L 562.45277 26.54036 
L 563.433073 38.4758 
L 564.413376 41.525 
L 565.393679 47.71052 
L 567.354285 66.04928 
L 568.334588 71.66852 
L 569.314891 74.28212 
L 570.295194 76.46012 
L 572.255801 82.12292 
L 573.236104 86.174 
L 574.216407 89.6588 
L 575.19671 92.57732 
L 576.177013 94.36328 
L 577.157316 96.54128 
L 579.117922 98.41436 
L 580.098225 98.8064 
L 581.078528 99.37268 
L 582.058831 100.67948 
L 583.039134 101.59424 
L 584.019437 105.42752 
L 584.99974 108.3896 
L 585.980043 109.39148 
L 586.960346 108.43316 
L 587.940649 103.33664 
L 588.920952 101.55068 
L 589.901255 101.24576 
L 590.881558 100.20032 
L 591.861861 93.92768 
L 592.842164 93.53564 
L 594.80277 78.50744 
L 595.783073 62.78228 
L 597.743679 58.90544 
L 598.723982 43.18028 
L 599.704285 44.61776 
L 600.684588 32.63876 
L 601.664891 36.55916 
L 602.645194 36.5156 
L 603.625497 44.83556 
L 604.605801 51.5438 
L 605.586104 50.80328 
L 606.566407 44.66132 
L 607.54671 47.44916 
L 608.527013 49.67072 
L 609.507316 56.64032 
L 610.487619 61.95464 
L 611.467922 65.83148 
L 612.448225 72.6704 
L 613 74.631861 
L 613 74.631861 
" style="fill:none;stroke:#ff0000;stroke-linecap:round;"/>
   </g>
   <g id="patch_3">
    <path d="M 41.175 123.2 
L 41.175 14.3 
" style="fill:none;stroke:#000000;stroke-linecap:square;stroke-linejoin:miter;stroke-width:1.5;"/>
   </g>
   <g id="patch_4">
    <path d="M 558.775 123.2 
L 558.775 14.3 
" style="fill:none;stroke:#000000;stroke-linecap:square;stroke-linejoin:miter;stroke-width:1.5;"/>
   </g>
   <g id="patch_5">
    <path d="M 41.175 123.2 
L 558.775 123.2 
" style="fill:none;stroke:#000000;stroke-linecap:square;stroke-linejoin:miter;stroke-width:1.5;"/>
   </g>
   <g id="patch_6">
    <path d="M 41.175 14.3 
L 558.775 14.3 
" style="fill:none;stroke:#000000;stroke-linecap:square;stroke-linejoin:miter;stroke-width:1.5;"/>
   </g>
   <g id="legend_1">
    <g id="line2d_20">
     <path d="M 50.175 108.7125 
L 70.175 108.7125 
" style="fill:none;stroke:#ff0000;stroke-linecap:round;"/>
    </g>
    <g id="line2d_21"/>
    <g id="text_21">
     <text style="fill:#262626;font-family:Arial;font-size:10px;font-style:normal;font-weight:normal;text-anchor:start;" transform="rotate(-0, 78.175, 112.2125)" x="78.175" y="112.2125">Temperature</text>
    </g>
   </g>
  </g>
  <g id="axes_2">
   <g id="matplotlib.axis_3">
    <g id="ytick_7">
     <g id="line2d_22">
      <defs>
       <path d="M 0 0 
L 2.5 0 
" id="mb2e69aaf6e" style="stroke:#000000;"/>
      </defs>
      <g>
       <use style="stroke:#000000;" x="558.775" xlink:href="#mb2e69aaf6e" y="123.2"/>
      </g>
     </g>
     <g id="text_22">
      <text style="font-family:Arial;font-size:10px;font-style:normal;font-weight:normal;text-anchor:start;" transform="rotate(-0, 564.775, 126.778906)" x="564.775" y="126.778906">0</text>
     </g>
    </g>
    <g id="ytick_8">
     <g id="line2d_23">
      <g>
       <use style="stroke:#000000;" x="558.775" xlink:href="#mb2e69aaf6e" y="107.642857"/>
      </g>
     </g>
     <g id="text_23">
      <text style="font-family:Arial;font-size:10px;font-style:normal;font-weight:normal;text-anchor:start;" transform="rotate(-0, 564.775, 111.221763)" x="564.775" y="111.221763">100</text>
     </g>
    </g>
    <g id="ytick_9">
     <g id="line2d_24">
      <g>
       <use style="stroke:#000000;" x="558.775" xlink:href="#mb2e69aaf6e" y="92.085714"/>
      </g>
     </g>
     <g id="text_24">
      <text style="font-family:Arial;font-size:10px;font-style:normal;font-weight:normal;text-anchor:start;" transform="rotate(-0, 564.775, 95.664621)" x="564.775" y="95.664621">200</text>
     </g>
    </g>
    <g id="ytick_10">
     <g id="line2d_25">
      <g>
       <use style="stroke:#000000;" x="558.775" xlink:href="#mb2e69aaf6e" y="76.528571"/>
      </g>
     </g>
     <g id="text_25">
      <text style="font-family:Arial;font-size:10px;font-style:normal;font-weight:normal;text-anchor:start;" transform="rotate(-0, 564.775, 80.107478)" x="564.775" y="80.107478">300</text>
     </g>
    </g>
    <g id="ytick_11">
     <g id="line2d_26">
      <g>
       <use style="stroke:#000000;" x="558.775" xlink:href="#mb2e69aaf6e" y="60.971429"/>
      </g>
     </g>
     <g id="text_26">
      <text style="font-family:Arial;font-size:10px;font-style:normal;font-weight:normal;text-anchor:start;" transform="rotate(-0, 564.775, 64.550335)" x="564.775" y="64.550335">400</text>
     </g>
    </g>
    <g id="ytick_12">
     <g id="line2d_27">
      <g>
       <use style="stroke:#000000;" x="558.775" xlink:href="#mb2e69aaf6e" y="45.414286"/>
      </g>
     </g>
     <g id="text_27">
      <text style="font-family:Arial;font-size:10px;font-style:normal;font-weight:normal;text-anchor:start;" transform="rotate(-0, 564.775, 48.993192)" x="564.775" y="48.993192">500</text>
     </g>
    </g>
    <g id="ytick_13">
     <g id="line2d_28">
      <g>
       <use style="stroke:#000000;" x="558.775" xlink:href="#mb2e69aaf6e" y="29.857143"/>
      </g>
     </g>
     <g id="text_28">
      <text style="font-family:Arial;font-size:10px;font-style:normal;font-weight:normal;text-anchor:start;" transform="rotate(-0, 564.775, 33.436049)" x="564.775" y="33.436049">600</text>
     </g>
    </g>
    <g id="ytick_14">
     <g id="line2d_29">
      <g>
       <use style="stroke:#000000;" x="558.775" xlink:href="#mb2e69aaf6e" y="14.3"/>
      </g>
     </g>
     <g id="text_29">
      <text style="font-family:Arial;font-size:10px;font-style:normal;font-weight:normal;text-anchor:start;" transform="rotate(-0, 564.775, 17.878906)" x="564.775" y="17.878906">700</text>
     </g>
    </g>
    <g id="text_30">
     <!-- PAR ($\mu$mol $m^{-2}$ $s^{-1}$) -->
     <g transform="translate(594.557812 116.3)rotate(-90)">
      <text>
       <tspan style="font-family:Arial;font-size:10px;font-style:regular;font-weight:regular;" x="0 6.669922 13.339844 20.561523 23.339844 33.032227 41.362305 46.923828 49.145508 72.721439 91.76612" y="-0.9765625">PAR (mol  )</tspan>
       <tspan style="font-family:DejaVu Sans;font-size:10px;font-style:oblique;font-weight:oblique;" x="26.669922 51.923828 75.499759" y="-0.9765625">μms</tspan>
       <tspan style="font-family:DejaVu Sans;font-size:7px;font-style:book;font-weight:book;" x="62.129154 67.994388 81.173835 87.039069" y="-4.8046875">−2−1</tspan>
      </text>
     </g>
    </g>
   </g>
   <g id="line2d_30">
    <path clip-path="url(#pbf8c69e8e8)" d="M 56.616407 122.730174 
L 57.59671 122.812627 
L 60.537619 122.750399 
L 71.320952 122.727063 
L 72.301255 122.596383 
L 75.242164 122.81885 
L 76.222467 122.224567 
L 77.20277 122.153004 
L 78.183073 122.73173 
L 79.163376 122.765956 
L 80.143679 122.417476 
L 81.123982 122.479704 
L 82.104285 122.319466 
L 83.084588 121.317586 
L 84.064891 121.560277 
L 85.045194 121.123121 
L 86.025497 121.09823 
L 87.005801 121.670733 
L 87.986104 121.667621 
L 88.966407 122.734841 
L 89.94671 122.817294 
L 90.927013 121.420263 
L 91.907316 122.741064 
L 92.887619 122.244791 
L 93.867922 122.375471 
L 94.848225 122.79707 
L 95.828528 122.790847 
L 96.808831 121.890089 
L 97.789134 122.560601 
L 98.769437 122.80796 
L 100.730043 122.828184 
L 101.710346 122.664834 
L 106.559578 122.706839 
L 106.584222 122.101666 
L 106.630378 122.769067 
L 106.669862 122.759733 
L 106.700905 122.75351 
L 106.6926 122.769067 
L 106.711389 122.755066 
L 114.454285 122.702171 
L 117.395194 122.534154 
L 122.29671 122.048771 
L 124.257316 121.488714 
L 126.217922 121.169793 
L 127.198225 120.84776 
L 128.178528 120.799533 
L 129.158831 120.505503 
L 130.139134 120.474389 
L 131.119437 119.984339 
L 133.080043 121.358034 
L 134.060346 121.149569 
L 135.040649 121.292694 
L 136.020952 120.121241 
L 137.001255 120.922434 
L 137.981558 120.743527 
L 138.961861 120.340597 
L 139.942164 120.583289 
L 140.922467 120.679743 
L 141.90277 120.429273 
L 142.883073 120.970661 
L 143.863376 121.288027 
L 144.843679 121.006443 
L 146.804285 122.062773 
L 148.764891 122.39414 
L 149.745194 122.33969 
L 155.627013 122.744176 
L 161.508831 122.661723 
L 166.410346 122.261904 
L 168.370952 121.796746 
L 169.351255 122.10011 
L 170.331558 121.84964 
L 171.311861 121.960096 
L 173.272467 121.353367 
L 174.25277 120.740416 
L 175.233073 120.835314 
L 176.213376 121.213353 
L 177.193679 120.463499 
L 179.154285 119.872327 
L 181.114891 119.220483 
L 182.095194 120.315706 
L 183.075497 118.251273 
L 184.055801 119.038464 
L 185.036104 118.707097 
L 186.016407 118.943566 
L 186.99671 120.099461 
L 187.977013 120.385713 
L 188.957316 120.888209 
L 189.937619 121.018889 
L 190.917922 121.558721 
L 191.898225 121.04378 
L 192.878528 121.510494 
L 193.858831 122.151449 
L 197.780043 122.563713 
L 199.740649 122.714617 
L 203.661861 122.778401 
L 208.563376 122.639943 
L 212.484588 122.28524 
L 213.464891 122.072107 
L 214.445194 121.300473 
L 215.425497 121.86053 
L 216.4058 121.303584 
L 217.386104 121.295806 
L 218.366407 121.051559 
L 219.34671 121.95854 
L 220.327013 120.2597 
L 222.287619 119.881661 
L 223.267922 120.155467 
L 224.248225 118.619977 
L 225.228528 118.576417 
L 226.208831 119.467841 
L 227.189134 119.967226 
L 228.169437 119.590743 
L 229.14974 120.846204 
L 230.130043 120.628404 
L 231.110346 119.110027 
L 232.090649 119.316937 
L 233.070952 119.884773 
L 234.051255 119.869216 
L 235.031558 120.146133 
L 236.992164 121.480936 
L 237.972467 121.319141 
L 238.95277 121.554054 
L 239.933073 121.560277 
L 240.913376 121.787411 
L 241.893679 121.756297 
L 242.873982 122.18723 
L 243.854285 122.457924 
L 248.755801 122.751954 
L 253.657316 122.744176 
L 256.598225 122.674169 
L 257.578528 122.499929 
L 258.558831 122.028547 
L 259.539134 121.911869 
L 260.519437 121.16357 
L 261.49974 121.81697 
L 263.460346 122.059661 
L 264.440649 120.867984 
L 265.420952 120.42305 
L 266.401255 120.185026 
L 268.361861 119.393167 
L 269.342164 119.691864 
L 270.322467 119.139586 
L 271.30277 119.173811 
L 272.283073 119.026019 
L 273.263376 118.391287 
L 274.243679 119.019796 
L 275.223982 119.091359 
L 276.204285 118.151707 
L 277.184588 118.352394 
L 278.164891 118.206157 
L 279.145194 117.390963 
L 280.125497 116.89469 
L 281.105801 117.63521 
L 282.086104 119.019796 
L 283.066407 119.699643 
L 284.04671 120.188137 
L 285.027013 119.657639 
L 286.007316 119.999896 
L 286.987619 121.255357 
L 287.967922 121.706514 
L 288.948225 121.465379 
L 289.928528 122.075219 
L 290.908831 122.173229 
L 291.889134 122.39414 
L 293.84974 122.583937 
L 295.810346 122.702171 
L 300.711861 122.646166 
L 304.633073 122.23079 
L 305.613376 121.720516 
L 306.593679 121.820081 
L 307.573982 121.339366 
L 308.554285 121.384481 
L 309.534588 120.116574 
L 310.514891 120.53195 
L 311.495194 119.474064 
L 312.475497 119.875439 
L 313.455801 118.56086 
L 314.436104 38.676487 
L 315.416407 35.068786 
L 316.39671 66.481769 
L 317.377013 70.366387 
L 318.357316 31.328849 
L 319.337619 45.36917 
L 320.317922 50.979076 
L 322.278528 22.182804 
L 329.140649 22.182804 
L 330.120952 53.784029 
L 332.081558 77.504004 
L 333.061861 87.92729 
L 334.042164 105.110154 
L 335.022467 90.337091 
L 336.00277 90.100623 
L 336.983073 98.996197 
L 337.963376 105.49286 
L 338.943679 113.070744 
L 339.923982 115.22852 
L 340.904285 117.011369 
L 341.884588 118.308834 
L 342.864891 119.103804 
L 343.845194 119.299824 
L 344.825497 119.749426 
L 346.786104 119.651416 
L 347.766407 118.903117 
L 348.74671 117.94013 
L 350.707316 115.170959 
L 352.667922 112.278886 
L 353.648225 106.947453 
L 354.628528 104.847239 
L 355.608831 103.202849 
L 356.589134 103.331973 
L 357.569437 88.420451 
L 358.54974 90.092844 
L 359.530043 48.611279 
L 360.510346 37.86596 
L 361.490649 52.352771 
L 362.470952 48.206793 
L 363.451255 85.707286 
L 364.431558 88.339554 
L 365.411861 22.182804 
L 372.273982 22.182804 
L 373.254285 23.901869 
L 374.234588 22.182804 
L 375.214891 24.267461 
L 376.195194 41.150073 
L 377.175497 42.108393 
L 378.1558 61.803736 
L 379.136104 68.907127 
L 380.116407 82.80899 
L 381.09671 93.963461 
L 382.077013 96.234804 
L 384.037619 107.831099 
L 385.017922 112.868501 
L 385.998225 113.478341 
L 386.978528 115.645451 
L 387.958831 116.518207 
L 388.939134 118.585751 
L 389.919437 119.500511 
L 390.89974 119.774317 
L 391.880043 120.180359 
L 392.860346 120.175691 
L 393.840649 120.024787 
L 394.820952 119.545627 
L 395.801255 119.746314 
L 396.781558 118.921786 
L 397.761861 116.137057 
L 399.722467 108.097126 
L 400.70277 105.267281 
L 401.683073 99.662043 
L 403.643679 76.03541 
L 404.623982 67.765233 
L 405.604285 55.534207 
L 406.584588 47.598509 
L 407.564891 36.019327 
L 408.545194 32.195381 
L 409.525497 29.952041 
L 410.505801 22.182804 
L 422.269437 22.182804 
L 423.24974 110.086884 
L 424.230043 108.178023 
L 425.210346 110.463367 
L 426.190649 67.452534 
L 427.170952 82.248933 
L 428.151255 93.80789 
L 429.131558 100.911281 
L 430.111861 103.32575 
L 432.072467 110.7854 
L 434.033073 115.629894 
L 435.013376 117.420521 
L 435.993679 118.730433 
L 436.973982 119.666973 
L 437.954285 120.35771 
L 438.934588 120.615959 
L 440.895194 120.413716 
L 442.855801 119.209593 
L 443.836104 117.748777 
L 444.816407 116.89469 
L 445.79671 115.167847 
L 446.777013 115.029389 
L 447.757316 112.492019 
L 448.737619 110.844517 
L 449.717922 108.638514 
L 450.698225 107.635079 
L 451.678528 105.956463 
L 452.658831 104.923469 
L 453.639134 103.598 
L 454.619437 86.259564 
L 455.59974 32.803666 
L 456.580043 22.182804 
L 469.323982 22.182804 
L 470.304285 66.046169 
L 471.284588 58.135361 
L 472.264891 83.50595 
L 473.245194 75.626257 
L 474.225497 85.911084 
L 475.205801 91.027829 
L 476.186104 83.89799 
L 477.166407 99.854951 
L 478.14671 101.836931 
L 479.127013 110.592491 
L 480.107316 112.856056 
L 481.087619 116.473091 
L 483.048225 119.847436 
L 485.989134 121.2398 
L 486.969437 121.046891 
L 487.94974 120.421494 
L 488.930043 119.251597 
L 489.910346 117.658546 
L 490.890649 113.291656 
L 491.870952 111.211666 
L 492.851255 109.89242 
L 494.811861 101.972279 
L 495.792164 92.90402 
L 496.772467 85.375919 
L 497.75277 84.190464 
L 498.733073 66.371313 
L 500.693679 87.896176 
L 501.673982 55.563766 
L 502.654285 43.127386 
L 503.634588 25.638046 
L 504.614891 73.065551 
L 505.595194 31.566873 
L 506.575497 37.781951 
L 507.555801 22.182804 
L 508.536104 40.464003 
L 509.516407 29.311087 
L 510.49671 26.67104 
L 511.477013 22.182804 
L 512.457316 41.140739 
L 513.437619 33.103919 
L 514.417922 43.944136 
L 515.398225 29.770023 
L 516.378528 22.182804 
L 517.358831 35.39393 
L 518.339134 51.854943 
L 519.319437 32.1596 
L 520.29974 69.106259 
L 521.280043 84.406709 
L 522.260346 78.070284 
L 524.220952 104.598324 
L 525.201255 105.635986 
L 526.181558 110.933193 
L 529.122467 119.601633 
L 530.10277 119.466286 
L 531.083073 120.213029 
L 532.063376 120.595734 
L 534.023982 120.900654 
L 535.004285 120.712413 
L 535.984588 120.076126 
L 536.964891 119.220483 
L 537.945194 116.105943 
L 538.925497 115.012276 
L 539.9058 112.978957 
L 540.886104 107.24615 
L 541.866407 104.007153 
L 542.84671 105.200386 
L 543.827013 94.002354 
L 544.807316 85.89086 
L 545.787619 75.520469 
L 546.767922 63.253661 
L 547.748225 58.52429 
L 548.728528 43.435417 
L 549.708831 22.182804 
L 550.689134 39.591247 
L 551.669437 22.182804 
L 554.610346 22.182804 
L 555.590649 42.061721 
L 556.570952 22.182804 
L 557.551255 52.847489 
L 558.531558 22.182804 
L 560.492164 22.182804 
L 561.472467 25.773393 
L 562.45277 41.420767 
L 563.433073 59.215027 
L 564.413376 54.840359 
L 567.354285 81.800887 
L 568.334588 77.93027 
L 569.314891 83.467057 
L 570.295194 91.482097 
L 571.275497 97.364253 
L 572.255801 101.007736 
L 573.236104 108.409824 
L 575.19671 117.414299 
L 576.177013 119.15981 
L 578.137619 121.096674 
L 579.117922 121.46849 
L 581.078528 120.98933 
L 582.058831 120.68441 
L 584.019437 119.520736 
L 584.99974 118.826887 
L 585.980043 117.168496 
L 586.960346 114.788253 
L 587.940649 108.18269 
L 588.920952 102.75947 
L 589.901255 101.852489 
L 590.881558 97.69562 
L 591.861861 103.535771 
L 592.842164 77.074627 
L 593.822467 56.452079 
L 594.80277 48.349919 
L 595.783073 30.630333 
L 596.763376 35.899537 
L 597.743679 32.1596 
L 598.723982 22.182804 
L 599.704285 22.182804 
L 600.684588 56.014923 
L 601.664891 22.182804 
L 603.625497 22.182804 
L 604.605801 39.712593 
L 605.586104 22.182804 
L 607.54671 22.182804 
L 608.527013 28.203419 
L 609.507316 64.367553 
L 610.487619 58.684529 
L 611.467922 63.78416 
L 612.448225 76.164534 
L 613 76.170664 
L 613 76.170664 
" style="fill:none;stroke:#000000;stroke-linecap:round;"/>
   </g>
   <g id="patch_7">
    <path d="M 41.175 123.2 
L 41.175 14.3 
" style="fill:none;stroke:#000000;stroke-linecap:square;stroke-linejoin:miter;stroke-width:1.5;"/>
   </g>
   <g id="patch_8">
    <path d="M 558.775 123.2 
L 558.775 14.3 
" style="fill:none;stroke:#000000;stroke-linecap:square;stroke-linejoin:miter;stroke-width:1.5;"/>
   </g>
   <g id="patch_9">
    <path d="M 41.175 123.2 
L 558.775 123.2 
" style="fill:none;stroke:#000000;stroke-linecap:square;stroke-linejoin:miter;stroke-width:1.5;"/>
   </g>
   <g id="patch_10">
    <path d="M 41.175 14.3 
L 558.775 14.3 
" style="fill:none;stroke:#000000;stroke-linecap:square;stroke-linejoin:miter;stroke-width:1.5;"/>
   </g>
   <g id="legend_2">
    <g id="line2d_31">
     <path d="M 50.175 26.957812 
L 70.175 26.957812 
" style="fill:none;stroke:#000000;stroke-linecap:round;"/>
    </g>
    <g id="line2d_32"/>
    <g id="text_31">
     <text style="fill:#262626;font-family:Arial;font-size:10px;font-style:normal;font-weight:normal;text-anchor:start;" transform="rotate(-0, 78.175, 30.457812)" x="78.175" y="30.457812">PAR</text>
    </g>
   </g>
  </g>
 </g>
 <defs>
  <clipPath id="pbf8c69e8e8">
   <rect height="108.9" width="517.6" x="41.175" y="14.3"/>
  </clipPath>
 </defs>
</svg>
