<?xml version="1.0" encoding="utf-8" standalone="no"?>
<!DOCTYPE svg PUBLIC "-//W3C//DTD SVG 1.1//EN"
  "http://www.w3.org/Graphics/SVG/1.1/DTD/svg11.dtd">
<!-- Created with matplotlib (http://matplotlib.org/) -->
<svg height="396pt" version="1.1" viewBox="0 0 162 396" width="162pt" xmlns="http://www.w3.org/2000/svg" xmlns:xlink="http://www.w3.org/1999/xlink">
 <defs>
  <style type="text/css">
*{stroke-linecap:butt;stroke-linejoin:round;}
  </style>
 </defs>
 <g id="figure_1">
  <g id="patch_1">
   <path d="M 0 396 
L 162 396 
L 162 0 
L 0 0 
z
" style="fill:#ffffff;"/>
  </g>
  <g id="axes_1">
   <g id="patch_2">
    <path d="M 20.25 346.5 
L 145.8 346.5 
L 145.8 47.52 
L 20.25 47.52 
z
" style="fill:#ffffff;"/>
   </g>
   <g id="matplotlib.axis_1">
    <g id="xtick_1">
     <g id="line2d_1">
      <defs>
       <path d="M 0 0 
L 0 2 
" id="m30d0fca52b" style="stroke:#808080;"/>
      </defs>
      <g>
       <use style="fill:#808080;stroke:#808080;" x="45.36" xlink:href="#m30d0fca52b" y="346.5"/>
      </g>
     </g>
     <g id="text_1">
      <text style="fill:#808080;font-family:Arial;font-size:10px;font-style:normal;font-weight:normal;text-anchor:middle;" transform="rotate(-0, 45.36, 359.157812)" x="45.36" y="359.157812">−2</text>
     </g>
    </g>
    <g id="xtick_2">
     <g id="line2d_2">
      <g>
       <use style="fill:#808080;stroke:#808080;" x="95.58" xlink:href="#m30d0fca52b" y="346.5"/>
      </g>
     </g>
     <g id="text_2">
      <text style="fill:#808080;font-family:Arial;font-size:10px;font-style:normal;font-weight:normal;text-anchor:middle;" transform="rotate(-0, 95.58, 359.157812)" x="95.58" y="359.157812">−1</text>
     </g>
    </g>
    <g id="xtick_3">
     <g id="line2d_3">
      <g>
       <use style="fill:#808080;stroke:#808080;" x="145.8" xlink:href="#m30d0fca52b" y="346.5"/>
      </g>
     </g>
     <g id="text_3">
      <text style="fill:#808080;font-family:Arial;font-size:10px;font-style:normal;font-weight:normal;text-anchor:middle;" transform="rotate(-0, 145.8, 359.157812)" x="145.8" y="359.157812">0</text>
     </g>
    </g>
    <g id="text_4">
     <text style="fill:#262626;font-family:Arial;font-size:10px;font-style:normal;font-weight:normal;text-anchor:middle;" transform="rotate(-0, 83.025, 372.425)" x="83.025" y="372.425">Temperature (°C)</text>
    </g>
   </g>
   <g id="matplotlib.axis_2">
    <g id="ytick_1">
     <g id="line2d_4">
      <defs>
       <path d="M 0 0 
L -2 0 
" id="m92ab178947" style="stroke:#808080;"/>
      </defs>
      <g>
       <use style="fill:#808080;stroke:#808080;" x="20.25" xlink:href="#m92ab178947" y="47.52"/>
      </g>
     </g>
     <g id="text_5">
      <text style="fill:#808080;font-family:Arial;font-size:10px;font-style:normal;font-weight:normal;text-anchor:end;" transform="rotate(-0, 14.75, 51.098906)" x="14.75" y="51.098906">0</text>
     </g>
    </g>
    <g id="ytick_2">
     <g id="line2d_5">
      <g>
       <use style="fill:#808080;stroke:#808080;" x="20.25" xlink:href="#m92ab178947" y="84.8925"/>
      </g>
     </g>
     <g id="text_6">
      <text style="fill:#808080;font-family:Arial;font-size:10px;font-style:normal;font-weight:normal;text-anchor:end;" transform="rotate(-0, 14.75, 88.471406)" x="14.75" y="88.471406">2</text>
     </g>
    </g>
    <g id="ytick_3">
     <g id="line2d_6">
      <g>
       <use style="fill:#808080;stroke:#808080;" x="20.25" xlink:href="#m92ab178947" y="122.265"/>
      </g>
     </g>
     <g id="text_7">
      <text style="fill:#808080;font-family:Arial;font-size:10px;font-style:normal;font-weight:normal;text-anchor:end;" transform="rotate(-0, 14.75, 125.843906)" x="14.75" y="125.843906">5</text>
     </g>
    </g>
    <g id="ytick_4">
     <g id="line2d_7">
      <g>
       <use style="fill:#808080;stroke:#808080;" x="20.25" xlink:href="#m92ab178947" y="159.6375"/>
      </g>
     </g>
     <g id="text_8">
      <text style="fill:#808080;font-family:Arial;font-size:10px;font-style:normal;font-weight:normal;text-anchor:end;" transform="rotate(-0, 14.75, 163.216406)" x="14.75" y="163.216406">7</text>
     </g>
    </g>
    <g id="ytick_5">
     <g id="line2d_8">
      <g>
       <use style="fill:#808080;stroke:#808080;" x="20.25" xlink:href="#m92ab178947" y="197.01"/>
      </g>
     </g>
     <g id="text_9">
      <text style="fill:#808080;font-family:Arial;font-size:10px;font-style:normal;font-weight:normal;text-anchor:end;" transform="rotate(-0, 14.75, 200.588906)" x="14.75" y="200.588906">10</text>
     </g>
    </g>
    <g id="ytick_6">
     <g id="line2d_9">
      <g>
       <use style="fill:#808080;stroke:#808080;" x="20.25" xlink:href="#m92ab178947" y="234.3825"/>
      </g>
     </g>
     <g id="text_10">
      <text style="fill:#808080;font-family:Arial;font-size:10px;font-style:normal;font-weight:normal;text-anchor:end;" transform="rotate(-0, 14.75, 237.961406)" x="14.75" y="237.961406">12</text>
     </g>
    </g>
    <g id="ytick_7">
     <g id="line2d_10">
      <g>
       <use style="fill:#808080;stroke:#808080;" x="20.25" xlink:href="#m92ab178947" y="271.755"/>
      </g>
     </g>
     <g id="text_11">
      <text style="fill:#808080;font-family:Arial;font-size:10px;font-style:normal;font-weight:normal;text-anchor:end;" transform="rotate(-0, 14.75, 275.333906)" x="14.75" y="275.333906">15</text>
     </g>
    </g>
    <g id="ytick_8">
     <g id="line2d_11">
      <g>
       <use style="fill:#808080;stroke:#808080;" x="20.25" xlink:href="#m92ab178947" y="309.1275"/>
      </g>
     </g>
     <g id="text_12">
      <text style="fill:#808080;font-family:Arial;font-size:10px;font-style:normal;font-weight:normal;text-anchor:end;" transform="rotate(-0, 14.75, 312.706406)" x="14.75" y="312.706406">17</text>
     </g>
    </g>
    <g id="ytick_9">
     <g id="line2d_12">
      <g>
       <use style="fill:#808080;stroke:#808080;" x="20.25" xlink:href="#m92ab178947" y="346.5"/>
      </g>
     </g>
     <g id="text_13">
      <text style="fill:#808080;font-family:Arial;font-size:10px;font-style:normal;font-weight:normal;text-anchor:end;" transform="rotate(-0, 14.75, 350.078906)" x="14.75" y="350.078906">20</text>
     </g>
    </g>
    <g id="ytick_10">
     <g id="line2d_13">
      <defs>
       <path d="M 0 0 
L -1 0 
" id="ma527c8fad4" style="stroke:#808080;"/>
      </defs>
      <g>
       <use style="fill:#808080;stroke:#808080;" x="20.25" xlink:href="#ma527c8fad4" y="47.52"/>
      </g>
     </g>
    </g>
    <g id="ytick_11">
     <g id="line2d_14">
      <g>
       <use style="fill:#808080;stroke:#808080;" x="20.25" xlink:href="#ma527c8fad4" y="122.265"/>
      </g>
     </g>
    </g>
    <g id="ytick_12">
     <g id="line2d_15">
      <g>
       <use style="fill:#808080;stroke:#808080;" x="20.25" xlink:href="#ma527c8fad4" y="197.01"/>
      </g>
     </g>
    </g>
    <g id="ytick_13">
     <g id="line2d_16">
      <g>
       <use style="fill:#808080;stroke:#808080;" x="20.25" xlink:href="#ma527c8fad4" y="271.755"/>
      </g>
     </g>
    </g>
    <g id="ytick_14">
     <g id="line2d_17">
      <g>
       <use style="fill:#808080;stroke:#808080;" x="20.25" xlink:href="#ma527c8fad4" y="346.5"/>
      </g>
     </g>
    </g>
    <g id="text_14">
     <text style="fill:#262626;font-family:Arial;font-size:10px;font-style:normal;font-weight:normal;text-anchor:middle;" transform="rotate(-90, -2.476563, 197.01)" x="-2.476563" y="197.01">Depth (m)</text>
    </g>
   </g>
   <g id="line2d_18">
    <path clip-path="url(#pdf39d7ab4d)" d="M 48.8754 397 
L 48.8754 352.77858 
L 49.3776 351.28368 
L 49.3776 349.34031 
L 48.8754 348.74235 
L 49.3776 347.24745 
L 49.3776 345.30408 
L 48.8754 344.40714 
L 49.3776 343.5102 
L 49.3776 342.31428 
L 48.8754 341.56683 
L 48.8754 339.62346 
L 49.3776 338.42754 
L 49.3776 337.5306 
L 48.8754 336.93264 
L 49.3776 336.0357 
L 49.3776 333.34488 
L 48.8754 332.44794 
L 49.3776 332.14896 
L 49.3776 329.75712 
L 48.8754 328.86018 
L 49.3776 327.81375 
L 49.3776 325.87038 
L 48.8754 325.42191 
L 48.8754 324.0765 
L 49.3776 323.32905 
L 49.3776 322.73109 
L 48.8754 321.83415 
L 48.8754 320.78772 
L 49.3776 319.89078 
L 48.8754 318.84435 
L 48.8754 318.24639 
L 49.3776 317.19996 
L 48.8754 316.45251 
L 49.3776 315.25659 
L 48.8754 314.80812 
L 49.3776 313.6122 
L 49.3776 311.07087 
L 48.8754 310.6224 
L 48.8754 309.57597 
L 49.3776 308.82852 
L 48.8754 307.48311 
L 48.8754 306.58617 
L 49.3776 305.68923 
L 49.3776 305.24076 
L 48.8754 303.59637 
L 48.8754 301.80249 
L 49.3776 301.20453 
L 49.3776 299.85912 
L 48.8754 299.56014 
L 49.3776 298.51371 
L 48.8754 297.1683 
L 49.3776 296.42085 
L 48.8754 295.97238 
L 48.8754 293.87952 
L 49.3776 292.53411 
L 48.8754 292.38462 
L 49.3776 290.88972 
L 49.3776 290.29176 
L 48.8754 289.39482 
L 48.8754 288.34839 
L 49.3776 287.60094 
L 49.3776 286.55451 
L 48.8754 285.80706 
L 48.8754 284.61114 
L 49.3776 283.86369 
L 48.8754 282.96675 
L 48.8754 281.32236 
L 49.3776 279.97695 
L 49.3776 278.33256 
L 48.8754 277.43562 
L 49.3776 276.38919 
L 49.3776 275.34276 
L 48.8754 274.14684 
L 48.8754 273.54888 
L 49.3776 272.35296 
L 48.8754 271.30653 
L 48.8754 269.51265 
L 49.3776 268.46622 
L 49.3776 266.67234 
L 48.8754 265.92489 
L 49.3776 265.17744 
L 49.3776 262.93509 
L 48.8754 262.63611 
L 48.8754 260.54325 
L 49.3776 259.7958 
L 48.8754 258.74937 
L 49.3776 257.85243 
L 49.3776 256.95549 
L 48.8754 255.90906 
L 48.8754 253.36773 
L 49.3776 252.17181 
L 48.8754 251.42436 
L 48.8754 242.60445 
L 49.3776 241.55802 
L 48.8754 240.81057 
L 48.8754 236.92383 
L 48.3732 235.8774 
L 48.8754 235.12995 
L 48.8754 225.11412 
L 48.3732 224.36667 
L 48.8754 223.46973 
L 48.8754 217.63962 
L 48.3732 216.4437 
L 48.8754 216.14472 
L 48.3732 214.79931 
L 48.3732 207.02583 
L 47.871 206.42787 
L 48.3732 205.53093 
L 48.3732 203.28858 
L 47.871 202.69062 
L 47.871 185.79825 
L 47.3688 184.75182 
L 47.871 183.85488 
L 47.871 178.32375 
L 47.3688 177.42681 
L 47.871 176.97834 
L 47.871 174.5865 
L 47.3688 173.68956 
L 47.871 172.79262 
L 47.871 170.55027 
L 47.3688 169.95231 
L 47.871 168.75639 
L 47.3688 168.00894 
L 47.871 166.96251 
L 47.3688 166.21506 
L 47.871 165.6171 
L 47.871 163.67373 
L 47.3688 162.47781 
L 47.871 161.28189 
L 47.3688 160.53444 
L 47.3688 157.69413 
L 47.871 156.94668 
L 47.871 155.60127 
L 47.3688 154.70433 
L 47.3688 153.6579 
L 47.871 153.05994 
L 47.871 152.163 
L 47.3688 151.11657 
L 47.3688 150.07014 
L 47.871 149.02371 
L 47.3688 147.97728 
L 47.3688 136.01808 
L 46.8666 135.86859 
L 47.3688 134.67267 
L 47.3688 132.7293 
L 46.8666 131.98185 
L 47.3688 131.2344 
L 47.3688 129.29103 
L 46.8666 128.39409 
L 47.3688 127.19817 
L 47.3688 125.55378 
L 46.8666 124.95582 
L 47.3688 124.20837 
L 47.3688 121.81653 
L 46.8666 121.06908 
L 47.3688 120.02265 
L 47.3688 118.07928 
L 46.8666 117.03285 
L 47.3688 116.58438 
L 47.3688 114.49152 
L 46.8666 113.44509 
L 47.3688 112.54815 
L 47.3688 110.45529 
L 46.8666 110.00682 
L 47.3688 108.8109 
L 47.3688 106.41906 
L 46.8666 105.97059 
L 46.8666 105.07365 
L 47.3688 103.27977 
L 46.8666 102.08385 
L 47.3688 101.03742 
L 47.3688 99.54252 
L 46.8666 98.49609 
L 47.3688 97.44966 
L 47.3688 93.8619 
L 47.871 92.66598 
L 47.871 90.72261 
L 48.3732 89.82567 
L 47.871 88.48026 
L 48.3732 87.8823 
L 48.3732 86.83587 
L 48.8754 85.63995 
L 48.8754 82.20168 
L 49.3776 81.45423 
L 49.3776 80.25831 
L 49.8798 79.66035 
L 51.8886 79.06239 
L 53.8974 78.01596 
L 55.9062 77.11902 
L 57.915 77.11902 
L 59.9238 76.07259 
L 63.4392 75.17565 
L 64.4436 74.27871 
L 65.9502 73.97973 
L 66.9546 73.23228 
L 67.959 73.08279 
L 67.959 72.78381 
L 68.9634 72.03636 
L 69.9678 71.73738 
L 70.47 70.98993 
L 70.9722 70.69095 
L 71.4744 70.54146 
L 71.9766 70.24248 
L 72.4788 70.09299 
L 73.4832 69.49503 
L 73.9854 69.49503 
L 74.4876 69.34554 
L 74.9898 68.74758 
L 75.492 68.59809 
L 75.9942 68.00013 
L 75.9942 67.40217 
L 75.9942 67.40217 
L 76.4964 67.40217 
L 76.9986 66.65472 
L 77.5008 66.35574 
L 77.5008 65.90727 
L 78.5052 65.90727 
L 79.0074 65.60829 
L 79.5096 65.4588 
L 79.5096 65.30931 
L 81.0162 64.86084 
L 81.0162 64.56186 
L 81.5184 64.11339 
L 82.0206 63.81441 
L 82.5228 63.66492 
L 83.025 63.9639 
L 83.025 64.11339 
L 83.5272 63.9639 
L 84.0294 63.66492 
L 84.5316 63.9639 
L 84.0294 63.66492 
L 84.5316 63.51543 
L 84.5316 63.36594 
L 84.5316 63.66492 
L 84.0294 63.81441 
L 84.5316 63.51543 
L 84.5316 63.51543 
L 85.0338 63.9639 
L 85.0338 63.51543 
L 85.536 63.36594 
L 85.536 63.51543 
L 86.0382 63.36594 
L 85.536 63.66492 
L 86.0382 63.51543 
L 86.0382 63.06696 
L 86.0382 63.51543 
L 86.5404 63.06696 
L 86.5404 63.51543 
L 86.5404 62.31951 
L 87.0426 62.91747 
L 87.0426 61.72155 
L 87.5448 61.57206 
L 87.5448 61.57206 
L 87.0426 61.57206 
L 87.5448 61.12359 
L 88.047 61.57206 
L 88.047 60.82461 
L 88.5492 60.52563 
L 88.5492 60.82461 
L 89.0514 60.67512 
L 88.5492 60.07716 
L 89.5536 60.67512 
L 89.5536 60.22665 
L 89.0514 60.22665 
L 89.5536 59.77818 
L 89.5536 59.92767 
L 89.5536 58.88124 
L 90.0558 58.88124 
L 89.5536 58.73175 
L 90.558 58.13379 
L 90.558 57.23685 
L 90.558 57.38634 
L 91.0602 57.08736 
L 91.5624 57.08736 
L 91.5624 56.4894 
L 92.0646 56.78838 
L 92.5668 55.44297 
L 92.5668 56.19042 
L 92.5668 56.19042 
L 93.5712 55.74195 
L 93.5712 55.29348 
L 93.069 55.14399 
L 94.0734 54.54603 
L 94.5756 54.39654 
L 94.5756 54.54603 
L 95.0778 54.24705 
L 95.0778 53.79858 
L 95.58 53.79858 
L 95.58 51.85521 
L 96.0822 51.55623 
L 96.0822 50.95827 
L 96.0822 51.55623 
L 96.5844 51.55623 
L 96.5844 50.5098 
L 96.5844 50.95827 
L 96.0822 50.36031 
L 96.0822 50.80878 
L 96.0822 49.61286 
L 96.0822 49.76235 
" style="fill:none;stroke:#ff0000;stroke-linecap:round;stroke-width:1.5;"/>
   </g>
   <g id="patch_3">
    <path d="M 20.25 346.5 
L 20.25 47.52 
" style="fill:none;stroke:#000000;stroke-linecap:square;stroke-linejoin:miter;stroke-width:0.5;"/>
   </g>
   <g id="patch_4">
    <path d="M 145.8 346.5 
L 145.8 47.52 
" style="fill:none;stroke:#000000;stroke-linecap:square;stroke-linejoin:miter;stroke-width:0.5;"/>
   </g>
   <g id="patch_5">
    <path d="M 20.25 346.5 
L 145.8 346.5 
" style="fill:none;stroke:#000000;stroke-linecap:square;stroke-linejoin:miter;stroke-width:0.5;"/>
   </g>
   <g id="patch_6">
    <path d="M 20.25 47.52 
L 145.8 47.52 
" style="fill:none;stroke:#000000;stroke-linecap:square;stroke-linejoin:miter;stroke-width:0.5;"/>
   </g>
  </g>
  <g id="axes_2">
   <g id="matplotlib.axis_3">
    <g id="xtick_4">
     <g id="line2d_19">
      <defs>
       <path d="M 0 0 
L 0 -2 
" id="m7587137883" style="stroke:#808080;"/>
      </defs>
      <g>
       <use style="fill:#808080;stroke:#808080;" x="28.096875" xlink:href="#m7587137883" y="47.52"/>
      </g>
     </g>
     <g id="text_15">
      <text style="fill:#808080;font-family:Arial;font-size:10px;font-style:normal;font-weight:normal;text-anchor:middle;" transform="rotate(-0, 28.096875, 40.0325)" x="28.096875" y="40.0325">0</text>
     </g>
    </g>
    <g id="xtick_5">
     <g id="line2d_20">
      <g>
       <use style="fill:#808080;stroke:#808080;" x="59.484375" xlink:href="#m7587137883" y="47.52"/>
      </g>
     </g>
     <g id="text_16">
      <text style="fill:#808080;font-family:Arial;font-size:10px;font-style:normal;font-weight:normal;text-anchor:middle;" transform="rotate(-0, 59.484375, 40.0325)" x="59.484375" y="40.0325">2</text>
     </g>
    </g>
    <g id="xtick_6">
     <g id="line2d_21">
      <g>
       <use style="fill:#808080;stroke:#808080;" x="90.871875" xlink:href="#m7587137883" y="47.52"/>
      </g>
     </g>
     <g id="text_17">
      <text style="fill:#808080;font-family:Arial;font-size:10px;font-style:normal;font-weight:normal;text-anchor:middle;" transform="rotate(-0, 90.871875, 40.0325)" x="90.871875" y="40.0325">4</text>
     </g>
    </g>
    <g id="xtick_7">
     <g id="line2d_22">
      <g>
       <use style="fill:#808080;stroke:#808080;" x="122.259375" xlink:href="#m7587137883" y="47.52"/>
      </g>
     </g>
     <g id="text_18">
      <text style="fill:#808080;font-family:Arial;font-size:10px;font-style:normal;font-weight:normal;text-anchor:middle;" transform="rotate(-0, 122.259375, 40.0325)" x="122.259375" y="40.0325">6</text>
     </g>
    </g>
    <g id="text_19">
     <!-- PAR ($\mu$mol m-2 s-1) -->
     <g style="fill:#262626;" transform="translate(38.425 28.874687)">
      <text>
       <tspan style="font-family:Arial;font-size:10px;font-style:regular;font-weight:regular;" x="0 6.669922 13.339844 20.561523 23.339844 33.032227 41.362305 46.923828 49.145508 51.923828 60.253906 63.583984 69.145508 71.923828 76.923828 80.253906 85.81543" y="-0.71875">PAR (mol m-2 s-1)</tspan>
       <tspan style="font-family:DejaVu Sans;font-size:10px;font-style:oblique;font-weight:oblique;" x="26.669922" y="-0.71875">μ</tspan>
      </text>
     </g>
    </g>
   </g>
   <g id="line2d_23">
    <path clip-path="url(#pdf39d7ab4d)" d="M 68.511828 397 
L 72.196313 352.77858 
L 72.981 351.28368 
L 72.510188 350.38674 
L 72.510188 349.34031 
L 72.35325 348.74235 
L 72.667125 347.24745 
L 73.294875 346.35051 
L 73.137938 345.30408 
L 73.137938 344.40714 
L 72.981 343.5102 
L 72.981 342.31428 
L 72.667125 341.56683 
L 73.294875 340.96887 
L 73.137938 339.62346 
L 73.137938 338.42754 
L 73.765688 337.5306 
L 73.60875 336.93264 
L 73.922625 336.0357 
L 73.765688 334.83978 
L 73.765688 333.34488 
L 74.2365 330.65406 
L 74.707313 329.75712 
L 74.393438 328.86018 
L 74.550375 327.81375 
L 75.178125 327.51477 
L 74.707313 325.87038 
L 74.707313 324.0765 
L 74.550375 323.32905 
L 75.021188 322.73109 
L 74.86425 321.83415 
L 75.492 320.78772 
L 74.550375 318.24639 
L 75.648938 317.19996 
L 75.335063 316.45251 
L 75.021188 315.25659 
L 75.021188 313.6122 
L 76.276688 312.41628 
L 75.492 311.07087 
L 75.648938 310.6224 
L 75.335063 309.57597 
L 75.805875 308.82852 
L 75.492 307.48311 
L 75.492 306.58617 
L 76.7475 305.68923 
L 75.648938 305.24076 
L 75.648938 303.59637 
L 75.805875 302.99841 
L 76.433625 301.80249 
L 76.276688 301.20453 
L 76.433625 299.85912 
L 76.11975 299.56014 
L 77.061375 298.51371 
L 76.7475 297.1683 
L 76.433625 296.42085 
L 76.7475 295.97238 
L 76.433625 293.87952 
L 76.904438 292.53411 
L 76.7475 292.38462 
L 77.218313 290.88972 
L 77.532188 290.29176 
L 77.061375 289.39482 
L 77.37525 287.60094 
L 76.7475 286.55451 
L 77.37525 285.80706 
L 77.218313 284.61114 
L 77.532188 283.86369 
L 76.590563 282.96675 
L 77.532188 281.92032 
L 77.846063 281.32236 
L 77.689125 279.97695 
L 77.689125 278.78103 
L 78.473813 278.33256 
L 78.003 277.43562 
L 77.689125 276.38919 
L 78.473813 275.34276 
L 78.316875 274.14684 
L 77.846063 273.54888 
L 78.787688 272.35296 
L 78.787688 271.30653 
L 78.003 270.40959 
L 78.944625 269.51265 
L 78.944625 268.46622 
L 78.473813 267.86826 
L 78.787688 266.67234 
L 78.787688 265.92489 
L 79.101562 265.17744 
L 79.2585 264.42999 
L 79.101562 262.93509 
L 79.572375 262.63611 
L 79.101562 261.58968 
L 79.88625 259.7958 
L 79.2585 258.74937 
L 79.572375 257.85243 
L 79.729313 256.95549 
L 80.357063 255.90906 
L 80.043188 255.01212 
L 79.729313 254.56365 
L 80.200125 253.36773 
L 80.514 252.17181 
L 80.514 251.42436 
L 80.670938 250.67691 
L 80.514 249.3315 
L 80.200125 248.13558 
L 80.357063 247.68711 
L 80.200125 246.49119 
L 80.984813 245.74374 
L 80.827875 244.54782 
L 81.298688 243.94986 
L 81.612563 242.60445 
L 80.514 241.55802 
L 81.7695 240.81057 
L 81.455625 239.46516 
L 82.711125 238.71771 
L 81.7695 237.67128 
L 81.926438 236.92383 
L 83.025 235.12995 
L 82.868063 234.3825 
L 82.868063 233.03709 
L 83.65275 231.84117 
L 83.181938 231.09372 
L 83.809688 228.10392 
L 84.594375 227.05749 
L 85.065188 226.01106 
L 84.594375 225.11412 
L 85.536 224.36667 
L 85.222125 223.46973 
L 86.320688 222.4233 
L 85.379063 220.9284 
L 85.849875 220.9284 
L 87.105375 219.58299 
L 87.105375 218.38707 
L 87.41925 217.63962 
L 88.203938 216.4437 
L 88.831688 216.14472 
L 88.831688 214.35084 
L 89.145563 212.85594 
L 90.558 211.51053 
L 90.244125 210.91257 
L 89.93025 210.61359 
L 91.499625 209.11869 
L 91.8135 207.02583 
L 91.656563 206.42787 
L 92.44125 205.53093 
L 91.499625 204.78348 
L 93.225938 203.28858 
L 93.225938 202.69062 
L 93.853688 201.34521 
L 93.853688 199.9998 
L 94.010625 199.40184 
L 94.638375 198.5049 
L 94.3245 197.60796 
L 94.638375 196.56153 
L 95.423063 195.81408 
L 96.050813 194.46867 
L 95.736937 192.67479 
L 96.364688 191.77785 
L 96.8355 191.47887 
L 97.149375 189.38601 
L 98.091 188.78805 
L 97.934063 187.59213 
L 98.71875 186.69519 
L 98.71875 185.79825 
L 98.561813 184.75182 
L 99.97425 183.85488 
L 99.189563 183.10743 
L 99.189563 181.76202 
L 101.22975 180.86508 
L 101.22975 180.26712 
L 101.700563 179.22069 
L 102.642188 178.32375 
L 102.956063 177.42681 
L 103.583812 176.97834 
L 103.74075 175.48344 
L 106.408688 173.68956 
L 106.094813 172.79262 
L 107.193375 170.55027 
L 108.291938 169.95231 
L 109.076625 168.75639 
L 108.291938 168.00894 
L 109.3905 166.96251 
L 110.646 166.21506 
L 111.430688 165.6171 
L 111.9015 164.27169 
L 112.686188 163.67373 
L 113.627813 162.47781 
L 113.941688 161.28189 
L 114.726375 160.53444 
L 114.726375 159.78699 
L 115.981875 158.89005 
L 116.609625 157.69413 
L 116.766563 156.94668 
L 117.55125 155.60127 
L 117.237375 154.70433 
L 119.4345 153.6579 
L 119.4345 153.05994 
L 120.533062 152.163 
L 120.69 151.11657 
L 121.9455 150.07014 
L 121.631625 149.02371 
L 123.514875 147.97728 
L 122.259375 147.6783 
L 123.357938 146.33289 
L 123.201 145.28646 
L 123.357938 143.94105 
L 123.671813 143.64207 
L 124.299563 142.44615 
L 124.613438 141.10074 
L 124.142625 139.90482 
L 124.613438 139.60584 
L 125.398125 137.214 
L 125.868938 136.01808 
L 126.653625 135.86859 
L 125.08425 134.67267 
L 126.496687 132.7293 
L 126.810563 131.98185 
L 126.025875 131.2344 
L 127.124437 129.88899 
L 126.9675 129.29103 
L 127.752188 128.39409 
L 128.536875 127.19817 
L 128.223 126.60021 
L 129.321563 124.95582 
L 130.420125 124.20837 
L 129.635438 123.01245 
L 131.518687 121.06908 
L 131.518687 120.02265 
L 131.36175 119.42469 
L 132.460313 118.07928 
L 132.146438 117.03285 
L 133.715813 116.58438 
L 134.343563 114.49152 
L 136.854563 110.45529 
L 135.756 110.00682 
L 138.110062 107.91396 
L 137.953125 106.41906 
L 138.580875 105.97059 
L 138.89475 105.07365 
L 137.953125 103.57875 
L 138.580875 103.27977 
L 137.482313 101.03742 
L 137.796188 100.73844 
L 136.069875 98.49609 
L 136.540688 97.44966 
L 133.558875 94.16088 
L 131.832563 93.8619 
L 129.164625 92.66598 
L 127.59525 91.61955 
L 126.025875 90.72261 
L 123.514875 89.82567 
L 122.102438 88.48026 
L 118.492875 87.8823 
L 117.394313 86.83587 
L 113.313937 85.63995 
L 110.489063 85.19148 
L 107.193375 83.84607 
L 104.3685 83.09862 
L 101.543625 82.20168 
L 97.777125 81.45423 
L 95.423063 80.25831 
L 93.382875 79.66035 
L 90.871875 79.06239 
L 87.890063 78.01596 
L 84.90825 77.11902 
L 83.966625 77.11902 
L 82.711125 76.07259 
L 80.514 75.17565 
L 80.514 74.27871 
L 79.2585 73.97973 
L 79.415438 73.23228 
L 78.787688 73.08279 
L 78.63075 72.78381 
L 78.003 72.03636 
L 78.787688 71.88687 
L 78.787688 71.73738 
L 78.473813 70.98993 
L 78.473813 70.69095 
L 78.159937 70.54146 
L 78.787688 70.24248 
L 78.63075 70.09299 
L 78.63075 69.49503 
L 78.63075 69.49503 
L 78.787688 69.34554 
L 78.787688 68.59809 
L 79.101562 68.00013 
L 79.2585 67.40217 
L 79.2585 67.40217 
L 79.415438 67.40217 
L 79.101562 66.65472 
L 79.572375 66.35574 
L 79.101562 65.90727 
L 79.729313 65.90727 
L 79.729313 65.60829 
L 79.2585 65.30931 
L 79.88625 65.01033 
L 78.787688 64.56186 
L 78.944625 63.81441 
L 78.63075 63.66492 
L 78.316875 63.9639 
L 78.944625 64.11339 
L 78.787688 63.9639 
L 78.63075 63.66492 
L 78.63075 63.9639 
L 78.159937 63.66492 
L 78.63075 63.51543 
L 78.003 63.36594 
L 77.689125 63.66492 
L 78.003 63.81441 
L 77.218313 63.51543 
L 78.003 63.51543 
L 77.37525 63.9639 
L 78.003 63.51543 
L 77.689125 63.36594 
L 77.846063 63.51543 
L 78.003 63.36594 
L 77.37525 63.66492 
L 77.532188 63.51543 
L 77.689125 63.06696 
L 76.904438 63.36594 
L 77.37525 63.06696 
L 77.689125 63.51543 
L 77.37525 63.51543 
L 77.532188 63.21645 
L 77.532188 63.51543 
L 76.904438 63.06696 
L 76.904438 63.36594 
L 77.218313 63.06696 
L 77.218313 63.51543 
L 77.37525 63.06696 
L 77.532188 63.06696 
L 76.904438 62.31951 
L 77.532188 62.91747 
L 76.433625 62.469 
L 76.590563 61.72155 
L 76.904438 61.57206 
L 77.846063 61.57206 
L 76.7475 61.57206 
L 77.532188 61.12359 
L 77.37525 61.57206 
L 77.37525 61.12359 
L 77.846063 60.82461 
L 77.061375 60.52563 
L 77.846063 60.82461 
L 78.003 60.67512 
L 77.689125 60.07716 
L 77.846063 60.67512 
L 77.689125 60.52563 
L 78.473813 60.22665 
L 78.159937 60.22665 
L 78.003 59.77818 
L 78.003 59.77818 
L 78.159937 59.18022 
L 78.159937 59.4792 
L 78.787688 58.88124 
L 78.159937 58.88124 
L 78.787688 58.73175 
L 78.316875 58.43277 
L 78.159937 57.9843 
L 78.944625 57.38634 
L 78.787688 57.38634 
L 78.316875 57.53583 
L 78.159937 57.23685 
L 78.787688 57.38634 
L 78.944625 57.08736 
L 78.473813 57.08736 
L 77.846063 56.93787 
L 77.846063 56.4894 
L 77.532188 56.78838 
L 77.846063 55.44297 
L 77.532188 56.19042 
L 76.7475 56.19042 
L 76.904438 55.74195 
L 75.178125 55.29348 
L 75.335063 55.14399 
L 74.86425 54.84501 
L 74.707313 54.54603 
L 73.922625 54.39654 
L 73.922625 54.54603 
L 73.765688 54.24705 
L 73.922625 53.79858 
L 73.294875 53.79858 
L 73.137938 53.64909 
L 72.981 53.05113 
L 72.35325 53.05113 
L 72.824063 52.90164 
L 72.981 52.30368 
L 73.294875 51.85521 
L 72.667125 51.55623 
L 72.510188 50.95827 
L 73.451813 51.55623 
L 72.824063 50.5098 
L 73.294875 50.95827 
L 72.981 50.36031 
L 72.981 50.80878 
L 72.667125 49.61286 
L 72.510188 49.76235 
L 72.510188 49.76235 
" style="fill:none;stroke:#000000;stroke-dasharray:5.55,2.4;stroke-dashoffset:0;stroke-width:1.5;"/>
   </g>
   <g id="patch_7">
    <path d="M 20.25 346.5 
L 20.25 47.52 
" style="fill:none;stroke:#000000;stroke-linecap:square;stroke-linejoin:miter;stroke-width:0.5;"/>
   </g>
   <g id="patch_8">
    <path d="M 145.8 346.5 
L 145.8 47.52 
" style="fill:none;stroke:#000000;stroke-linecap:square;stroke-linejoin:miter;stroke-width:0.5;"/>
   </g>
   <g id="patch_9">
    <path d="M 20.25 346.5 
L 145.8 346.5 
" style="fill:none;stroke:#000000;stroke-linecap:square;stroke-linejoin:miter;stroke-width:0.5;"/>
   </g>
   <g id="patch_10">
    <path d="M 20.25 47.52 
L 145.8 47.52 
" style="fill:none;stroke:#000000;stroke-linecap:square;stroke-linejoin:miter;stroke-width:0.5;"/>
   </g>
  </g>
 </g>
 <defs>
  <clipPath id="pdf39d7ab4d">
   <rect height="298.98" width="125.55" x="20.25" y="47.52"/>
  </clipPath>
 </defs>
</svg>
