<?xml version="1.0" encoding="utf-8" standalone="no"?>
<!DOCTYPE svg PUBLIC "-//W3C//DTD SVG 1.1//EN"
  "http://www.w3.org/Graphics/SVG/1.1/DTD/svg11.dtd">
<!-- Created with matplotlib (http://matplotlib.org/) -->
<svg height="396pt" version="1.1" viewBox="0 0 288 396" width="288pt" xmlns="http://www.w3.org/2000/svg" xmlns:xlink="http://www.w3.org/1999/xlink">
 <defs>
  <style type="text/css">
*{stroke-linecap:butt;stroke-linejoin:round;}
  </style>
 </defs>
 <g id="figure_1">
  <g id="patch_1">
   <path d="M 0 396 
L 288 396 
L 288 0 
L 0 0 
z
" style="fill:#ffffff;"/>
  </g>
  <g id="axes_1">
   <g id="patch_2">
    <path d="M 36 346.5 
L 259.2 346.5 
L 259.2 47.52 
L 36 47.52 
z
" style="fill:#ffffff;"/>
   </g>
   <g id="matplotlib.axis_1">
    <g id="xtick_1">
     <g id="line2d_1">
      <defs>
       <path d="M 0 0 
L 0 2.5 
" id="maadd1d19fa" style="stroke:#000000;"/>
      </defs>
      <g>
       <use style="stroke:#000000;" x="36" xlink:href="#maadd1d19fa" y="346.5"/>
      </g>
     </g>
     <g id="text_1">
      <text style="font-family:Arial;font-size:10px;font-style:normal;font-weight:normal;text-anchor:middle;" transform="rotate(-0, 36, 359.657812)" x="36" y="359.657812">0.0</text>
     </g>
    </g>
    <g id="xtick_2">
     <g id="line2d_2">
      <g>
       <use style="stroke:#000000;" x="91.8" xlink:href="#maadd1d19fa" y="346.5"/>
      </g>
     </g>
     <g id="text_2">
      <text style="font-family:Arial;font-size:10px;font-style:normal;font-weight:normal;text-anchor:middle;" transform="rotate(-0, 91.8, 359.657812)" x="91.8" y="359.657812">2.0</text>
     </g>
    </g>
    <g id="xtick_3">
     <g id="line2d_3">
      <g>
       <use style="stroke:#000000;" x="147.6" xlink:href="#maadd1d19fa" y="346.5"/>
      </g>
     </g>
     <g id="text_3">
      <text style="font-family:Arial;font-size:10px;font-style:normal;font-weight:normal;text-anchor:middle;" transform="rotate(-0, 147.6, 359.657812)" x="147.6" y="359.657812">4.0</text>
     </g>
    </g>
    <g id="xtick_4">
     <g id="line2d_4">
      <g>
       <use style="stroke:#000000;" x="203.4" xlink:href="#maadd1d19fa" y="346.5"/>
      </g>
     </g>
     <g id="text_4">
      <text style="font-family:Arial;font-size:10px;font-style:normal;font-weight:normal;text-anchor:middle;" transform="rotate(-0, 203.4, 359.657812)" x="203.4" y="359.657812">6.0</text>
     </g>
    </g>
    <g id="xtick_5">
     <g id="line2d_5">
      <g>
       <use style="stroke:#000000;" x="259.2" xlink:href="#maadd1d19fa" y="346.5"/>
      </g>
     </g>
     <g id="text_5">
      <text style="font-family:Arial;font-size:10px;font-style:normal;font-weight:normal;text-anchor:middle;" transform="rotate(-0, 259.2, 359.657812)" x="259.2" y="359.657812">8.0</text>
     </g>
    </g>
    <g id="text_6">
     <!-- PAR ($\mu$mol $m^{-2}$ $s^{-1}$) -->
     <g transform="translate(100.05 374.745313)">
      <text>
       <tspan style="font-family:Arial;font-size:10px;font-style:regular;font-weight:regular;" x="0 6.669922 13.339844 20.561523 23.339844 33.032227 41.362305 46.923828 49.145508 72.721439 91.76612" y="-0.9765625">PAR (mol  )</tspan>
       <tspan style="font-family:DejaVu Sans;font-size:10px;font-style:oblique;font-weight:oblique;" x="26.669922 51.923828 75.499759" y="-0.9765625">μms</tspan>
       <tspan style="font-family:DejaVu Sans;font-size:7px;font-style:book;font-weight:book;" x="62.129154 67.994388 81.173835 87.039069" y="-4.8046875">−2−1</tspan>
      </text>
     </g>
    </g>
   </g>
   <g id="matplotlib.axis_2">
    <g id="ytick_1">
     <g id="line2d_6">
      <defs>
       <path d="M 0 0 
L -2.5 0 
" id="m03ebd02013" style="stroke:#000000;"/>
      </defs>
      <g>
       <use style="stroke:#000000;" x="36" xlink:href="#m03ebd02013" y="47.52"/>
      </g>
     </g>
     <g id="line2d_7">
      <defs>
       <path d="M 0 0 
L 2.5 0 
" id="med9dd216a9" style="stroke:#000000;"/>
      </defs>
      <g>
       <use style="stroke:#000000;" x="259.2" xlink:href="#med9dd216a9" y="47.52"/>
      </g>
     </g>
     <g id="text_7">
      <text style="font-family:Arial;font-size:10px;font-style:normal;font-weight:normal;text-anchor:end;" transform="rotate(-0, 30, 51.098906)" x="30" y="51.098906">0</text>
     </g>
    </g>
    <g id="ytick_2">
     <g id="line2d_8">
      <g>
       <use style="stroke:#000000;" x="36" xlink:href="#m03ebd02013" y="122.265"/>
      </g>
     </g>
     <g id="line2d_9">
      <g>
       <use style="stroke:#000000;" x="259.2" xlink:href="#med9dd216a9" y="122.265"/>
      </g>
     </g>
     <g id="text_8">
      <text style="font-family:Arial;font-size:10px;font-style:normal;font-weight:normal;text-anchor:end;" transform="rotate(-0, 30, 125.843906)" x="30" y="125.843906">5</text>
     </g>
    </g>
    <g id="ytick_3">
     <g id="line2d_10">
      <g>
       <use style="stroke:#000000;" x="36" xlink:href="#m03ebd02013" y="197.01"/>
      </g>
     </g>
     <g id="line2d_11">
      <g>
       <use style="stroke:#000000;" x="259.2" xlink:href="#med9dd216a9" y="197.01"/>
      </g>
     </g>
     <g id="text_9">
      <text style="font-family:Arial;font-size:10px;font-style:normal;font-weight:normal;text-anchor:end;" transform="rotate(-0, 30, 200.588906)" x="30" y="200.588906">10</text>
     </g>
    </g>
    <g id="ytick_4">
     <g id="line2d_12">
      <g>
       <use style="stroke:#000000;" x="36" xlink:href="#m03ebd02013" y="271.755"/>
      </g>
     </g>
     <g id="line2d_13">
      <g>
       <use style="stroke:#000000;" x="259.2" xlink:href="#med9dd216a9" y="271.755"/>
      </g>
     </g>
     <g id="text_10">
      <text style="font-family:Arial;font-size:10px;font-style:normal;font-weight:normal;text-anchor:end;" transform="rotate(-0, 30, 275.333906)" x="30" y="275.333906">15</text>
     </g>
    </g>
    <g id="ytick_5">
     <g id="line2d_14">
      <g>
       <use style="stroke:#000000;" x="36" xlink:href="#m03ebd02013" y="346.5"/>
      </g>
     </g>
     <g id="line2d_15">
      <g>
       <use style="stroke:#000000;" x="259.2" xlink:href="#med9dd216a9" y="346.5"/>
      </g>
     </g>
     <g id="text_11">
      <text style="font-family:Arial;font-size:10px;font-style:normal;font-weight:normal;text-anchor:end;" transform="rotate(-0, 30, 350.078906)" x="30" y="350.078906">20</text>
     </g>
    </g>
    <g id="text_12">
     <text style="font-family:Arial;font-size:10px;font-style:normal;font-weight:normal;text-anchor:middle;" transform="rotate(-90, 12.773437, 197.01)" x="12.773437" y="197.01">Depth (m)</text>
    </g>
   </g>
   <g id="line2d_16">
    <path clip-path="url(#p30ea273272)" d="M 107.848805 397 
L 114.399 352.77858 
L 115.794 351.28368 
L 114.957 350.38674 
L 114.957 349.34031 
L 114.678 348.74235 
L 115.236 347.24745 
L 116.352 346.35051 
L 116.073 345.30408 
L 116.073 344.40714 
L 115.794 343.5102 
L 115.794 342.31428 
L 115.236 341.56683 
L 116.352 340.96887 
L 116.073 339.62346 
L 116.073 338.42754 
L 117.189 337.5306 
L 116.91 336.93264 
L 117.468 336.0357 
L 117.189 334.83978 
L 117.189 333.34488 
L 118.026 330.65406 
L 118.863 329.75712 
L 118.305 328.86018 
L 118.584 327.81375 
L 119.7 327.51477 
L 118.863 325.87038 
L 118.863 324.0765 
L 118.584 323.32905 
L 119.421 322.73109 
L 119.142 321.83415 
L 120.258 320.78772 
L 118.584 318.24639 
L 120.537 317.19996 
L 119.979 316.45251 
L 119.421 315.25659 
L 119.421 313.6122 
L 121.653 312.41628 
L 120.258 311.07087 
L 120.537 310.6224 
L 119.979 309.57597 
L 120.816 308.82852 
L 120.258 307.48311 
L 120.258 306.58617 
L 122.49 305.68923 
L 120.537 305.24076 
L 120.537 303.59637 
L 120.816 302.99841 
L 121.932 301.80249 
L 121.653 301.20453 
L 121.932 299.85912 
L 121.374 299.56014 
L 123.048 298.51371 
L 122.49 297.1683 
L 121.932 296.42085 
L 122.49 295.97238 
L 121.932 293.87952 
L 122.769 292.53411 
L 122.49 292.38462 
L 123.327 290.88972 
L 123.885 290.29176 
L 123.048 289.39482 
L 123.606 287.60094 
L 122.49 286.55451 
L 123.606 285.80706 
L 123.327 284.61114 
L 123.885 283.86369 
L 122.211 282.96675 
L 123.885 281.92032 
L 124.443 281.32236 
L 124.164 279.97695 
L 124.164 278.78103 
L 125.559 278.33256 
L 124.722 277.43562 
L 124.164 276.38919 
L 125.559 275.34276 
L 125.28 274.14684 
L 124.443 273.54888 
L 126.117 272.35296 
L 126.117 271.30653 
L 124.722 270.40959 
L 126.396 269.51265 
L 126.396 268.46622 
L 125.559 267.86826 
L 126.117 266.67234 
L 126.117 265.92489 
L 126.675 265.17744 
L 126.954 264.42999 
L 126.675 262.93509 
L 127.512 262.63611 
L 126.675 261.58968 
L 128.07 259.7958 
L 126.954 258.74937 
L 127.512 257.85243 
L 127.791 256.95549 
L 128.907 255.90906 
L 128.349 255.01212 
L 127.791 254.56365 
L 128.628 253.36773 
L 129.186 252.17181 
L 129.186 251.42436 
L 129.465 250.67691 
L 129.186 249.3315 
L 128.628 248.13558 
L 128.907 247.68711 
L 128.628 246.49119 
L 130.023 245.74374 
L 129.744 244.54782 
L 130.581 243.94986 
L 131.139 242.60445 
L 129.186 241.55802 
L 131.418 240.81057 
L 130.86 239.46516 
L 133.092 238.71771 
L 131.418 237.67128 
L 131.697 236.92383 
L 133.65 235.12995 
L 133.371 234.3825 
L 133.371 233.03709 
L 134.766 231.84117 
L 133.929 231.09372 
L 135.045 228.10392 
L 136.44 227.05749 
L 137.277 226.01106 
L 136.44 225.11412 
L 138.114 224.36667 
L 137.556 223.46973 
L 139.509 222.4233 
L 137.835 220.9284 
L 138.672 220.9284 
L 140.904 219.58299 
L 140.904 218.38707 
L 141.462 217.63962 
L 142.857 216.4437 
L 143.973 216.14472 
L 143.973 214.35084 
L 144.252 213.30441 
L 144.531 212.85594 
L 147.042 211.51053 
L 146.484 210.91257 
L 145.926 210.61359 
L 148.716 209.11869 
L 148.995 207.77328 
L 149.274 207.02583 
L 148.995 206.42787 
L 150.39 205.53093 
L 148.716 204.78348 
L 151.785 203.28858 
L 151.785 202.69062 
L 152.901 201.34521 
L 152.901 199.9998 
L 153.18 199.40184 
L 154.296 198.5049 
L 153.738 197.60796 
L 154.296 196.56153 
L 155.691 195.81408 
L 156.807 194.46867 
L 156.249 192.67479 
L 157.365 191.77785 
L 158.202 191.47887 
L 158.76 189.83448 
L 158.76 189.38601 
L 160.434 188.78805 
L 160.155 187.59213 
L 161.55 186.69519 
L 161.55 185.79825 
L 161.271 184.75182 
L 163.782 183.85488 
L 162.387 183.10743 
L 162.387 181.76202 
L 166.014 180.86508 
L 166.014 180.26712 
L 166.851 179.22069 
L 168.525 178.32375 
L 169.083 177.42681 
L 170.199 176.97834 
L 170.478 175.48344 
L 175.221 173.68956 
L 174.663 172.79262 
L 176.616 170.55027 
L 178.569 169.95231 
L 179.964 168.75639 
L 178.569 168.00894 
L 180.522 166.96251 
L 182.754 166.21506 
L 184.149 165.6171 
L 184.986 164.27169 
L 186.381 163.67373 
L 188.055 162.47781 
L 188.613 161.28189 
L 190.008 160.53444 
L 190.008 159.78699 
L 192.24 158.89005 
L 193.356 157.69413 
L 193.635 156.94668 
L 195.03 155.60127 
L 194.472 154.70433 
L 198.378 153.6579 
L 198.378 153.05994 
L 200.331 152.163 
L 200.61 151.11657 
L 202.842 150.07014 
L 202.284 149.02371 
L 205.632 147.97728 
L 203.4 147.6783 
L 205.353 146.33289 
L 205.074 145.28646 
L 205.353 143.94105 
L 205.911 143.64207 
L 207.027 142.44615 
L 207.585 141.10074 
L 206.748 139.90482 
L 207.585 139.60584 
L 208.98 137.214 
L 209.817 136.01808 
L 211.212 135.86859 
L 208.422 134.67267 
L 210.933 132.7293 
L 211.491 131.98185 
L 210.096 131.2344 
L 212.049 129.88899 
L 211.77 129.29103 
L 213.165 128.39409 
L 214.56 127.19817 
L 214.002 126.60021 
L 215.397 125.55378 
L 215.955 124.95582 
L 217.908 124.20837 
L 216.513 123.01245 
L 219.861 121.06908 
L 219.861 120.02265 
L 219.582 119.42469 
L 221.535 118.07928 
L 220.977 117.03285 
L 223.767 116.58438 
L 224.883 114.49152 
L 229.347 110.45529 
L 227.394 110.00682 
L 231.579 107.91396 
L 231.3 106.41906 
L 232.416 105.97059 
L 232.974 105.07365 
L 231.3 103.57875 
L 232.416 103.27977 
L 230.463 101.03742 
L 231.021 100.73844 
L 227.952 98.49609 
L 228.789 97.44966 
L 223.488 94.16088 
L 220.419 93.8619 
L 215.676 92.66598 
L 212.886 91.61955 
L 210.096 90.72261 
L 205.632 89.82567 
L 203.121 88.48026 
L 196.704 87.8823 
L 194.751 86.83587 
L 187.497 85.63995 
L 182.475 85.19148 
L 176.616 83.84607 
L 171.594 83.09862 
L 166.572 82.20168 
L 159.876 81.45423 
L 155.691 80.25831 
L 152.064 79.66035 
L 147.6 79.06239 
L 142.299 78.01596 
L 136.998 77.11902 
L 135.324 77.11902 
L 133.092 76.07259 
L 129.186 75.17565 
L 129.186 74.27871 
L 126.954 73.97973 
L 127.233 73.23228 
L 126.117 73.08279 
L 125.838 72.78381 
L 124.722 72.03636 
L 126.117 71.88687 
L 126.117 71.73738 
L 125.559 70.98993 
L 125.559 70.69095 
L 125.001 70.54146 
L 126.117 70.24248 
L 125.838 70.09299 
L 125.838 69.49503 
L 125.838 69.49503 
L 126.117 69.34554 
L 126.117 68.59809 
L 126.675 68.00013 
L 126.954 67.40217 
L 126.954 67.40217 
L 127.233 67.40217 
L 126.675 66.65472 
L 127.512 66.35574 
L 126.675 65.90727 
L 127.791 65.90727 
L 127.791 65.60829 
L 126.954 65.30931 
L 128.07 65.01033 
L 126.117 64.56186 
L 126.396 64.11339 
L 126.396 63.81441 
L 125.838 63.66492 
L 125.28 63.9639 
L 126.396 64.11339 
L 126.117 63.9639 
L 125.838 63.66492 
L 125.838 63.9639 
L 125.001 63.66492 
L 125.838 63.51543 
L 124.722 63.36594 
L 124.164 63.66492 
L 124.722 63.81441 
L 123.327 63.51543 
L 124.722 63.51543 
L 123.606 63.9639 
L 124.722 63.51543 
L 124.164 63.36594 
L 124.443 63.51543 
L 124.722 63.36594 
L 123.606 63.66492 
L 123.885 63.51543 
L 124.164 63.06696 
L 122.769 63.36594 
L 123.606 63.06696 
L 124.164 63.51543 
L 123.606 63.51543 
L 123.885 63.21645 
L 123.885 63.51543 
L 122.769 63.06696 
L 122.769 63.36594 
L 123.327 63.06696 
L 123.327 63.51543 
L 123.606 63.06696 
L 123.885 63.06696 
L 123.327 62.76798 
L 123.327 62.91747 
L 122.769 62.31951 
L 123.885 62.91747 
L 121.932 62.469 
L 122.211 61.72155 
L 122.769 61.57206 
L 124.443 61.57206 
L 122.49 61.57206 
L 123.885 61.12359 
L 123.606 61.57206 
L 123.606 61.12359 
L 124.443 60.82461 
L 123.048 60.52563 
L 124.443 60.82461 
L 124.722 60.67512 
L 124.164 60.07716 
L 124.443 60.67512 
L 124.164 60.52563 
L 125.559 60.22665 
L 125.001 60.22665 
L 124.722 59.77818 
L 125.001 59.92767 
L 124.722 59.77818 
L 125.001 59.18022 
L 125.001 59.4792 
L 126.117 58.88124 
L 125.001 58.88124 
L 126.117 58.73175 
L 125.28 58.43277 
L 125.001 57.9843 
L 126.396 57.38634 
L 126.117 57.38634 
L 125.28 57.53583 
L 125.001 57.23685 
L 126.117 57.38634 
L 126.396 57.08736 
L 125.559 57.08736 
L 124.443 56.93787 
L 124.443 56.4894 
L 123.885 56.78838 
L 124.443 55.44297 
L 123.885 56.19042 
L 122.49 56.19042 
L 122.769 55.74195 
L 119.7 55.29348 
L 119.979 55.14399 
L 119.142 54.84501 
L 118.863 54.54603 
L 117.468 54.39654 
L 117.468 54.54603 
L 117.189 54.24705 
L 117.468 53.79858 
L 116.352 53.79858 
L 116.073 53.64909 
L 115.794 53.05113 
L 114.678 53.05113 
L 115.515 52.90164 
L 115.794 52.30368 
L 116.352 51.85521 
L 115.236 51.55623 
L 114.957 50.95827 
L 116.631 51.55623 
L 115.515 50.5098 
L 116.352 50.95827 
L 115.794 50.36031 
L 115.794 50.80878 
L 115.236 49.61286 
L 114.957 49.76235 
L 114.957 49.76235 
" style="fill:none;stroke:#000000;stroke-linecap:round;"/>
   </g>
   <g id="patch_3">
    <path d="M 36 346.5 
L 36 47.52 
" style="fill:none;stroke:#000000;stroke-linecap:square;stroke-linejoin:miter;stroke-width:1.5;"/>
   </g>
   <g id="patch_4">
    <path d="M 259.2 346.5 
L 259.2 47.52 
" style="fill:none;stroke:#000000;stroke-linecap:square;stroke-linejoin:miter;stroke-width:1.5;"/>
   </g>
   <g id="patch_5">
    <path d="M 36 346.5 
L 259.2 346.5 
" style="fill:none;stroke:#000000;stroke-linecap:square;stroke-linejoin:miter;stroke-width:1.5;"/>
   </g>
   <g id="patch_6">
    <path d="M 36 47.52 
L 259.2 47.52 
" style="fill:none;stroke:#000000;stroke-linecap:square;stroke-linejoin:miter;stroke-width:1.5;"/>
   </g>
   <g id="legend_1">
    <g id="line2d_17">
     <path d="M 201.648438 60.177812 
L 221.648438 60.177812 
" style="fill:none;stroke:#000000;stroke-linecap:round;"/>
    </g>
    <g id="line2d_18"/>
    <g id="text_13">
     <text style="fill:#262626;font-family:Arial;font-size:10px;font-style:normal;font-weight:normal;text-anchor:start;" transform="rotate(-0, 229.648438, 63.677812)" x="229.648438" y="63.677812">PAR</text>
    </g>
   </g>
  </g>
  <g id="axes_2">
   <g id="matplotlib.axis_3">
    <g id="xtick_6">
     <g id="line2d_19">
      <defs>
       <path d="M 0 0 
L 0 -2.5 
" id="m31fea7a1e4" style="stroke:#000000;"/>
      </defs>
      <g>
       <use style="stroke:#000000;" x="36" xlink:href="#m31fea7a1e4" y="47.52"/>
      </g>
     </g>
     <g id="text_14">
      <text style="font-family:Arial;font-size:10px;font-style:normal;font-weight:normal;text-anchor:middle;" transform="rotate(-0, 36, 39.5325)" x="36" y="39.5325">-2.0</text>
     </g>
    </g>
    <g id="xtick_7">
     <g id="line2d_20">
      <g>
       <use style="stroke:#000000;" x="110.4" xlink:href="#m31fea7a1e4" y="47.52"/>
      </g>
     </g>
     <g id="text_15">
      <text style="font-family:Arial;font-size:10px;font-style:normal;font-weight:normal;text-anchor:middle;" transform="rotate(-0, 110.4, 39.5325)" x="110.4" y="39.5325">-1.5</text>
     </g>
    </g>
    <g id="xtick_8">
     <g id="line2d_21">
      <g>
       <use style="stroke:#000000;" x="184.8" xlink:href="#m31fea7a1e4" y="47.52"/>
      </g>
     </g>
     <g id="text_16">
      <text style="font-family:Arial;font-size:10px;font-style:normal;font-weight:normal;text-anchor:middle;" transform="rotate(-0, 184.8, 39.5325)" x="184.8" y="39.5325">-1.0</text>
     </g>
    </g>
    <g id="xtick_9">
     <g id="line2d_22">
      <g>
       <use style="stroke:#000000;" x="259.2" xlink:href="#m31fea7a1e4" y="47.52"/>
      </g>
     </g>
     <g id="text_17">
      <text style="font-family:Arial;font-size:10px;font-style:normal;font-weight:normal;text-anchor:middle;" transform="rotate(-0, 259.2, 39.5325)" x="259.2" y="39.5325">-0.5</text>
     </g>
    </g>
    <g id="text_18">
     <text style="font-family:Arial;font-size:10px;font-style:normal;font-weight:normal;text-anchor:middle;" transform="rotate(-0, 147.6, 28.374687)" x="147.6" y="28.374687">Temperature (°C)</text>
    </g>
   </g>
   <g id="line2d_23">
    <path clip-path="url(#p30ea273272)" d="M 46.416 397 
L 46.416 352.77858 
L 47.904 351.28368 
L 47.904 349.34031 
L 46.416 348.74235 
L 47.904 347.24745 
L 47.904 345.30408 
L 46.416 344.40714 
L 47.904 343.5102 
L 47.904 342.31428 
L 46.416 341.56683 
L 46.416 339.62346 
L 47.904 338.42754 
L 47.904 337.5306 
L 46.416 336.93264 
L 47.904 336.0357 
L 47.904 333.34488 
L 46.416 332.44794 
L 47.904 332.14896 
L 47.904 329.75712 
L 46.416 328.86018 
L 47.904 327.81375 
L 47.904 325.87038 
L 46.416 325.42191 
L 46.416 324.0765 
L 47.904 323.32905 
L 47.904 322.73109 
L 46.416 321.83415 
L 46.416 320.78772 
L 47.904 319.89078 
L 46.416 318.84435 
L 46.416 318.24639 
L 47.904 317.19996 
L 46.416 316.45251 
L 47.904 315.25659 
L 46.416 314.80812 
L 47.904 313.6122 
L 47.904 311.07087 
L 46.416 310.6224 
L 46.416 309.57597 
L 47.904 308.82852 
L 46.416 307.48311 
L 46.416 306.58617 
L 47.904 305.68923 
L 47.904 305.24076 
L 46.416 303.59637 
L 46.416 301.80249 
L 47.904 301.20453 
L 47.904 299.85912 
L 46.416 299.56014 
L 47.904 298.51371 
L 46.416 297.1683 
L 47.904 296.42085 
L 46.416 295.97238 
L 46.416 293.87952 
L 47.904 292.53411 
L 46.416 292.38462 
L 47.904 290.88972 
L 47.904 290.29176 
L 46.416 289.39482 
L 46.416 288.34839 
L 47.904 287.60094 
L 47.904 286.55451 
L 46.416 285.80706 
L 46.416 284.61114 
L 47.904 283.86369 
L 46.416 282.96675 
L 46.416 281.32236 
L 47.904 279.97695 
L 47.904 278.33256 
L 46.416 277.43562 
L 47.904 276.38919 
L 47.904 275.34276 
L 46.416 274.14684 
L 46.416 273.54888 
L 47.904 272.35296 
L 46.416 271.30653 
L 46.416 269.51265 
L 47.904 268.46622 
L 47.904 266.67234 
L 46.416 265.92489 
L 47.904 265.17744 
L 47.904 262.93509 
L 46.416 262.63611 
L 46.416 260.54325 
L 47.904 259.7958 
L 46.416 258.74937 
L 47.904 257.85243 
L 47.904 256.95549 
L 46.416 255.90906 
L 46.416 253.36773 
L 47.904 252.17181 
L 46.416 251.42436 
L 46.416 242.60445 
L 47.904 241.55802 
L 46.416 240.81057 
L 46.416 236.92383 
L 44.928 235.8774 
L 46.416 235.12995 
L 46.416 225.11412 
L 44.928 224.36667 
L 46.416 223.46973 
L 46.416 217.63962 
L 44.928 216.4437 
L 46.416 216.14472 
L 44.928 214.79931 
L 44.928 207.02583 
L 43.44 206.42787 
L 44.928 205.53093 
L 44.928 203.28858 
L 43.44 202.69062 
L 43.44 185.79825 
L 41.952 184.75182 
L 43.44 183.85488 
L 43.44 178.32375 
L 41.952 177.42681 
L 43.44 176.97834 
L 43.44 174.5865 
L 41.952 173.68956 
L 43.44 172.79262 
L 43.44 170.55027 
L 41.952 169.95231 
L 43.44 168.75639 
L 41.952 168.00894 
L 43.44 166.96251 
L 41.952 166.21506 
L 43.44 165.6171 
L 43.44 163.67373 
L 41.952 162.47781 
L 43.44 161.28189 
L 41.952 160.53444 
L 41.952 157.69413 
L 43.44 156.94668 
L 43.44 155.60127 
L 41.952 154.70433 
L 41.952 153.6579 
L 43.44 153.05994 
L 43.44 152.163 
L 41.952 151.11657 
L 41.952 150.07014 
L 43.44 149.02371 
L 41.952 147.97728 
L 41.952 136.01808 
L 40.464 135.86859 
L 41.952 134.67267 
L 41.952 132.7293 
L 40.464 131.98185 
L 41.952 131.2344 
L 41.952 129.29103 
L 40.464 128.39409 
L 41.952 127.19817 
L 41.952 125.55378 
L 40.464 124.95582 
L 41.952 124.20837 
L 41.952 121.81653 
L 40.464 121.06908 
L 41.952 120.02265 
L 41.952 118.07928 
L 40.464 117.03285 
L 41.952 116.58438 
L 41.952 114.49152 
L 40.464 113.44509 
L 41.952 112.54815 
L 41.952 110.45529 
L 40.464 110.00682 
L 41.952 108.8109 
L 41.952 106.41906 
L 40.464 105.97059 
L 40.464 105.07365 
L 41.952 103.57875 
L 41.952 103.27977 
L 40.464 102.08385 
L 41.952 101.03742 
L 41.952 99.54252 
L 40.464 98.49609 
L 41.952 97.44966 
L 41.952 93.8619 
L 43.44 92.66598 
L 43.44 90.72261 
L 44.928 89.82567 
L 43.44 88.48026 
L 44.928 87.8823 
L 44.928 86.83587 
L 46.416 85.63995 
L 46.416 82.20168 
L 47.904 81.45423 
L 47.904 80.25831 
L 49.392 79.66035 
L 55.344 79.06239 
L 61.296 78.01596 
L 67.248 77.11902 
L 73.2 77.11902 
L 79.152 76.07259 
L 85.104 75.62412 
L 89.568 75.17565 
L 92.544 74.27871 
L 97.008 73.97973 
L 99.984 73.23228 
L 102.96 73.08279 
L 102.96 72.78381 
L 105.936 72.03636 
L 108.912 71.73738 
L 110.4 70.98993 
L 111.888 70.69095 
L 113.376 70.54146 
L 114.864 70.24248 
L 116.352 70.09299 
L 119.328 69.49503 
L 120.816 69.49503 
L 122.304 69.34554 
L 123.792 68.74758 
L 125.28 68.59809 
L 126.768 68.00013 
L 126.768 67.40217 
L 126.768 67.40217 
L 128.256 67.40217 
L 129.744 66.65472 
L 131.232 66.35574 
L 131.232 65.90727 
L 134.208 65.90727 
L 135.696 65.60829 
L 137.184 65.4588 
L 137.184 65.30931 
L 141.648 64.86084 
L 141.648 64.56186 
L 143.136 64.11339 
L 144.624 63.81441 
L 146.112 63.66492 
L 147.6 63.9639 
L 147.6 64.11339 
L 149.088 63.9639 
L 150.576 63.66492 
L 152.064 63.9639 
L 150.576 63.66492 
L 152.064 63.51543 
L 152.064 63.36594 
L 152.064 63.66492 
L 150.576 63.81441 
L 152.064 63.51543 
L 152.064 63.51543 
L 153.552 63.9639 
L 153.552 63.51543 
L 155.04 63.36594 
L 155.04 63.51543 
L 156.528 63.36594 
L 155.04 63.66492 
L 156.528 63.51543 
L 156.528 63.06696 
L 156.528 63.51543 
L 158.016 63.06696 
L 158.016 63.51543 
L 158.016 62.31951 
L 159.504 62.91747 
L 159.504 61.72155 
L 160.992 61.57206 
L 160.992 61.57206 
L 159.504 61.57206 
L 160.992 61.12359 
L 162.48 61.57206 
L 162.48 60.82461 
L 163.968 60.52563 
L 163.968 60.82461 
L 165.456 60.67512 
L 163.968 60.07716 
L 166.944 60.67512 
L 166.944 60.22665 
L 165.456 60.22665 
L 166.944 59.77818 
L 166.944 59.92767 
L 166.944 58.88124 
L 168.432 58.88124 
L 166.944 58.73175 
L 169.92 58.13379 
L 169.92 57.23685 
L 169.92 57.38634 
L 171.408 57.08736 
L 172.896 57.08736 
L 172.896 56.4894 
L 174.384 56.78838 
L 175.872 55.44297 
L 175.872 56.19042 
L 175.872 56.19042 
L 178.848 55.74195 
L 178.848 55.29348 
L 177.36 55.14399 
L 180.336 54.54603 
L 181.824 54.39654 
L 181.824 54.54603 
L 183.312 54.24705 
L 183.312 53.79858 
L 184.8 53.79858 
L 184.8 51.85521 
L 186.288 51.55623 
L 186.288 50.95827 
L 186.288 51.55623 
L 187.776 51.55623 
L 187.776 50.5098 
L 187.776 50.95827 
L 186.288 50.36031 
L 186.288 50.80878 
L 186.288 49.61286 
L 186.288 49.76235 
" style="fill:none;stroke:#ff0000;stroke-linecap:round;"/>
   </g>
   <g id="patch_7">
    <path d="M 36 346.5 
L 36 47.52 
" style="fill:none;stroke:#000000;stroke-linecap:square;stroke-linejoin:miter;stroke-width:1.5;"/>
   </g>
   <g id="patch_8">
    <path d="M 259.2 346.5 
L 259.2 47.52 
" style="fill:none;stroke:#000000;stroke-linecap:square;stroke-linejoin:miter;stroke-width:1.5;"/>
   </g>
   <g id="patch_9">
    <path d="M 36 346.5 
L 259.2 346.5 
" style="fill:none;stroke:#000000;stroke-linecap:square;stroke-linejoin:miter;stroke-width:1.5;"/>
   </g>
   <g id="patch_10">
    <path d="M 36 47.52 
L 259.2 47.52 
" style="fill:none;stroke:#000000;stroke-linecap:square;stroke-linejoin:miter;stroke-width:1.5;"/>
   </g>
   <g id="legend_2">
    <g id="line2d_24">
     <path d="M 164.976562 332.0125 
L 184.976562 332.0125 
" style="fill:none;stroke:#ff0000;stroke-linecap:round;"/>
    </g>
    <g id="line2d_25"/>
    <g id="text_19">
     <text style="fill:#262626;font-family:Arial;font-size:10px;font-style:normal;font-weight:normal;text-anchor:start;" transform="rotate(-0, 192.976562, 335.5125)" x="192.976562" y="335.5125">Temperature</text>
    </g>
   </g>
  </g>
 </g>
 <defs>
  <clipPath id="p30ea273272">
   <rect height="298.98" width="223.2" x="36" y="47.52"/>
  </clipPath>
 </defs>
</svg>
