<?xml version="1.0" encoding="utf-8"?>
<!-- Generator: Adobe Illustrator 22.1.0, SVG Export Plug-In . SVG Version: 6.00 Build 0)  -->
<svg version="1.1" id="Layer_1" xmlns="http://www.w3.org/2000/svg" xmlns:xlink="http://www.w3.org/1999/xlink" x="0px" y="0px"
	 viewBox="0 0 288 396" style="enable-background:new 0 0 288 396;" xml:space="preserve">
<style type="text/css">
	.st0{fill:#FFFFFF;}
	.st1{stroke:#000000;stroke-width:2;stroke-linejoin:round;}
	.st2{font-family:'ArialMT';}
	.st3{font-size:10px;}
	.st4{fill:none;stroke:#000000;stroke-width:0.25;stroke-miterlimit:10;}
	.st5{clip-path:url(#SVGID_2_);fill:none;stroke:#000000;stroke-width:1.5;stroke-linecap:round;stroke-linejoin:round;}
	.st6{clip-path:url(#SVGID_4_);fill:none;stroke:#FF0000;stroke-width:1.5;stroke-linecap:round;stroke-linejoin:round;}
	.st7{clip-path:url(#SVGID_6_);fill:none;stroke:#0000FF;stroke-width:1.5;stroke-linecap:round;stroke-linejoin:round;}
	.st8{clip-path:url(#SVGID_8_);fill:none;stroke:#008000;stroke-width:1.5;stroke-linecap:round;stroke-linejoin:round;}
	.st9{fill:none;stroke:#000000;stroke-width:1.5;stroke-linecap:square;}
	.st10{fill:none;stroke:#000000;stroke-width:1.5;stroke-linecap:round;stroke-linejoin:round;}
	.st11{fill:#262626;}
	.st12{fill:none;stroke:#FF0000;stroke-width:1.5;stroke-linecap:round;stroke-linejoin:round;}
	.st13{fill:none;stroke:#0000FF;stroke-width:1.5;stroke-linecap:round;stroke-linejoin:round;}
	.st14{fill:none;stroke:#008000;stroke-width:1.5;stroke-linecap:round;stroke-linejoin:round;}
	.st15{fill:none;stroke:#000000;stroke-width:0.5;stroke-miterlimit:10;}
	.st16{opacity:0.5;fill:none;stroke:#000000;stroke-width:0.5;stroke-miterlimit:10;enable-background:new    ;}
</style>
<g id="patch_1">
	<path class="st0" d="M0,396h288V0H0V396z"/>
</g>
<g id="patch_2">
	<path class="st0" d="M36,346.5h223.2v-299H36V346.5z"/>
</g>
<g id="matplotlib.axis_1">
	<g id="xtick_1">
		<g id="line2d_1">
			<g>
				<g>
					<path id="m7f52516581" class="st1" d="M36,56.5v-4"/>
				</g>
			</g>
		</g>
		<g id="text_1">
			<text transform="matrix(1 0 0 1 29.0493 47.0325)" class="st2 st3">0.5</text>
			<text transform="matrix(1 0 0 1 29.0493 47.0325)" class="st4 st2 st3">0.5</text>
		</g>
	</g>
	<g id="xtick_2">
		<g id="line2d_2">
			<g>
				<g>
					<path id="m7f52516581_1_" class="st1" d="M80.6,56.5v-4"/>
				</g>
			</g>
		</g>
		<g id="text_2">
			<text transform="matrix(1 0 0 1 73.6893 47.0325)" class="st2 st3">0.7</text>
			<text transform="matrix(1 0 0 1 73.6893 47.0325)" class="st4 st2 st3">0.7</text>
		</g>
	</g>
	<g id="xtick_3">
		<g id="line2d_3">
			<g>
				<g>
					<path id="m7f52516581_2_" class="st1" d="M125.3,56.5v-4"/>
				</g>
			</g>
		</g>
		<g id="text_3">
			<text transform="matrix(1 0 0 1 118.3293 47.0325)" class="st2 st3">0.9</text>
			<text transform="matrix(1 0 0 1 118.3293 47.0325)" class="st4 st2 st3">0.9</text>
		</g>
	</g>
	<g id="xtick_4">
		<g id="line2d_4">
			<g>
				<g>
					<path id="m7f52516581_3_" class="st1" d="M169.9,56.5v-4"/>
				</g>
			</g>
		</g>
		<g id="text_4">
			<text transform="matrix(1 0 0 1 162.9694 47.0325)" class="st2 st3">1.1</text>
			<text transform="matrix(1 0 0 1 162.9694 47.0325)" class="st4 st2 st3">1.1</text>
		</g>
	</g>
	<g id="xtick_5">
		<g id="line2d_5">
			<g>
				<g>
					<path id="m7f52516581_4_" class="st1" d="M214.6,56.5v-4"/>
				</g>
			</g>
		</g>
		<g id="text_5">
			<text transform="matrix(1 0 0 1 207.6094 47.0325)" class="st2 st3">1.3</text>
			<text transform="matrix(1 0 0 1 207.6094 47.0325)" class="st4 st2 st3">1.3</text>
		</g>
	</g>
	<g id="xtick_6">
		<g id="line2d_6">
			<g>
				<g>
					<path id="m7f52516581_5_" class="st1" d="M259.2,56.5v-4"/>
				</g>
			</g>
		</g>
		<g id="text_6">
			<text transform="matrix(1 0 0 1 252.2493 47.0325)" class="st2 st3">1.5</text>
			<text transform="matrix(1 0 0 1 252.2493 47.0325)" class="st4 st2 st3">1.5</text>
		</g>
	</g>
	<g id="text_7">
		<text transform="matrix(1 0 0 1 109.2015 31.8746)" class="st2 st3">Temperature (°C)</text>
		<text transform="matrix(1 0 0 1 109.2015 31.8746)" class="st4 st2 st3">Temperature (°C)</text>
	</g>
</g>
<g id="matplotlib.axis_2">
	<g id="ytick_1">
		<g id="line2d_7">
			<g>
				<g>
					<path id="m19fbc0359a" class="st1" d="M36,60.5h-4"/>
				</g>
			</g>
		</g>
		<g id="text_8">
			<text transform="matrix(1 0 0 1 22.9385 64.0707)" class="st2 st3">0</text>
			<text transform="matrix(1 0 0 1 22.9385 64.0707)" class="st4 st2 st3">0</text>
		</g>
	</g>
	<g id="ytick_2">
		<g id="line2d_8">
			<g>
				<g>
					<path id="m19fbc0359a_1_" class="st1" d="M36,102.7h-4"/>
				</g>
			</g>
		</g>
		<g id="text_9">
			<text transform="matrix(1 0 0 1 17.377 106.2788)" class="st2 st3">10</text>
			<text transform="matrix(1 0 0 1 17.377 106.2788)" class="st4 st2 st3">10</text>
		</g>
	</g>
	<g id="ytick_3">
		<g id="line2d_9">
			<g>
				<g>
					<path id="m19fbc0359a_2_" class="st1" d="M36,144.9h-4"/>
				</g>
			</g>
		</g>
		<g id="text_10">
			<text transform="matrix(1 0 0 1 17.377 148.4869)" class="st2 st3">20</text>
			<text transform="matrix(1 0 0 1 17.377 148.4869)" class="st4 st2 st3">20</text>
		</g>
	</g>
	<g id="ytick_4">
		<g id="line2d_10">
			<g>
				<g>
					<path id="m19fbc0359a_3_" class="st1" d="M36,187.1h-4"/>
				</g>
			</g>
		</g>
		<g id="text_11">
			<text transform="matrix(1 0 0 1 17.377 190.6951)" class="st2 st3">30</text>
			<text transform="matrix(1 0 0 1 17.377 190.6951)" class="st4 st2 st3">30</text>
		</g>
	</g>
	<g id="ytick_5">
		<g id="line2d_11">
			<g>
				<g>
					<path id="m19fbc0359a_4_" class="st1" d="M36,229.3h-4"/>
				</g>
			</g>
		</g>
		<g id="text_12">
			<text transform="matrix(1 0 0 1 17.377 232.9032)" class="st2 st3">40</text>
			<text transform="matrix(1 0 0 1 17.377 232.9032)" class="st4 st2 st3">40</text>
		</g>
	</g>
	<g id="ytick_6">
		<g id="line2d_12">
			<g>
				<g>
					<path id="m19fbc0359a_5_" class="st1" d="M36,271.5h-4"/>
				</g>
			</g>
		</g>
		<g id="text_13">
			<text transform="matrix(1 0 0 1 17.377 275.1113)" class="st2 st3">50</text>
			<text transform="matrix(1 0 0 1 17.377 275.1113)" class="st4 st2 st3">50</text>
		</g>
	</g>
	<g id="ytick_7">
		<g id="line2d_13">
			<g>
				<g>
					<path id="m19fbc0359a_6_" class="st1" d="M36,313.7h-4"/>
				</g>
			</g>
		</g>
		<g id="text_14">
			<text transform="matrix(1 0 0 1 17.377 317.3196)" class="st2 st3">60</text>
			<text transform="matrix(1 0 0 1 17.377 317.3196)" class="st4 st2 st3">60</text>
		</g>
	</g>
	<g id="text_15">
		<text transform="matrix(6.123234e-17 -1 1 6.123234e-17 11.2734 219.2363)" class="st2 st3">Depth (m)</text>
		<text transform="matrix(6.123234e-17 -1 1 6.123234e-17 11.2734 219.2363)" class="st4 st2 st3">Depth (m)</text>
	</g>
</g>
<g id="line2d_14">
	<g>
		<g>
			<defs>
				<rect id="SVGID_1_" x="36" y="47.5" width="223.2" height="299"/>
			</defs>
			<clipPath id="SVGID_2_">
				<use xlink:href="#SVGID_1_"  style="overflow:visible;"/>
			</clipPath>
			<path class="st5" d="M195.5,328.3l-0.3-1.5v-1.3l-0.3-1.3v-1.4l-0.5-2.8v-1.5l-0.5-3V314l-0.8-4.4l-1.1-2.8l-0.8-1.5l-1.1-1.5
				l-1.6-2.7l-0.8-1.3l-0.5-1.4l-0.8-1.3l-1-2.7l-0.8-1.4l-0.3-1.4l-1.6-4.1l-0.3-1.4l-1.6-4l-0.3-1.4l-1-2.6l-3.1-5.6l-0.8-1.4
				l-1.3-1.5l-0.8-1.4l-0.5-1.4l-1.6-3l-1-1.4l-3.1-5.8l-1.6-2.9l-1.3-1.5l-0.8-1.5l-2.1-3l-3.9-7.4l-0.5-1.5l-1.6-3.1l-1.3-1.5
				l-0.8-1.6l-0.5-1.6l-3.1-6.1l-1-1.5l-3.1-6.1l-1-1.5l-1.8-1.6l-1.3-1.5l-1-1.5l-1.3-1.6l-0.8-1.5l-1-1.5l-3.1-6.3l-1-1.6
				l-0.5-1.6l-0.8-1.6l-1-3.2l-0.8-1.6l-2.6-7.8l-0.3-1.5l-0.8-1.5l-2.1-5.9l-0.5-3.1l-1-3.1l-0.3-1.6l-1.5-4.3l-0.8-1.4l-1-2.9
				l-0.3-1.4l-0.5-1.3l-0.3-1.3l-0.5-1.3l-1.3-6.9l-0.5-1.3l-0.8-4v-1.4l-0.3-1.4v-1.4l-0.3-1.4v-1.4l-0.3-1.5v-2.9l-0.5-2.8v-2.8
				l-0.3-1.5v-4.2l-0.3-1.4v-3l-0.3-1.5V110l-0.3-1.4v-4.4l-0.3-1.5v-2.8l-0.3-1.3V96l-0.3-1.3v-2.6l-0.3-1.2v-2.7l-0.3-1.4v-3
				l-0.3-1.6v-1.6l-0.3-1.6v-3.2l-0.3-1.4V61.8l0,0h0.3h-9h4.4"/>
		</g>
	</g>
</g>
<g id="line2d_15">
	<g>
		<g>
			<defs>
				<rect id="SVGID_3_" x="36" y="47.5" width="223.2" height="299"/>
			</defs>
			<clipPath id="SVGID_4_">
				<use xlink:href="#SVGID_3_"  style="overflow:visible;"/>
			</clipPath>
			<path class="st6" d="M120.7,330.6V320l-0.3-1.5v-9.7l-0.3-1.4V299l-0.3-1.2v-10.6l-0.3-1.3v-22.5l-0.3-1.5v-21.4l-0.3-1.4v-24.7
				l-0.3-1.5v-23.4l-0.3-1.3v-31.1l-0.3-1.4l0.3-1.3l-0.3-1.3v-25.4l-0.3-1.4v-14.2l-0.3-1.4V105l-0.3-1.6V102l-0.3-1.5V99l-0.5-2.7
				V95l-0.5-2.8v-1.4l-0.8-4.1v-1.3l-0.8-4.2v-1.5l-1.3-7v-1.4l-0.8-4V66l-0.8-4.5V61H111l-0.3,0.2v-0.1l-0.3-0.1h-0.3v0.1l-0.5-0.1
				l0,0l0,0l-0.5-0.1l0,0l-0.3-0.1h0.5l0,0l0,0l0,0h1v-0.1l0,0h0.8l0,0l0,0l0,0l1.5,0.2l-1-0.2v0.1l-0.3-0.2l0,0"/>
		</g>
	</g>
</g>
<g id="line2d_16">
	<g>
		<g>
			<defs>
				<rect id="SVGID_5_" x="36" y="47.5" width="223.2" height="299"/>
			</defs>
			<clipPath id="SVGID_6_">
				<use xlink:href="#SVGID_5_"  style="overflow:visible;"/>
			</clipPath>
			<path class="st7" d="M111.9,332.9v-3.8l-0.3-1.2v-49.7l-0.3-1.4v-15.6l-0.3-1.5v-6.1l-0.3-1.5V242l-0.3-1.3V234l-0.3-1.4v-9.5
				l-0.3-1.3v-9.9l-0.3-1.5v-6l-0.3-1.5v-6.1l-0.3-1.5v-6.2l-0.3-1.6v-4.6l-0.3-1.5v-3l-0.3-1.6v-1.5l-0.5-2.9V171l-1.5-8.7v-1.5
				l-1-5.7v-1.4l-1.8-10.4v-1.5l-0.5-3v-1.3l-1-5.6v-1.4l-1.8-9.7l-0.5-1.6l-0.3-1.5l-3.1-8.8l-0.3-1.4l-0.5-1.5l-1.3-7.2l-1-5.6
				v-2.6l-0.3-1.4v-1.4l-0.3-1.4V85L92,83.6V78l-0.3-1.4v-4.1l0.4-1.5v-8.6l0,0l0.3,0.1v-0.1l0,0l25.7-0.1l0,0"/>
		</g>
	</g>
</g>
<g id="line2d_17">
	<g>
		<g>
			<defs>
				<rect id="SVGID_7_" x="36" y="47.5" width="223.2" height="299"/>
			</defs>
			<clipPath id="SVGID_8_">
				<use xlink:href="#SVGID_7_"  style="overflow:visible;"/>
			</clipPath>
			<path class="st8" d="M152.7,331.4l-1-1.4l-2.1-1.4l-1.6-1.4l-3.9-2.6l-2.3-1.4l-3.6-1.4l-2.6-1.4l-2.3-1.5l-2.1-1.5l-2.3-1.5
				l-3.1-1.5l-3.6-3l-1.5-1.5l-1.3-1.6l-2.1-1.5l-1-1.5l-1.3-1.5l-0.8-1.5l-1-1.5l-1.3-1.5l-0.8-1.5l-0.5-1.6l-0.8-1.6l-0.5-1.5
				l-0.3-1.5l-0.5-1.5L108,287l-0.5-1.6l-0.3-1.5l-0.5-1.5l-0.3-1.5l-3.1-9.1l-0.8-4.2l-1-2.9l-1-5.7l-0.5-1.5l-1-5.8l-0.5-1.5
				l-0.3-1.5l-1-2.9l-1.5-3l-0.5-1.5l-0.8-1.5l-1-3.1l-0.8-1.6l-2-6.2l-0.8-1.6l-2-5.9L87,220l-1-2.8l-0.3-1.3l-0.8-1.4l-1-5.6v-1.4
				l-0.8-4.5l-0.5-1.5l-1-5.6l-0.5-1.5l-2.3-13.1l-0.5-1.4l-0.5-2.8l-0.5-1.4l-0.3-1.3l-0.5-1.4l-0.3-1.5l-0.5-1.5l-0.8-4l-0.5-1.4
				l-0.5-2.8l-0.5-1.5l-0.3-1.5l-0.5-1.5l-0.8-4.4l-0.5-1.5l-0.3-1.5l-1-3.1l-1-1.5l-0.8-1.5l-0.5-1.5l-0.8-1.5l-0.5-1.5l-0.8-1.5
				l-1.5-4.4l-1.5-3l-0.5-1.5l-0.8-1.5l-0.5-1.5l-0.8-1.5l-1-1.4l-2.3-4.3l-0.5-1.5l-1-1.5l-0.5-1.6l-0.3-1.5l-0.5-1.5l-1-1.5
				l-1.5-4.6l-0.3-1.5l-1-2.9l-0.8-4.4l-0.5-1.6L48.5,93v-1L48,89.1v-1.5l-0.5-2.9v-1.5l-0.3-1.3V79l-0.3-1.4v-1.4l-0.3-1.4v-2.9
				l-0.3-1.5v-9.2h0.3l0.3,0.2l0.5-0.2v0.1l0.3,0.3l-0.3-0.2l-0.5-0.2h0.3H49v0.1l3.8-0.1h8.1h-9.8l-0.8,0.2l-1.8-0.2L48,61.3h-1
				h-0.3l1.8-0.1v0.2v-0.2v0.1"/>
		</g>
	</g>
</g>
<g id="patch_3">
	<path class="st9" d="M36,346.5v-291"/>
</g>
<g id="patch_4">
	<path class="st9" d="M259.2,346.5v-290"/>
</g>
<g id="patch_5">
	<path class="st9" d="M36,346.5h223.2"/>
</g>
<g id="patch_6">
	<path class="st9" d="M36,56.5h223.2"/>
</g>
<g id="line2d_18">
	<path class="st10" d="M139.3,113.8h11.9"/>
</g>
<g id="line2d_19">
</g>
<g id="text_16">
	<text transform="matrix(1 0 0 1 158.1007 117.295)" class="st11 st2 st3">Buoy 6, March 10 </text>
	<text transform="matrix(1 0 0 1 158.1003 117.2949)" class="st4 st2 st3">Buoy 6, March 10 </text>
</g>
<g id="line2d_20">
	<path class="st12" d="M139.3,85.5h11.9"/>
</g>
<g id="line2d_21">
</g>
<g id="text_17">
	<text transform="matrix(1 0 0 1 158.101 88.97)" class="st11 st2 st3">Buoy 4, March 1 </text>
	<text transform="matrix(1 0 0 1 158.101 88.97)" class="st4 st2 st3">Buoy 4, March 1 </text>
</g>
<g id="line2d_22">
	<path class="st13" d="M139.3,99.6h11.9"/>
</g>
<g id="line2d_23">
</g>
<g id="text_18">
	<text transform="matrix(1 0 0 1 158.101 103.145)" class="st11 st2 st3">Buoy 5, March 5 </text>
	<text transform="matrix(1 0 0 1 158.101 103.145)" class="st4 st2 st3">Buoy 5, March 5 </text>
</g>
<g id="line2d_24">
	<path class="st14" d="M139.3,127.8h11.9"/>
</g>
<g id="line2d_25">
</g>
<g id="text_19">
	<text transform="matrix(1 0 0 1 158.101 131.3201)" class="st11 st2 st3">Buoy 7, March 15 </text>
	<text transform="matrix(1 0 0 1 158.1013 131.3198)" class="st4 st2 st3">Buoy 7, March 15 </text>
</g>
<g id="text_7_1_">
	<text transform="matrix(1 0 0 1 155.2015 74.6246)" class="st2 st3">Release Dates</text>
	<text transform="matrix(1 0 0 1 155.2015 74.6246)" class="st15 st2 st3">Release Dates</text>
</g>
<rect x="130.5" y="62.5" class="st16" width="114.7" height="75.3"/>
</svg>
